%FSTAX23Y23*%
%MOIN*%
G70*
G01*
G75*
G04 Layer_Color=8388736*
%ADD10R,0.300X0.080*%
%ADD11C,0.010*%
%ADD12C,0.030*%
%ADD13C,0.018*%
%ADD14C,0.012*%
%ADD15C,0.015*%
%ADD16C,0.020*%
%ADD17C,0.040*%
%ADD18C,0.060*%
%ADD19C,0.160*%
%ADD20C,0.065*%
%ADD21C,0.075*%
%ADD22R,0.075X0.075*%
%ADD23C,0.055*%
%ADD24O,0.100X0.050*%
%ADD25C,0.066*%
%ADD26C,0.100*%
%ADD27R,0.100X0.100*%
%ADD28C,0.200*%
%ADD29O,0.050X0.100*%
%ADD30R,0.100X0.050*%
%ADD31O,0.050X0.100*%
%ADD32R,0.059X0.059*%
%ADD33C,0.059*%
%ADD34R,0.066X0.066*%
%ADD35R,0.050X0.100*%
%ADD36R,0.065X0.065*%
%ADD37R,0.075X0.075*%
%ADD38O,0.120X0.065*%
%ADD39R,0.120X0.065*%
%ADD40R,0.065X0.065*%
%ADD41C,0.130*%
%ADD42C,0.190*%
%ADD43C,0.180*%
%ADD44C,0.187*%
%ADD45R,0.047X0.047*%
%ADD46C,0.047*%
%ADD47C,0.120*%
%ADD48C,0.110*%
%ADD49C,0.063*%
%ADD50R,0.063X0.063*%
G04:AMPARAMS|DCode=51|XSize=450mil|YSize=400mil|CornerRadius=20mil|HoleSize=0mil|Usage=FLASHONLY|Rotation=270.000|XOffset=0mil|YOffset=0mil|HoleType=Round|Shape=RoundedRectangle|*
%AMROUNDEDRECTD51*
21,1,0.450,0.360,0,0,270.0*
21,1,0.410,0.400,0,0,270.0*
1,1,0.040,-0.180,-0.205*
1,1,0.040,-0.180,0.205*
1,1,0.040,0.180,0.205*
1,1,0.040,0.180,-0.205*
%
%ADD51ROUNDEDRECTD51*%
%ADD52R,0.090X0.090*%
%ADD53C,0.090*%
%ADD54C,0.032*%
%ADD55C,0.050*%
%ADD56C,0.007*%
%ADD57C,0.008*%
%ADD58C,0.050*%
%ADD59C,0.008*%
%ADD60C,0.006*%
%ADD61R,0.308X0.088*%
%ADD62C,0.168*%
%ADD63C,0.073*%
%ADD64C,0.083*%
%ADD65R,0.083X0.083*%
%ADD66C,0.063*%
%ADD67O,0.108X0.058*%
%ADD68C,0.074*%
%ADD69C,0.108*%
%ADD70R,0.108X0.108*%
%ADD71C,0.208*%
%ADD72O,0.058X0.108*%
%ADD73R,0.108X0.058*%
%ADD74O,0.058X0.108*%
%ADD75R,0.067X0.067*%
%ADD76C,0.067*%
%ADD77R,0.074X0.074*%
%ADD78R,0.058X0.108*%
%ADD79R,0.073X0.073*%
%ADD80R,0.083X0.083*%
%ADD81O,0.128X0.073*%
%ADD82R,0.128X0.073*%
%ADD83R,0.073X0.073*%
%ADD84C,0.138*%
%ADD85C,0.198*%
%ADD86C,0.188*%
%ADD87C,0.195*%
%ADD88R,0.055X0.055*%
%ADD89C,0.055*%
%ADD90C,0.128*%
%ADD91C,0.118*%
%ADD92C,0.071*%
%ADD93R,0.071X0.071*%
G04:AMPARAMS|DCode=94|XSize=458mil|YSize=408mil|CornerRadius=24mil|HoleSize=0mil|Usage=FLASHONLY|Rotation=270.000|XOffset=0mil|YOffset=0mil|HoleType=Round|Shape=RoundedRectangle|*
%AMROUNDEDRECTD94*
21,1,0.458,0.360,0,0,270.0*
21,1,0.410,0.408,0,0,270.0*
1,1,0.048,-0.180,-0.205*
1,1,0.048,-0.180,0.205*
1,1,0.048,0.180,0.205*
1,1,0.048,0.180,-0.205*
%
%ADD94ROUNDEDRECTD94*%
%ADD95R,0.098X0.098*%
%ADD96C,0.098*%
%ADD97C,0.040*%
%ADD98C,0.058*%
D61*
X1033Y038D02*
D03*
Y03956D02*
D03*
Y04112D02*
D03*
Y04268D02*
D03*
Y04424D02*
D03*
Y0458D02*
D03*
Y04736D02*
D03*
Y04892D02*
D03*
Y05048D02*
D03*
Y05204D02*
D03*
Y0536D02*
D03*
Y05516D02*
D03*
Y05672D02*
D03*
Y05828D02*
D03*
Y05984D02*
D03*
Y0614D02*
D03*
Y06296D02*
D03*
Y06452D02*
D03*
Y06608D02*
D03*
Y06764D02*
D03*
Y0692D02*
D03*
Y07076D02*
D03*
D62*
X052Y079D02*
D03*
X05Y077D02*
D03*
X054D02*
D03*
D63*
X0435Y0705D02*
D03*
X0445D02*
D03*
X0455D02*
D03*
X0855Y0635D02*
D03*
X093Y044D02*
D03*
Y045D02*
D03*
Y046D02*
D03*
Y047D02*
D03*
Y048D02*
D03*
Y049D02*
D03*
Y05D02*
D03*
Y051D02*
D03*
Y052D02*
D03*
Y053D02*
D03*
Y054D02*
D03*
Y055D02*
D03*
Y056D02*
D03*
Y057D02*
D03*
Y058D02*
D03*
Y059D02*
D03*
Y06D02*
D03*
Y061D02*
D03*
Y062D02*
D03*
Y063D02*
D03*
X092Y044D02*
D03*
Y045D02*
D03*
Y046D02*
D03*
Y047D02*
D03*
Y048D02*
D03*
Y049D02*
D03*
Y05D02*
D03*
Y051D02*
D03*
Y052D02*
D03*
Y053D02*
D03*
Y054D02*
D03*
Y055D02*
D03*
Y056D02*
D03*
Y057D02*
D03*
Y058D02*
D03*
Y059D02*
D03*
Y06D02*
D03*
Y061D02*
D03*
Y062D02*
D03*
X0555Y047D02*
D03*
Y046D02*
D03*
X0875Y049D02*
D03*
X0855Y0645D02*
D03*
X088Y0335D02*
D03*
X091Y0345D02*
D03*
X088D02*
D03*
X091Y0335D02*
D03*
X089D02*
D03*
X09D02*
D03*
D64*
X03936Y07682D02*
D03*
X051Y04525D02*
D03*
X05375Y047D02*
D03*
Y04525D02*
D03*
X081Y06325D02*
D03*
X08375Y065D02*
D03*
Y06325D02*
D03*
X03991Y0757D02*
D03*
X041D02*
D03*
X04264Y07682D02*
D03*
X04318Y0757D02*
D03*
X04209D02*
D03*
X04045Y07682D02*
D03*
X04155D02*
D03*
D65*
X03882Y0757D02*
D03*
D66*
X0425Y0645D02*
D03*
X0465D02*
D03*
Y0655D02*
D03*
X0425D02*
D03*
X048Y0315D02*
D03*
X044D02*
D03*
X043Y043D02*
D03*
X047D02*
D03*
X043Y042D02*
D03*
X047D02*
D03*
X043Y041D02*
D03*
X047D02*
D03*
X0725Y06D02*
D03*
X0765D02*
D03*
X0725Y059D02*
D03*
X0765D02*
D03*
X0725Y058D02*
D03*
X0765D02*
D03*
X0725Y057D02*
D03*
X0765D02*
D03*
X0725Y056D02*
D03*
X0765D02*
D03*
X0725Y055D02*
D03*
X0765D02*
D03*
X0725Y054D02*
D03*
X0765D02*
D03*
X0725Y053D02*
D03*
X0765D02*
D03*
X0725Y044D02*
D03*
X0765D02*
D03*
X0725Y043D02*
D03*
X0765D02*
D03*
X0725Y042D02*
D03*
X0765D02*
D03*
X085Y0615D02*
D03*
X081D02*
D03*
X091Y039D02*
D03*
X087D02*
D03*
X091Y038D02*
D03*
X087D02*
D03*
X091Y04D02*
D03*
X087D02*
D03*
X091Y041D02*
D03*
X087D02*
D03*
X088Y0653D02*
D03*
X092D02*
D03*
X0764Y0373D02*
D03*
X0804D02*
D03*
X06Y0503D02*
D03*
X064D02*
D03*
X0425Y0665D02*
D03*
X0465D02*
D03*
X0765Y045D02*
D03*
X0725D02*
D03*
D67*
X078Y05D02*
D03*
X084Y052D02*
D03*
X064Y055D02*
D03*
Y056D02*
D03*
Y057D02*
D03*
Y058D02*
D03*
Y059D02*
D03*
Y06D02*
D03*
X061Y055D02*
D03*
Y056D02*
D03*
Y057D02*
D03*
Y058D02*
D03*
Y059D02*
D03*
X058Y054D02*
D03*
Y055D02*
D03*
Y056D02*
D03*
Y057D02*
D03*
Y058D02*
D03*
Y059D02*
D03*
Y06D02*
D03*
X055Y054D02*
D03*
Y055D02*
D03*
Y056D02*
D03*
Y057D02*
D03*
Y058D02*
D03*
Y059D02*
D03*
X089Y057D02*
D03*
Y059D02*
D03*
Y06D02*
D03*
X086Y057D02*
D03*
Y058D02*
D03*
Y059D02*
D03*
X084Y049D02*
D03*
Y05D02*
D03*
Y051D02*
D03*
Y055D02*
D03*
Y056D02*
D03*
Y058D02*
D03*
Y059D02*
D03*
Y06D02*
D03*
X078Y042D02*
D03*
Y043D02*
D03*
Y044D02*
D03*
Y048D02*
D03*
Y049D02*
D03*
Y051D02*
D03*
Y052D02*
D03*
Y053D02*
D03*
Y054D02*
D03*
Y055D02*
D03*
Y056D02*
D03*
Y057D02*
D03*
Y058D02*
D03*
Y059D02*
D03*
X04Y047D02*
D03*
Y048D02*
D03*
Y049D02*
D03*
Y05D02*
D03*
Y051D02*
D03*
Y052D02*
D03*
Y053D02*
D03*
Y054D02*
D03*
Y055D02*
D03*
Y056D02*
D03*
Y057D02*
D03*
Y058D02*
D03*
Y059D02*
D03*
Y06D02*
D03*
X034Y047D02*
D03*
Y048D02*
D03*
Y049D02*
D03*
Y05D02*
D03*
Y051D02*
D03*
Y052D02*
D03*
Y053D02*
D03*
Y054D02*
D03*
Y055D02*
D03*
Y056D02*
D03*
Y057D02*
D03*
Y058D02*
D03*
Y059D02*
D03*
X046Y053D02*
D03*
Y054D02*
D03*
Y055D02*
D03*
Y056D02*
D03*
Y057D02*
D03*
Y058D02*
D03*
Y059D02*
D03*
Y06D02*
D03*
X043Y053D02*
D03*
Y054D02*
D03*
Y055D02*
D03*
Y056D02*
D03*
Y057D02*
D03*
Y058D02*
D03*
Y059D02*
D03*
X052Y054D02*
D03*
Y055D02*
D03*
Y056D02*
D03*
Y057D02*
D03*
Y058D02*
D03*
Y059D02*
D03*
Y06D02*
D03*
X049Y054D02*
D03*
Y055D02*
D03*
Y056D02*
D03*
Y057D02*
D03*
Y058D02*
D03*
Y059D02*
D03*
X078Y046D02*
D03*
X084Y053D02*
D03*
Y054D02*
D03*
Y041D02*
D03*
Y042D02*
D03*
Y043D02*
D03*
Y044D02*
D03*
Y045D02*
D03*
Y046D02*
D03*
Y047D02*
D03*
Y057D02*
D03*
X089Y058D02*
D03*
X084Y048D02*
D03*
X07Y051D02*
D03*
Y052D02*
D03*
Y053D02*
D03*
Y054D02*
D03*
Y055D02*
D03*
Y056D02*
D03*
Y057D02*
D03*
Y058D02*
D03*
X067Y051D02*
D03*
X07Y06D02*
D03*
X067Y059D02*
D03*
Y058D02*
D03*
Y057D02*
D03*
Y056D02*
D03*
Y055D02*
D03*
Y054D02*
D03*
Y053D02*
D03*
Y052D02*
D03*
X07Y059D02*
D03*
X025D02*
D03*
Y058D02*
D03*
Y057D02*
D03*
Y056D02*
D03*
Y055D02*
D03*
Y054D02*
D03*
Y053D02*
D03*
Y052D02*
D03*
Y051D02*
D03*
Y05D02*
D03*
Y049D02*
D03*
Y048D02*
D03*
Y047D02*
D03*
X031Y06D02*
D03*
Y058D02*
D03*
Y057D02*
D03*
Y056D02*
D03*
Y055D02*
D03*
Y054D02*
D03*
Y053D02*
D03*
Y052D02*
D03*
Y051D02*
D03*
Y05D02*
D03*
Y049D02*
D03*
Y048D02*
D03*
Y047D02*
D03*
Y059D02*
D03*
X078Y045D02*
D03*
X061Y053D02*
D03*
Y054D02*
D03*
X078Y041D02*
D03*
Y047D02*
D03*
X064Y054D02*
D03*
Y053D02*
D03*
D68*
X0455Y068D02*
D03*
X0435D02*
D03*
X076Y049D02*
D03*
X0235Y071D02*
D03*
X0565Y0415D02*
D03*
X0545D02*
D03*
X069Y0615D02*
D03*
X071D02*
D03*
X0875D02*
D03*
X0895D02*
D03*
X074Y049D02*
D03*
X0565Y0615D02*
D03*
X0585D02*
D03*
X0505D02*
D03*
X0525D02*
D03*
X0445D02*
D03*
X0465D02*
D03*
X038D02*
D03*
X04D02*
D03*
X029D02*
D03*
X031D02*
D03*
X051Y0415D02*
D03*
X053D02*
D03*
X039Y041D02*
D03*
X041D02*
D03*
X025Y043D02*
D03*
X023D02*
D03*
D69*
X076Y0765D02*
D03*
X07765D02*
D03*
X0793D02*
D03*
X0826D02*
D03*
X0842D02*
D03*
X0859D02*
D03*
X08755D02*
D03*
X0892D02*
D03*
X09085D02*
D03*
X07765Y0787D02*
D03*
X0793D02*
D03*
X08095D02*
D03*
X0826D02*
D03*
X08425D02*
D03*
X0859D02*
D03*
X08755D02*
D03*
X0892D02*
D03*
X09085D02*
D03*
X08095Y0765D02*
D03*
D70*
X076Y0787D02*
D03*
D71*
X0927Y0765D02*
D03*
X07415D02*
D03*
X1005Y0788D02*
D03*
Y0312D02*
D03*
X0212D02*
D03*
Y0788D02*
D03*
D72*
X0775Y074D02*
D03*
Y071D02*
D03*
Y068D02*
D03*
X0785D02*
D03*
Y071D02*
D03*
Y074D02*
D03*
X0795Y068D02*
D03*
Y071D02*
D03*
Y074D02*
D03*
X0825D02*
D03*
Y071D02*
D03*
Y068D02*
D03*
X0815Y074D02*
D03*
Y071D02*
D03*
Y068D02*
D03*
X0805D02*
D03*
Y071D02*
D03*
Y074D02*
D03*
X0855D02*
D03*
Y071D02*
D03*
Y068D02*
D03*
X0845Y074D02*
D03*
Y071D02*
D03*
Y068D02*
D03*
X0835D02*
D03*
Y071D02*
D03*
Y074D02*
D03*
X0885D02*
D03*
Y071D02*
D03*
Y068D02*
D03*
X0875Y074D02*
D03*
Y071D02*
D03*
Y068D02*
D03*
X0865D02*
D03*
Y071D02*
D03*
Y074D02*
D03*
X0915D02*
D03*
Y071D02*
D03*
Y068D02*
D03*
X0905Y074D02*
D03*
Y071D02*
D03*
Y068D02*
D03*
X0895D02*
D03*
Y071D02*
D03*
Y074D02*
D03*
X0935D02*
D03*
Y071D02*
D03*
Y068D02*
D03*
X0925D02*
D03*
Y071D02*
D03*
Y074D02*
D03*
X0745D02*
D03*
Y071D02*
D03*
Y068D02*
D03*
X0755D02*
D03*
Y071D02*
D03*
Y074D02*
D03*
X0765Y068D02*
D03*
Y071D02*
D03*
Y074D02*
D03*
X0715D02*
D03*
Y071D02*
D03*
Y068D02*
D03*
X0725D02*
D03*
Y071D02*
D03*
Y074D02*
D03*
X0735Y068D02*
D03*
Y071D02*
D03*
Y074D02*
D03*
X0685D02*
D03*
Y071D02*
D03*
Y068D02*
D03*
X0695D02*
D03*
Y071D02*
D03*
Y074D02*
D03*
X0705Y068D02*
D03*
Y071D02*
D03*
Y074D02*
D03*
X0655D02*
D03*
Y071D02*
D03*
Y068D02*
D03*
X0665D02*
D03*
Y071D02*
D03*
Y074D02*
D03*
X0675Y068D02*
D03*
Y071D02*
D03*
Y074D02*
D03*
X0625D02*
D03*
Y071D02*
D03*
Y068D02*
D03*
X0635D02*
D03*
Y071D02*
D03*
Y074D02*
D03*
X0645Y068D02*
D03*
Y071D02*
D03*
Y074D02*
D03*
X0595D02*
D03*
Y071D02*
D03*
Y068D02*
D03*
X0605D02*
D03*
Y071D02*
D03*
Y074D02*
D03*
X0615Y068D02*
D03*
Y071D02*
D03*
Y074D02*
D03*
X0565D02*
D03*
Y071D02*
D03*
Y068D02*
D03*
X0575D02*
D03*
Y071D02*
D03*
Y074D02*
D03*
X0585Y068D02*
D03*
Y071D02*
D03*
Y074D02*
D03*
X0535D02*
D03*
Y071D02*
D03*
Y068D02*
D03*
X0545D02*
D03*
Y071D02*
D03*
Y074D02*
D03*
X0555Y068D02*
D03*
Y071D02*
D03*
Y074D02*
D03*
X0505D02*
D03*
Y071D02*
D03*
Y068D02*
D03*
X0515D02*
D03*
Y071D02*
D03*
Y074D02*
D03*
X0525Y068D02*
D03*
Y071D02*
D03*
Y074D02*
D03*
X0495D02*
D03*
Y071D02*
D03*
Y068D02*
D03*
X0485Y074D02*
D03*
Y071D02*
D03*
Y068D02*
D03*
X0475D02*
D03*
Y071D02*
D03*
Y074D02*
D03*
D73*
X061Y06D02*
D03*
X055D02*
D03*
X086D02*
D03*
X078D02*
D03*
X034D02*
D03*
X043D02*
D03*
X049D02*
D03*
X067D02*
D03*
X025D02*
D03*
D74*
X041Y039D02*
D03*
X083Y036D02*
D03*
X078D02*
D03*
X077D02*
D03*
X076D02*
D03*
X083Y033D02*
D03*
X079D02*
D03*
X078D02*
D03*
X053D02*
D03*
X054D02*
D03*
X055D02*
D03*
X056D02*
D03*
X057D02*
D03*
X058D02*
D03*
X059D02*
D03*
X06D02*
D03*
X061D02*
D03*
X062D02*
D03*
X063D02*
D03*
X064D02*
D03*
X065D02*
D03*
X066D02*
D03*
X067D02*
D03*
X068D02*
D03*
X069D02*
D03*
X07D02*
D03*
X053Y039D02*
D03*
X054D02*
D03*
X055D02*
D03*
X056D02*
D03*
X057D02*
D03*
X058D02*
D03*
X059D02*
D03*
X06D02*
D03*
X061D02*
D03*
X062D02*
D03*
X063D02*
D03*
X064D02*
D03*
X065D02*
D03*
X066D02*
D03*
X067D02*
D03*
X068D02*
D03*
X069D02*
D03*
X07D02*
D03*
X071D02*
D03*
X029Y033D02*
D03*
X03D02*
D03*
X031D02*
D03*
X032D02*
D03*
X033D02*
D03*
X034D02*
D03*
X035D02*
D03*
X036D02*
D03*
X037D02*
D03*
X038D02*
D03*
X039D02*
D03*
X04D02*
D03*
X041D02*
D03*
X042D02*
D03*
X043D02*
D03*
X044D02*
D03*
X045D02*
D03*
X046D02*
D03*
X047D02*
D03*
X048D02*
D03*
X029Y039D02*
D03*
X03D02*
D03*
X031D02*
D03*
X032D02*
D03*
X033D02*
D03*
X034D02*
D03*
X035D02*
D03*
X036D02*
D03*
X037D02*
D03*
X038D02*
D03*
X039D02*
D03*
X04D02*
D03*
X042D02*
D03*
X043D02*
D03*
X044D02*
D03*
X045D02*
D03*
X046D02*
D03*
X047D02*
D03*
X072Y033D02*
D03*
X08Y036D02*
D03*
X079D02*
D03*
X082D02*
D03*
X081D02*
D03*
Y033D02*
D03*
X08D02*
D03*
X082D02*
D03*
X077D02*
D03*
X071D02*
D03*
D75*
X038Y07D02*
D03*
X0405D02*
D03*
X059Y0645D02*
D03*
X053D02*
D03*
X056D02*
D03*
X065D02*
D03*
X062D02*
D03*
D76*
X03879Y07D02*
D03*
X04129D02*
D03*
X05979Y0645D02*
D03*
X05379D02*
D03*
X05679D02*
D03*
X06579D02*
D03*
X06279D02*
D03*
D77*
X0215Y071D02*
D03*
D78*
X076Y033D02*
D03*
X072Y039D02*
D03*
X048D02*
D03*
D79*
X092Y063D02*
D03*
D80*
X051Y047D02*
D03*
X081Y065D02*
D03*
D81*
X025Y0345D02*
D03*
Y0405D02*
D03*
X022Y0345D02*
D03*
D82*
Y0405D02*
D03*
D83*
X0875Y051D02*
D03*
D84*
X052Y077D02*
D03*
X0923Y0324D02*
D03*
X0867D02*
D03*
X0895Y032D02*
D03*
D85*
X0305Y07453D02*
D03*
D86*
X02861Y07579D02*
D03*
X0305Y07697D02*
D03*
D87*
X03608Y07626D02*
D03*
X04592D02*
D03*
D88*
X035Y072D02*
D03*
D89*
Y073D02*
D03*
D90*
X0246Y0785D02*
D03*
X0263D02*
D03*
D91*
X0255Y0736D02*
D03*
Y0718D02*
D03*
Y07D02*
D03*
D92*
X021Y0645D02*
D03*
Y0655D02*
D03*
X039Y0665D02*
D03*
Y0655D02*
D03*
D93*
X021Y0665D02*
D03*
X039Y0645D02*
D03*
D94*
X0278Y0655D02*
D03*
X0322D02*
D03*
D95*
X1Y038D02*
D03*
D96*
Y03956D02*
D03*
Y04112D02*
D03*
Y04268D02*
D03*
Y04424D02*
D03*
Y0458D02*
D03*
Y04736D02*
D03*
Y04892D02*
D03*
Y05048D02*
D03*
Y05204D02*
D03*
Y0536D02*
D03*
Y05516D02*
D03*
Y05672D02*
D03*
Y05828D02*
D03*
Y05984D02*
D03*
Y0614D02*
D03*
Y06296D02*
D03*
Y06452D02*
D03*
Y06608D02*
D03*
Y06764D02*
D03*
Y0692D02*
D03*
Y07076D02*
D03*
X098Y038D02*
D03*
Y03956D02*
D03*
Y04112D02*
D03*
Y04268D02*
D03*
Y04424D02*
D03*
Y0458D02*
D03*
Y04736D02*
D03*
Y04892D02*
D03*
Y05048D02*
D03*
Y05204D02*
D03*
Y0536D02*
D03*
Y05516D02*
D03*
Y05672D02*
D03*
Y05828D02*
D03*
Y05984D02*
D03*
Y0614D02*
D03*
Y06296D02*
D03*
Y06452D02*
D03*
Y06608D02*
D03*
Y06764D02*
D03*
Y0692D02*
D03*
Y07076D02*
D03*
D97*
X02615Y0436D02*
D03*
X07187Y05388D02*
D03*
X07145Y05295D02*
D03*
X07295Y03939D02*
D03*
X0838Y03327D02*
D03*
X08324Y04869D02*
D03*
X06769Y04942D02*
D03*
X07351Y03944D02*
D03*
X0826Y03885D02*
D03*
X0822Y0526D02*
D03*
X07382Y05263D02*
D03*
X07753Y03388D02*
D03*
X09142Y05315D02*
D03*
X08708Y05776D02*
D03*
X08569Y06124D02*
D03*
Y05569D02*
D03*
X08736Y0537D02*
D03*
X09658Y06511D02*
D03*
X05423Y03443D02*
D03*
X04877Y03958D02*
D03*
X05051Y04117D02*
D03*
X0443Y05337D02*
D03*
X09905Y06885D02*
D03*
X09617Y06413D02*
D03*
X09563Y06428D02*
D03*
X05084Y03503D02*
D03*
X068Y0347D02*
D03*
X08261Y03665D02*
D03*
X09465Y06608D02*
D03*
X09709Y0644D02*
D03*
X05105Y04336D02*
D03*
X08735Y04652D02*
D03*
X09475Y06507D02*
D03*
X09539Y06072D02*
D03*
X02473Y06863D02*
D03*
X09279Y06708D02*
D03*
X09327Y06543D02*
D03*
X02504Y06832D02*
D03*
X0871Y06648D02*
D03*
Y06394D02*
D03*
X09125Y04253D02*
D03*
X033Y03448D02*
D03*
X08088Y0312D02*
D03*
X08992Y04138D02*
D03*
X05491Y05098D02*
D03*
X08774Y05685D02*
D03*
X05474Y05254D02*
D03*
X057Y0546D02*
D03*
X08569Y0545D02*
D03*
X08631Y05512D02*
D03*
X04915Y03887D02*
D03*
X0896Y05452D02*
D03*
X0869Y04643D02*
D03*
X05165Y04628D02*
D03*
X08213Y03398D02*
D03*
X05494Y052D02*
D03*
X05862Y04832D02*
D03*
X08679Y04736D02*
D03*
X08921Y05402D02*
D03*
X09017Y04744D02*
D03*
X08119Y03456D02*
D03*
X09484Y04852D02*
D03*
X09493Y04752D02*
D03*
X08883Y04649D02*
D03*
X08794Y0456D02*
D03*
X0576Y0405D02*
D03*
X0286Y04195D02*
D03*
X08239Y03481D02*
D03*
X0901Y04653D02*
D03*
X09599Y04256D02*
D03*
X09122Y04461D02*
D03*
X05892Y04082D02*
D03*
X09232Y04199D02*
D03*
X07991Y03487D02*
D03*
X08231Y04123D02*
D03*
X09035Y04244D02*
D03*
X09021Y046D02*
D03*
X07951Y03259D02*
D03*
X05527Y03397D02*
D03*
X04207Y06902D02*
D03*
X06597Y05959D02*
D03*
X0447Y07126D02*
D03*
X04707Y06475D02*
D03*
X06515Y05934D02*
D03*
X06146Y06106D02*
D03*
X05828Y06393D02*
D03*
X03852Y04187D02*
D03*
X0889Y04699D02*
D03*
X08797Y04625D02*
D03*
X05933Y0476D02*
D03*
X05491Y04777D02*
D03*
X067Y04457D02*
D03*
X07987Y046D02*
D03*
X06811Y05934D02*
D03*
X06337Y04194D02*
D03*
X063Y04052D02*
D03*
X062Y04017D02*
D03*
X06392Y04188D02*
D03*
X06909Y05776D02*
D03*
X06704Y03824D02*
D03*
X07197Y04326D02*
D03*
X05969Y04015D02*
D03*
X058Y04029D02*
D03*
X07261Y04628D02*
D03*
X09449Y03163D02*
D03*
X0585Y03349D02*
D03*
X05341Y04039D02*
D03*
X05242Y04213D02*
D03*
X06469Y03184D02*
D03*
X03051Y03041D02*
D03*
X08538Y03068D02*
D03*
X05861Y04049D02*
D03*
X05925Y04225D02*
D03*
X066Y03141D02*
D03*
X09255Y04132D02*
D03*
X08123Y03798D02*
D03*
X0864Y06161D02*
D03*
Y06374D02*
D03*
X09362Y0389D02*
D03*
X09224Y03859D02*
D03*
X07288Y0387D02*
D03*
X07036Y03756D02*
D03*
X042Y03708D02*
D03*
X03643Y0421D02*
D03*
X03528Y04386D02*
D03*
X03559Y04076D02*
D03*
X02379Y03522D02*
D03*
X02598Y03476D02*
D03*
X03011Y04171D02*
D03*
X03044Y04092D02*
D03*
X03024Y03979D02*
D03*
X03195Y04195D02*
D03*
X02955Y03711D02*
D03*
X0284Y04079D02*
D03*
X03108Y04097D02*
D03*
X0335Y03587D02*
D03*
X02574Y04257D02*
D03*
X06106Y04367D02*
D03*
X05703Y06001D02*
D03*
X04951Y06457D02*
D03*
X04039Y06266D02*
D03*
X04483Y06673D02*
D03*
X09451Y06774D02*
D03*
X06333Y03653D02*
D03*
X039D02*
D03*
X09082Y04249D02*
D03*
X0895Y04748D02*
D03*
X08809Y04339D02*
D03*
X0506Y03835D02*
D03*
X08986Y04828D02*
D03*
X08921Y0437D02*
D03*
X0484Y04086D02*
D03*
X03255Y03687D02*
D03*
X03202Y04075D02*
D03*
X03075Y04431D02*
D03*
X02737Y0395D02*
D03*
X05002Y04086D02*
D03*
X04917Y04001D02*
D03*
X05711Y04043D02*
D03*
X06048Y04502D02*
D03*
X05864Y0526D02*
D03*
X07641Y03419D02*
D03*
X05757Y06152D02*
D03*
X05657Y06301D02*
D03*
X04262Y06332D02*
D03*
X04174Y06486D02*
D03*
X04155Y07168D02*
D03*
X06231Y05971D02*
D03*
X05992Y06041D02*
D03*
X06004Y05971D02*
D03*
X05242Y0402D02*
D03*
X052Y04261D02*
D03*
X03752Y06497D02*
D03*
X04041Y06099D02*
D03*
X0449Y06047D02*
D03*
X05381Y0595D02*
D03*
X05972Y06078D02*
D03*
X07313Y04286D02*
D03*
X06087Y04012D02*
D03*
X02612Y04081D02*
D03*
X0325Y04308D02*
D03*
X05421Y04039D02*
D03*
X07465Y04597D02*
D03*
X05472Y04039D02*
D03*
X06484Y05131D02*
D03*
X06551Y05202D02*
D03*
X06495Y03641D02*
D03*
X05502Y04195D02*
D03*
X056Y04039D02*
D03*
X06017Y06109D02*
D03*
X02983Y04321D02*
D03*
X03266Y03965D02*
D03*
X0807Y03415D02*
D03*
X08374Y03155D02*
D03*
X08561Y05397D02*
D03*
X08661D02*
D03*
X07224Y05198D02*
D03*
X08214Y05543D02*
D03*
X0289Y04226D02*
D03*
X07626Y06199D02*
D03*
X07681D02*
D03*
X08205Y05466D02*
D03*
X08631Y051D02*
D03*
X08625Y049D02*
D03*
X07925Y05657D02*
D03*
X08664Y0595D02*
D03*
X05143Y0514D02*
D03*
X02808Y03835D02*
D03*
X02745Y04202D02*
D03*
X0715Y03501D02*
D03*
Y03722D02*
D03*
X07874Y05172D02*
D03*
X08253Y05142D02*
D03*
X0359Y04261D02*
D03*
X09626Y04952D02*
D03*
X09633Y04004D02*
D03*
X034Y04327D02*
D03*
X065Y04696D02*
D03*
D98*
X0956Y0732D02*
D03*
Y0716D02*
D03*
M02*
