%FSTAX23Y23*%
%MOIN*%
G70*
G01*
G75*
G04 Layer_Physical_Order=1*
G04 Layer_Color=255*
%ADD10R,0.300X0.080*%
%ADD11C,0.010*%
%ADD12C,0.030*%
%ADD13C,0.018*%
%ADD14C,0.012*%
%ADD15C,0.015*%
%ADD16C,0.020*%
%ADD17C,0.040*%
%ADD18C,0.060*%
%ADD19C,0.160*%
%ADD20C,0.065*%
%ADD21C,0.075*%
%ADD22R,0.075X0.075*%
%ADD23C,0.055*%
%ADD24O,0.100X0.050*%
%ADD25C,0.066*%
%ADD26C,0.100*%
%ADD27R,0.100X0.100*%
%ADD28C,0.200*%
%ADD29O,0.050X0.100*%
%ADD30R,0.100X0.050*%
%ADD31O,0.050X0.100*%
%ADD32R,0.059X0.059*%
%ADD33C,0.059*%
%ADD34R,0.066X0.066*%
%ADD35R,0.050X0.100*%
%ADD36R,0.065X0.065*%
%ADD37R,0.075X0.075*%
%ADD38O,0.120X0.065*%
%ADD39R,0.120X0.065*%
%ADD40R,0.065X0.065*%
%ADD41C,0.130*%
%ADD42C,0.190*%
%ADD43C,0.180*%
%ADD44C,0.187*%
%ADD45R,0.047X0.047*%
%ADD46C,0.047*%
%ADD47C,0.120*%
%ADD48C,0.110*%
%ADD49C,0.063*%
%ADD50R,0.063X0.063*%
G04:AMPARAMS|DCode=51|XSize=450mil|YSize=400mil|CornerRadius=20mil|HoleSize=0mil|Usage=FLASHONLY|Rotation=270.000|XOffset=0mil|YOffset=0mil|HoleType=Round|Shape=RoundedRectangle|*
%AMROUNDEDRECTD51*
21,1,0.450,0.360,0,0,270.0*
21,1,0.410,0.400,0,0,270.0*
1,1,0.040,-0.180,-0.205*
1,1,0.040,-0.180,0.205*
1,1,0.040,0.180,0.205*
1,1,0.040,0.180,-0.205*
%
%ADD51ROUNDEDRECTD51*%
%ADD52R,0.090X0.090*%
%ADD53C,0.090*%
%ADD54C,0.032*%
%ADD55C,0.050*%
D10*
X1033Y038D02*
D03*
Y03956D02*
D03*
Y04112D02*
D03*
Y04268D02*
D03*
Y04424D02*
D03*
Y0458D02*
D03*
Y04736D02*
D03*
Y04892D02*
D03*
Y05048D02*
D03*
Y05204D02*
D03*
Y0536D02*
D03*
Y05516D02*
D03*
Y05672D02*
D03*
Y05828D02*
D03*
Y05984D02*
D03*
Y0614D02*
D03*
Y06296D02*
D03*
Y06452D02*
D03*
Y06608D02*
D03*
Y06764D02*
D03*
Y0692D02*
D03*
Y07076D02*
D03*
D11*
X02574Y04257D02*
Y04409D01*
X02585Y0442D01*
X0544Y053D02*
X0548Y0534D01*
X0554D01*
X05565Y05365D01*
X0541Y0522D02*
Y05768D01*
Y0522D02*
X0544Y0519D01*
Y0415D02*
Y0519D01*
X08739Y0576D02*
X08819Y0584D01*
X0869Y0574D02*
X08719D01*
X0867Y0576D02*
X0869Y0574D01*
X0455Y06789D02*
Y068D01*
X02585Y0442D02*
Y05469D01*
X02565Y04672D02*
Y0478D01*
X02545Y048D02*
X02565Y0478D01*
X02405Y04905D02*
X025Y05D01*
X09113Y0468D02*
X0918Y04747D01*
X09145Y04185D02*
X09189Y04229D01*
X082Y03345D02*
X0826D01*
X036Y053D02*
X03643Y05257D01*
X036Y053D02*
X037D01*
X034D02*
X036D01*
X1Y0599D02*
X10003Y05987D01*
X10006Y05984D01*
X04355Y059D02*
X0444D01*
X043D02*
X04355D01*
X0444D01*
X043D02*
X04355D01*
X04365Y0589D01*
X03345Y06D02*
X034D01*
X03265D02*
X03345D01*
X03335Y0599D02*
X03345Y06D01*
X0452Y0337D02*
X0454Y0335D01*
X0415Y0337D02*
X0452D01*
X0411D02*
X0415D01*
X0485D01*
X041Y0332D02*
X0415Y0337D01*
X041Y0332D02*
Y0336D01*
Y033D02*
Y0332D01*
X03075Y04431D02*
Y047D01*
X0305Y04755D02*
Y048D01*
X03125Y049D02*
Y0494D01*
X034Y03385D02*
Y03778D01*
Y033D02*
Y03385D01*
X03525Y0351D01*
X07025Y054D02*
Y0543D01*
X067Y04457D02*
Y04702D01*
Y039D02*
Y04457D01*
X06971Y05268D02*
Y053D01*
X06629Y03768D02*
X0692D01*
X066Y03797D02*
X06629Y03768D01*
X06706Y03691D01*
X065Y04696D02*
Y05053D01*
Y039D02*
Y04696D01*
X0894Y057D02*
Y05735D01*
X07393Y047D02*
X078D01*
X07333Y0476D02*
X07393Y047D01*
X07333Y0476D02*
Y0527D01*
X07353Y0529D01*
Y0567D01*
X0728Y05743D02*
X07353Y0567D01*
X0723Y05743D02*
X0728D01*
X07187Y057D02*
X0723Y05743D01*
X07187Y05388D02*
Y057D01*
X0765Y045D02*
X07734Y04416D01*
Y0411D02*
Y04416D01*
Y0411D02*
X078Y041D01*
X06649Y052D02*
X067D01*
X06629Y0518D02*
X06649Y052D01*
X06629Y04014D02*
Y0518D01*
X0656Y03945D02*
X06629Y04014D01*
X0656Y03695D02*
Y03945D01*
Y03695D02*
X066Y03655D01*
X07221D01*
X07296Y0373D01*
X0764D01*
X07145Y04089D02*
Y05295D01*
Y04089D02*
X07295Y03939D01*
X08358Y03327D02*
X0838D01*
X0832Y03365D02*
X08358Y03327D01*
X0828Y03365D02*
X0832D01*
X0826Y03345D02*
X0828Y03365D01*
X082Y033D02*
Y03345D01*
X081Y033D02*
Y03335D01*
X0802Y03415D02*
X081Y03335D01*
X0802Y03415D02*
Y03437D01*
X0814Y03557D01*
Y03625D01*
X0819Y03675D01*
Y03861D01*
X08283Y03954D01*
Y04415D01*
X08308Y0444D01*
X08425D01*
X08505Y0452D01*
Y04784D01*
X08449Y0484D02*
X08505Y04784D01*
X08353Y0484D02*
X08449D01*
X08324Y04869D02*
X08353Y0484D01*
X06769Y04942D02*
Y0549D01*
X067Y055D02*
X06769Y0549D01*
X067Y057D02*
X0676D01*
X069Y0584D01*
X07088D01*
X07156Y05772D01*
Y05349D02*
Y05772D01*
Y05349D02*
X07185Y0532D01*
Y04442D02*
Y0532D01*
X07165Y04423D02*
X07185Y04442D01*
X07165Y0413D02*
Y04423D01*
Y0413D02*
X07351Y03944D01*
X0826Y03885D02*
X08262Y03883D01*
Y03748D02*
Y03883D01*
X0821Y03696D02*
X08262Y03748D01*
X0821Y03648D02*
Y03696D01*
X082Y036D02*
X0821Y03648D01*
X079Y036D02*
Y03967D01*
X08101Y04168D01*
Y05141D01*
X0822Y0526D01*
X07382Y05263D02*
Y05803D01*
X07342Y05843D02*
X07382Y05803D01*
X07176Y05843D02*
X07342D01*
X07159Y0586D02*
X07176Y05843D01*
X06891Y0586D02*
X07159D01*
X06831Y058D02*
X06891Y0586D01*
X067Y058D02*
X06831D01*
X07753Y03388D02*
X07826Y03461D01*
X07863D01*
X0794Y03538D01*
Y03775D01*
X08126Y03961D01*
Y04331D01*
X08355Y0456D01*
X08445D01*
X08485Y046D01*
Y04774D01*
X08459Y048D02*
X08485Y04774D01*
X084Y048D02*
X08459D01*
X092Y051D02*
X09248Y05148D01*
Y0532D01*
X0922Y05347D02*
X09248Y0532D01*
X09175Y05347D02*
X0922D01*
X09142Y05315D02*
X09175Y05347D01*
X08708Y05776D02*
Y0606D01*
X08644Y06124D02*
X08708Y0606D01*
X08569Y06124D02*
X08644D01*
X08569Y05569D02*
X08704D01*
X08736Y05537D01*
Y0537D02*
Y05537D01*
X0986Y0678D02*
X1Y0692D01*
X0986Y06568D02*
Y0678D01*
X0984Y06548D02*
X0986Y06568D01*
X09695Y06548D02*
X0984D01*
X09658Y06511D02*
X09695Y06548D01*
X05114Y03752D02*
X05423Y03443D01*
X05114Y03752D02*
Y03905D01*
X05061Y03958D02*
X05114Y03905D01*
X04877Y03958D02*
X05061D01*
X05051Y04117D02*
Y04171D01*
X05136Y04256D01*
Y0438D01*
X05089Y04427D02*
X05136Y0438D01*
X0473Y04427D02*
X05089D01*
X0443Y04727D02*
X0473Y04427D01*
X0443Y04727D02*
Y05337D01*
X068Y033D02*
Y0347D01*
X05049Y03538D02*
X05084Y03503D01*
X0404Y03538D02*
X05049D01*
X04Y03578D02*
X0404Y03538D01*
X04Y03578D02*
Y039D01*
X068Y033D02*
Y0347D01*
X08261Y03665D02*
X08353Y03757D01*
X08731D01*
X08763Y03789D01*
Y04457D01*
X08646Y04574D02*
X08763Y04457D01*
X08646Y04574D02*
Y04753D01*
X0866Y04767D01*
X08685D01*
X08851Y04933D01*
Y05488D01*
X09025Y05662D01*
Y05825D01*
X092Y06D01*
X0914Y0606D02*
X092Y06D01*
X0914Y0606D02*
Y0613D01*
X0916Y0615D01*
X0922D01*
X09248Y06178D01*
Y06236D01*
X0926Y06248D01*
X0932D01*
X09444Y06372D01*
Y06587D01*
X09465Y06608D01*
X09709Y0644D02*
Y0646D01*
X09772Y06523D01*
X09915D01*
X1Y06608D01*
X037Y053D02*
X0395Y0505D01*
X04051D01*
X04765Y04336D01*
X05105D01*
X08735Y04652D02*
X0905Y04967D01*
Y0575D01*
X092Y059D01*
X09475Y06362D02*
Y06507D01*
Y06362D02*
X09481Y06356D01*
X0984D01*
X0986Y06336D01*
Y06092D02*
Y06336D01*
X0984Y06072D02*
X0986Y06092D01*
X09539Y06072D02*
X0984D01*
X02385Y054D02*
X025D01*
X02033Y05752D02*
X02385Y054D01*
X02033Y05752D02*
Y0656D01*
X02073Y066D01*
X0221D01*
X02473Y06863D01*
X09279Y06591D02*
Y06708D01*
Y06591D02*
X09327Y06543D01*
X092Y058D02*
X09252Y05852D01*
Y06122D01*
X0928Y0615D01*
X09654D01*
X098Y06296D01*
X025Y056D02*
X02575D01*
X02615Y0556D01*
Y0436D02*
Y0556D01*
X02214Y056D02*
X025D01*
X02053Y05761D02*
X02214Y056D01*
X02053Y05761D02*
Y0647D01*
X0208Y06497D01*
X02169D01*
X02504Y06832D01*
X0871Y06394D02*
Y06648D01*
X09111Y05611D02*
X092Y057D01*
X09111Y04745D02*
Y05611D01*
X09072Y04706D02*
X09111Y04745D01*
X09072Y04526D02*
Y04706D01*
X0905Y04504D02*
X09072Y04526D01*
X0905Y04328D02*
Y04504D01*
Y04328D02*
X09125Y04253D01*
X033Y03448D02*
Y039D01*
X08088Y0312D02*
X08443D01*
X08462Y03139D01*
X08689D01*
X0883Y0328D01*
X0915D01*
X09408Y03537D01*
Y05593D01*
X093Y057D02*
X09408Y05593D01*
X092Y056D02*
X09252Y05548D01*
Y05381D02*
Y05548D01*
Y05381D02*
X09285Y05347D01*
X0932D01*
X09347Y0532D01*
Y0508D02*
Y0532D01*
X0932Y05052D02*
X09347Y0508D01*
X0928Y05052D02*
X0932D01*
X09252Y05024D02*
X0928Y05052D01*
X09252Y0478D02*
Y05024D01*
X0922Y04747D02*
X09252Y0478D01*
X0918Y04747D02*
X0922D01*
X09113Y04502D02*
Y0468D01*
X0909Y0448D02*
X09113Y04502D01*
X0909Y04374D02*
Y0448D01*
Y04374D02*
X09189Y04276D01*
Y04229D02*
Y04276D01*
X09039Y04185D02*
X09145D01*
X08992Y04138D02*
X09039Y04185D01*
X05491Y05098D02*
X05788Y04801D01*
X05954D01*
X06016Y04739D01*
Y0436D02*
Y04739D01*
Y0436D02*
X06056Y0432D01*
X06104D01*
X06144Y0436D01*
Y05162D01*
X06322Y0534D01*
X0644D01*
X06485Y05385D01*
Y05778D01*
X0665Y05943D01*
X06758D01*
X0678Y05965D01*
X06842D01*
X06847Y0596D01*
X07068D01*
X07085Y05943D01*
X0736D01*
X07413Y0589D01*
Y05167D02*
Y0589D01*
Y05167D02*
X0772Y0486D01*
X07858D01*
X07918Y0492D01*
Y05572D01*
X08086Y0574D01*
X08645D01*
X087Y05685D01*
X08774D01*
X05474Y05254D02*
X05494D01*
X057Y0546D01*
X08569Y0545D02*
X08631Y05512D01*
X0444Y059D02*
X04498Y05842D01*
Y04757D02*
Y05842D01*
Y04757D02*
X04627Y04628D01*
X05165D01*
X04915Y03887D02*
X05076D01*
X05091Y03872D01*
Y03815D02*
Y03872D01*
X0508Y03804D02*
X05091Y03815D01*
X046Y03804D02*
X0508D01*
X0456Y03844D02*
X046Y03804D01*
X0456Y03844D02*
Y03925D01*
X0452Y03965D02*
X0456Y03925D01*
X0416Y03965D02*
X0452D01*
X0414Y03945D02*
X0416Y03965D01*
X0414Y03855D02*
Y03945D01*
X0412Y03835D02*
X0414Y03855D01*
X0408Y03835D02*
X0412D01*
X0406Y03855D02*
X0408Y03835D01*
X0406Y03855D02*
Y03976D01*
X0404Y03996D02*
X0406Y03976D01*
X0325Y03996D02*
X0404D01*
X03235Y03981D02*
X0325Y03996D01*
X03235Y03953D02*
Y03981D01*
Y03953D02*
X0324Y03948D01*
Y03824D02*
Y03948D01*
X03176Y0376D02*
X0324Y03824D01*
X02944Y0376D02*
X03176D01*
X02924Y0374D02*
X02944Y0376D01*
X02924Y03537D02*
Y0374D01*
Y03537D02*
X031Y03361D01*
Y033D02*
Y03361D01*
X0896Y04954D02*
Y05452D01*
X0869Y04684D02*
X0896Y04954D01*
X0869Y04643D02*
Y04684D01*
X04627Y04628D02*
X05165D01*
X04498Y04757D02*
X04627Y04628D01*
X04498Y04757D02*
Y05842D01*
X0444Y059D02*
X04498Y05842D01*
X08213Y03398D02*
X08247Y03432D01*
X08485D01*
X08747Y03694D01*
X0878D01*
X08941Y03855D01*
Y04143D01*
X09007Y04209D01*
X0914D01*
X09169Y04238D01*
Y04266D01*
X09071Y04365D02*
X09169Y04266D01*
X09071Y04365D02*
Y04495D01*
X09092Y04517D01*
Y04693D01*
X09132Y04733D01*
Y05233D01*
X092Y053D01*
X03935Y05335D02*
X04Y054D01*
X03935Y05265D02*
Y05335D01*
Y05265D02*
X04Y052D01*
X05494D02*
X05862Y04832D01*
X08679Y04736D02*
X08696D01*
X08883Y04923D01*
Y05363D01*
X08921Y05402D01*
X041Y0336D02*
X0411Y0337D01*
X0454Y03106D02*
Y0335D01*
X04506Y03072D02*
X0454Y03106D01*
X02577Y03072D02*
X04506D01*
X02425Y03224D02*
X02577Y03072D01*
X02425Y03224D02*
Y03951D01*
X02405Y03971D02*
X02425Y03951D01*
X02405Y03971D02*
Y04905D01*
X09017Y04708D02*
Y04744D01*
X08965Y04656D02*
X09017Y04708D01*
X08965Y04317D02*
Y04656D01*
X08783Y04134D02*
X08965Y04317D01*
X08783Y0378D02*
Y04134D01*
X0874Y03737D02*
X08783Y0378D01*
X08542Y03737D02*
X0874D01*
X08317Y03512D02*
X08542Y03737D01*
X08175Y03512D02*
X08317D01*
X08119Y03456D02*
X08175Y03512D01*
X09484Y04852D02*
X09524Y04892D01*
X098D01*
X09509Y04736D02*
X098D01*
X09493Y04752D02*
X09509Y04736D01*
X08794Y0456D02*
X08883Y04649D01*
X0576Y0364D02*
Y0405D01*
Y0364D02*
X058Y036D01*
X0606D01*
X061Y0356D01*
Y033D02*
Y0356D01*
X031Y049D02*
X03125D01*
Y0494D02*
X03165Y0498D01*
Y0513D01*
X03155Y0514D02*
X03165Y0513D01*
X0301Y0514D02*
X03155D01*
X0295Y0508D02*
X0301Y0514D01*
X0295Y04235D02*
Y0508D01*
X0291Y04195D02*
X0295Y04235D01*
X0286Y04195D02*
X0291D01*
X08239Y03481D02*
X08452D01*
X08688Y03717D01*
X08771D01*
X08803Y03749D01*
Y04076D01*
X0899Y04264D01*
Y04633D01*
X0901Y04653D01*
X09599Y04379D02*
X098Y0458D01*
X09599Y04256D02*
Y04379D01*
X09122Y04461D02*
X09132Y04471D01*
Y04633D01*
X092Y047D01*
X059Y033D02*
Y03372D01*
X05692Y0358D02*
X059Y03372D01*
X05692Y0358D02*
Y03721D01*
X05653Y0376D02*
X05692Y03721D01*
X05653Y0376D02*
Y0406D01*
X05675Y04082D01*
X05892D01*
X09232Y04199D02*
X09252Y04219D01*
Y04253D01*
X09153Y04352D02*
X09252Y04253D01*
X09153Y04352D02*
Y0443D01*
X09153Y0443D01*
Y04492D01*
X09153Y04492D02*
X09153Y04492D01*
X09153Y04492D02*
Y0462D01*
X0918Y04648D01*
X0922D01*
X0925Y04677D01*
Y04734D01*
X09279Y04763D01*
Y04779D01*
X093Y048D01*
X07991Y03487D02*
X0806Y03556D01*
Y03647D01*
X08164Y03751D01*
Y04056D01*
X08231Y04123D01*
X0901Y04269D02*
X09035Y04244D01*
X0901Y04269D02*
Y04589D01*
X09021Y046D01*
X093D02*
X09348Y04552D01*
Y04151D02*
Y04552D01*
X09296Y04099D02*
X09348Y04151D01*
X09164Y04099D02*
X09296D01*
X0912Y04143D02*
X09164Y04099D01*
X09082Y04143D02*
X0912D01*
X08996Y04057D02*
X09082Y04143D01*
X08996Y036D02*
Y04057D01*
X08956Y0356D02*
X08996Y036D01*
X08687Y0356D02*
X08956D01*
X08362Y03235D02*
X08687Y0356D01*
X07975Y03235D02*
X08362D01*
X07951Y03259D02*
X07975Y03235D01*
X05383Y03397D02*
X05527D01*
X0518Y036D02*
X05383Y03397D01*
X0454Y036D02*
X0518D01*
X045Y0364D02*
X0454Y036D01*
X045Y0364D02*
Y039D01*
X0465Y0645D02*
Y0648D01*
X04684Y06514D01*
X04732D01*
X04746Y065D01*
Y0644D02*
Y065D01*
X04684Y06378D02*
X04746Y0644D01*
X04591Y06378D02*
X04684D01*
X04536Y06433D02*
X04591Y06378D01*
X04536Y06433D02*
Y06687D01*
X04509Y06714D02*
X04536Y06687D01*
X04476Y06714D02*
X04509D01*
X04268Y06507D02*
X04476Y06714D01*
X0422Y06507D02*
X04268D01*
X04207Y0652D02*
X0422Y06507D01*
X04207Y0652D02*
Y06902D01*
X09036Y03836D02*
X091Y039D01*
X09036Y03424D02*
Y03836D01*
X09Y03388D02*
X09036Y03424D01*
X09Y0335D02*
Y03388D01*
X09053Y04053D02*
X091Y041D01*
X09053Y03947D02*
Y04053D01*
Y03947D02*
X091Y039D01*
Y04D02*
X09147Y03953D01*
Y03847D02*
Y03953D01*
X091Y038D02*
X09147Y03847D01*
X06348Y056D02*
X064D01*
X06328Y0562D02*
X06348Y056D01*
X06328Y0562D02*
Y05921D01*
X0636Y05953D01*
X06458D01*
X0647Y05965D01*
X06591D01*
X06597Y05959D01*
X04209Y06981D02*
Y0757D01*
Y06981D02*
X0435Y0684D01*
Y068D02*
Y0684D01*
X0447Y07126D02*
X04498Y07098D01*
Y0689D02*
Y07098D01*
X04482Y06874D02*
X04498Y0689D01*
X04482Y0677D02*
Y06874D01*
Y0677D02*
X04564Y06688D01*
Y0644D02*
Y06688D01*
Y0644D02*
X04606Y06398D01*
X04665D01*
X04707Y0644D01*
Y06475D01*
X06515Y05837D02*
Y05934D01*
X06478Y058D02*
X06515Y05837D01*
X064Y058D02*
X06478D01*
X064Y057D02*
X0646D01*
X06465Y05695D01*
Y0558D02*
Y05695D01*
X06445Y0556D02*
X06465Y0558D01*
X06324Y0556D02*
X06445D01*
X06284Y056D02*
X06324Y0556D01*
X06284Y056D02*
Y05968D01*
X06146Y06106D02*
X06284Y05968D01*
X04935Y06393D02*
X05828D01*
X04793Y06535D02*
X04935Y06393D01*
X04793Y06535D02*
Y0658D01*
X04619Y06753D02*
X04793Y0658D01*
X04619Y06753D02*
Y07409D01*
X04266Y07762D02*
X04619Y07409D01*
X04031Y07762D02*
X04266D01*
X03989Y0772D02*
X04031Y07762D01*
X03989Y07652D02*
Y0772D01*
X03938Y07601D02*
X03989Y07652D01*
X03938Y07539D02*
Y07601D01*
Y07539D02*
X0396Y07517D01*
X04047D01*
X041Y0757D01*
X03035Y05335D02*
X031Y054D01*
X03035Y05265D02*
Y05335D01*
Y05265D02*
X031Y052D01*
X03852Y04187D02*
X04035Y0437D01*
X0443D01*
X047Y041D01*
X08871Y04699D02*
X0889D01*
X08797Y04625D02*
X08871Y04699D01*
X05916Y04777D02*
X05933Y0476D01*
X05491Y04777D02*
X05916D01*
X07Y057D02*
X0706D01*
X07085Y05675D01*
Y05447D02*
Y05675D01*
X07065Y05427D02*
X07085Y05447D01*
X07065Y0506D02*
Y05427D01*
X07Y04995D02*
X07065Y0506D01*
X07Y039D02*
Y04995D01*
X068Y03845D02*
Y039D01*
Y03845D02*
X0681Y03835D01*
X0692D01*
X0694Y03855D01*
Y05015D01*
X06915Y0504D02*
X0694Y05015D01*
X06915Y0504D02*
Y0547D01*
X06945Y055D01*
X07D01*
X067Y039D02*
Y04457D01*
X06971Y053D02*
X07D01*
X06935Y05232D02*
X06971Y05268D01*
X06935Y0506D02*
Y05232D01*
Y0506D02*
X0696Y05035D01*
Y03808D02*
Y05035D01*
X0692Y03768D02*
X0696Y03808D01*
X066Y03797D02*
X06629Y03768D01*
X066Y03797D02*
Y039D01*
Y03797D02*
Y039D01*
X06706Y03691D02*
X07228D01*
X07336Y03799D01*
X07604D01*
X07987Y04182D01*
Y046D01*
X06811Y05906D02*
Y05934D01*
X06765Y0586D02*
X06811Y05906D01*
X06642Y0586D02*
X06765D01*
X06509Y05727D02*
X06642Y0586D01*
X06509Y05322D02*
Y05727D01*
X06317Y0513D02*
X06509Y05322D01*
X06317Y04214D02*
Y0513D01*
Y04214D02*
X06337Y04194D01*
X063Y039D02*
Y04052D01*
X062Y039D02*
Y04017D01*
X06392Y04188D02*
Y04878D01*
X06337Y04933D02*
X06392Y04878D01*
X06337Y04933D02*
Y05096D01*
X0653Y05289D01*
Y05715D01*
X06655Y0584D01*
X06778D01*
X06878Y0594D01*
X07048D01*
X07088Y059D01*
X0725D01*
X068Y05667D02*
X06909Y05776D01*
X068Y04905D02*
Y05667D01*
X06658Y04763D02*
X068Y04905D01*
X06658Y03853D02*
Y04763D01*
Y03853D02*
X06687Y03824D01*
X06704D01*
X0725Y056D02*
X07313Y05537D01*
Y0535D02*
Y05537D01*
X07293Y0533D02*
X07313Y0535D01*
X07293Y0448D02*
Y0533D01*
X07263Y0445D02*
X07293Y0448D01*
X07237Y0445D02*
X07263D01*
X07197Y0441D02*
X07237Y0445D01*
X07197Y04326D02*
Y0441D01*
X05955Y04015D02*
X05969D01*
X059Y0396D02*
X05955Y04015D01*
X059Y039D02*
Y0396D01*
X058Y039D02*
Y04029D01*
X07261Y04628D02*
Y05222D01*
X07207Y05276D02*
X07261Y05222D01*
X07207Y05276D02*
Y0532D01*
X07237Y0535D01*
X07266D01*
X07293Y05377D01*
Y05457D01*
X0725Y055D02*
X07293Y05457D01*
X09449Y05009D02*
X098Y0536D01*
X09449Y03163D02*
Y05009D01*
X066Y033D02*
Y03385D01*
X06571Y03414D02*
X066Y03385D01*
X06317Y03414D02*
X06571D01*
X06109Y03622D02*
X06317Y03414D01*
X0588Y03622D02*
X06109D01*
X0584Y03662D02*
X0588Y03622D01*
X0584Y03662D02*
Y04028D01*
X05861Y04049D01*
X0555Y046D02*
X05925Y04225D01*
X066Y03141D02*
Y033D01*
X093Y04177D02*
Y044D01*
X09255Y04132D02*
X093Y04177D01*
X08Y03798D02*
X08123D01*
X0796Y03758D02*
X08Y03798D01*
X0796Y03528D02*
Y03758D01*
X078Y03368D02*
X0796Y03528D01*
X078Y033D02*
Y03368D01*
X085Y061D02*
Y0615D01*
X084Y06D02*
X085Y061D01*
X084Y058D02*
X085D01*
X0854Y0576D01*
X0867D01*
X08719Y0574D02*
X08739Y0576D01*
Y06062D01*
X0864Y06161D02*
X08739Y06062D01*
X0864Y06374D02*
Y06659D01*
X0868Y06699D01*
X09031D01*
X092Y0653D01*
X03643Y0421D02*
Y05257D01*
X034Y053D02*
X036D01*
X03528Y04386D02*
Y05052D01*
X0348Y051D02*
X03528Y05052D01*
X034Y051D02*
X0348D01*
X03559Y04076D02*
Y0516D01*
X03519Y052D02*
X03559Y0516D01*
X034Y052D02*
X03519D01*
X025Y049D02*
X02555D01*
X02565Y0491D01*
Y0502D01*
X02545Y0504D02*
X02565Y0502D01*
X02419Y0504D02*
X02545D01*
X02379Y05D02*
X02419Y0504D01*
X02379Y03522D02*
Y05D01*
X025Y048D02*
X02545D01*
X02452Y04559D02*
X02565Y04672D01*
X02452Y04109D02*
Y04559D01*
X02425Y04082D02*
X02452Y04109D01*
X02425Y04018D02*
Y04082D01*
Y04018D02*
X02598Y03845D01*
Y03476D02*
Y03845D01*
X03011Y04171D02*
X03165Y04325D01*
Y0492D01*
X03185Y0494D01*
Y05266D01*
X03151Y053D02*
X03185Y05266D01*
X031Y053D02*
X03151D01*
X031Y057D02*
X03171D01*
X03205Y05666D01*
Y0492D02*
Y05666D01*
X03191Y04906D02*
X03205Y0492D01*
X03191Y04239D02*
Y04906D01*
X03044Y04092D02*
X03191Y04239D01*
X03024Y03979D02*
X0318D01*
X032Y03959D01*
Y039D02*
Y03959D01*
X03225Y0596D02*
X03265Y06D01*
X03225Y04906D02*
Y0596D01*
X03219Y049D02*
X03225Y04906D01*
X03219Y04219D02*
Y049D01*
X03195Y04195D02*
X03219Y04219D01*
X02955Y03711D02*
X032Y03466D01*
Y033D02*
Y03466D01*
X0284Y04079D02*
X03014Y04253D01*
Y0498D01*
X03034Y05D01*
X031D01*
X0305Y048D02*
X031D01*
X03034Y04739D02*
X0305Y04755D01*
X03034Y0424D02*
Y04739D01*
X02969Y04175D02*
X03034Y0424D01*
X02969Y0412D02*
Y04175D01*
Y0412D02*
X03028Y04061D01*
X03072D01*
X03108Y04097D01*
X0335Y03264D02*
Y03587D01*
Y03264D02*
X03379Y03235D01*
X0368D01*
X037Y03255D01*
Y033D01*
X025Y055D02*
X02554D01*
X02585Y05469D01*
X062Y033D02*
Y03355D01*
X0621Y03365D01*
X0652D01*
X06541Y03344D01*
Y03115D02*
Y03344D01*
Y03115D02*
X06599Y03057D01*
X0847D01*
X08512Y03099D01*
X09432D01*
X09568Y03235D01*
Y04504D01*
X098Y04736D01*
X04039Y06266D02*
X04138Y06365D01*
X04255D01*
X04483Y06593D01*
Y06673D01*
X09451Y06774D02*
X09506Y06719D01*
Y06416D02*
Y06719D01*
Y06416D02*
X09542Y0638D01*
X09846D01*
X0993Y06296D01*
Y0606D02*
Y06296D01*
Y0606D02*
X1Y0599D01*
X067Y033D02*
Y0352D01*
X0665Y0357D02*
X067Y0352D01*
X06416Y0357D02*
X0665D01*
X06333Y03653D02*
X06416Y0357D01*
X039Y03653D02*
Y039D01*
X093Y06D02*
X09427Y05872D01*
Y03281D02*
Y05872D01*
X09266Y03119D02*
X09427Y03281D01*
X08487Y03119D02*
X09266D01*
X08445Y03077D02*
X08487Y03119D01*
X06858Y03077D02*
X08445D01*
X067Y03235D02*
X06858Y03077D01*
X067Y03235D02*
Y033D01*
X09082Y05682D02*
X092Y058D01*
X09082Y04751D02*
Y05682D01*
X09052Y04721D02*
X09082Y04751D01*
X09052Y04542D02*
Y04721D01*
X0903Y0452D02*
X09052Y04542D01*
X0903Y04301D02*
Y0452D01*
Y04301D02*
X09082Y04249D01*
X08925Y04723D02*
X0895Y04748D01*
X08925Y04456D02*
Y04723D01*
X08809Y04339D02*
X08925Y04456D01*
X0471Y03835D02*
X0506D01*
X047Y03845D02*
X0471Y03835D01*
X047Y03845D02*
Y039D01*
X08986Y0474D02*
Y04828D01*
X08946Y047D02*
X08986Y0474D01*
X08946Y04394D02*
Y047D01*
X08921Y0437D02*
X08946Y04394D01*
X04814Y04086D02*
X0484D01*
X047Y042D02*
X04814Y04086D01*
X033Y033D02*
Y03372D01*
X03255Y03417D02*
X033Y03372D01*
X03255Y03417D02*
Y03687D01*
X03202Y04075D02*
X03295Y04168D01*
Y0572D01*
X03317Y05742D01*
X0364D01*
X037Y05682D01*
Y0544D02*
Y05682D01*
Y0544D02*
X0374Y054D01*
X04D01*
X03075Y047D02*
X031D01*
X02737Y03637D02*
Y0395D01*
Y03637D02*
X0296Y03414D01*
Y03255D02*
Y03414D01*
Y03255D02*
X03Y03215D01*
X0377D01*
X038Y03245D01*
Y033D01*
X0445Y0676D02*
Y0705D01*
X04407Y06717D02*
X0445Y0676D01*
X04317Y06717D02*
X04407D01*
X0425Y0665D02*
X04317Y06717D01*
X047Y043D02*
X04788D01*
X05002Y04086D01*
X04741Y04001D02*
X04917D01*
X047Y0396D02*
X04741Y04001D01*
X047Y039D02*
Y0396D01*
X057Y039D02*
Y04032D01*
X05711Y04043D01*
X06048Y04502D02*
Y05076D01*
X05864Y0526D02*
X06048Y05076D01*
X0764Y0342D02*
X07641Y03419D01*
X0764Y0342D02*
Y03657D01*
X0762Y03677D02*
X0764Y03657D01*
X07391Y03677D02*
X0762D01*
X07345Y03631D02*
X07391Y03677D01*
X06574Y03631D02*
X07345D01*
X0654Y03665D02*
X06574Y03631D01*
X0654Y03665D02*
Y04503D01*
X06595Y04558D01*
Y0536D01*
X06635Y054D01*
X067D01*
X05914D02*
X061D01*
X05874Y0544D02*
X05914Y054D01*
X05874Y0544D02*
Y0582D01*
X05854Y0584D02*
X05874Y0582D01*
X05712Y0584D02*
X05854D01*
X05672Y0588D02*
X05712Y0584D01*
X05672Y0588D02*
Y06067D01*
X05757Y06152D01*
X04293Y06301D02*
X05657D01*
X04262Y06332D02*
X04293Y06301D01*
X04174Y06486D02*
Y07149D01*
X04155Y07168D02*
X04174Y07149D01*
X07865Y0656D02*
X081Y06325D01*
X05895Y0656D02*
X07865D01*
X05855Y0652D02*
X05895Y0656D01*
X05855Y06409D02*
Y0652D01*
Y06409D02*
X05859Y06405D01*
Y0638D02*
Y06405D01*
X05839Y0636D02*
X05859Y0638D01*
X04923Y0636D02*
X05839D01*
X04676Y06607D02*
X04923Y0636D01*
X0462Y06607D02*
X04676D01*
X04607Y0662D02*
X0462Y06607D01*
X04607Y0662D02*
Y06673D01*
X04502Y06778D02*
X04607Y06673D01*
X04502Y06778D02*
Y06826D01*
X0455Y06874D01*
Y0705D01*
Y06789D02*
X0465Y06689D01*
Y0665D02*
Y06689D01*
X06231Y0556D02*
Y05971D01*
X06171Y055D02*
X06231Y0556D01*
X061Y055D02*
X06171D01*
X06032Y058D02*
X061D01*
X05973Y05859D02*
X06032Y058D01*
X05973Y05859D02*
Y06022D01*
X05992Y06041D01*
X06004Y0592D02*
Y05971D01*
Y0592D02*
X06024Y059D01*
X061D01*
X084Y056D02*
X08453D01*
X08515Y05538D01*
X08595D01*
X08601Y05544D01*
X08673D01*
X08703Y05515D01*
Y04871D02*
Y05515D01*
X08623Y04791D02*
X08703Y04871D01*
X08623Y04553D02*
Y04791D01*
Y04553D02*
X08743Y04433D01*
Y04077D02*
Y04433D01*
X087Y04034D02*
X08743Y04077D01*
X087Y04D02*
Y04034D01*
X084Y055D02*
X0848D01*
X08521Y05459D01*
Y05357D02*
Y05459D01*
Y05357D02*
X08682Y05195D01*
Y04891D02*
Y05195D01*
X08603Y04811D02*
X08682Y04891D01*
X08603Y04197D02*
Y04811D01*
Y04197D02*
X087Y041D01*
X053Y033D02*
Y03356D01*
X0531Y03366D01*
X0554D01*
X0556Y03386D01*
Y03518D01*
X05508Y0357D02*
X0556Y03518D01*
X05326Y0357D02*
X05508D01*
X05242Y03654D02*
X05326Y0357D01*
X05242Y03654D02*
Y0402D01*
X052Y04261D02*
Y04706D01*
X05153Y04753D02*
X052Y04706D01*
X05062Y04753D02*
X05153D01*
X04835Y0498D02*
X05062Y04753D01*
X04835Y0498D02*
Y0559D01*
X04845Y056D01*
X049D01*
X04045Y07682D02*
X04104Y07623D01*
X0413D01*
X04153Y076D01*
Y07322D02*
Y076D01*
X03984Y07153D02*
X04153Y07322D01*
X03984Y06568D02*
Y07153D01*
X03913Y06497D02*
X03984Y06568D01*
X03752Y06497D02*
X03913D01*
X04041Y06099D02*
X04438D01*
X0449Y06047D01*
X05381Y0595D02*
X0556D01*
X05734Y05776D01*
Y0536D02*
Y05776D01*
Y0536D02*
X05794Y053D01*
X061D01*
X05972Y06078D02*
X06D01*
X06035Y06043D01*
Y0596D02*
Y06043D01*
Y0596D02*
X06125D01*
X06165Y0592D01*
Y0571D02*
Y0592D01*
X06155Y057D02*
X06165Y0571D01*
X061Y057D02*
X06155D01*
X0725D02*
X07333Y05617D01*
Y0533D02*
Y05617D01*
X07313Y0531D02*
X07333Y0533D01*
X07313Y04286D02*
Y0531D01*
X0604Y04012D02*
X06087D01*
X06Y03972D02*
X0604Y04012D01*
X06Y039D02*
Y03972D01*
X046Y053D02*
X0476D01*
X04815Y05355D01*
Y0598D01*
X04835Y06D01*
X049D01*
X0994Y04988D02*
X1Y05048D01*
X0994Y03456D02*
Y04988D01*
X09521Y03037D02*
X0994Y03456D01*
X06543Y03037D02*
X09521D01*
X065Y0308D02*
X06543Y03037D01*
X065Y0308D02*
Y033D01*
X025Y059D02*
X02594D01*
X0268Y05814D01*
Y04149D02*
Y05814D01*
X02612Y04081D02*
X0268Y04149D01*
X0329Y058D02*
X034D01*
X0325Y0576D02*
X0329Y058D01*
X0325Y04308D02*
Y0576D01*
X049Y055D02*
X05D01*
X0505Y0555D01*
Y0584D01*
X0511Y059D01*
X052D01*
X055Y039D02*
Y0396D01*
X05421Y04039D02*
X055Y0396D01*
X07465Y04597D02*
X07508Y0464D01*
X07825D01*
X07865Y0468D01*
Y0479D01*
X07855Y048D02*
X07865Y0479D01*
X078Y048D02*
X07855D01*
X05472Y04039D02*
X0554Y03971D01*
Y03837D02*
Y03971D01*
X0552Y03817D02*
X0554Y03837D01*
X0542Y03817D02*
X0552D01*
X054Y03837D02*
X0542Y03817D01*
X054Y03837D02*
Y039D01*
X06464Y05131D02*
X06484D01*
X064Y05067D02*
X06464Y05131D01*
X064Y0503D02*
Y05067D01*
X065Y05053D02*
X06551Y05104D01*
Y05202D01*
X06454Y03682D02*
X06495Y03641D01*
X06454Y03682D02*
Y04896D01*
X06357Y04993D02*
X06454Y04896D01*
X06357Y04993D02*
Y05055D01*
X0655Y05248D01*
Y0556D01*
X0659Y056D01*
X067D01*
X04Y059D02*
X04109D01*
X0415Y05941D01*
X04667D01*
X04773Y06047D01*
X05041D01*
X05138Y0595D01*
X0524D01*
X05265Y05925D01*
Y0571D02*
Y05925D01*
X05255Y057D02*
X05265Y0571D01*
X052Y057D02*
X05255D01*
X055D02*
X05555D01*
X05565Y0569D01*
Y05365D02*
Y0569D01*
X0544Y05226D02*
Y053D01*
Y05226D02*
X0546Y05206D01*
Y04237D02*
Y05206D01*
Y04237D02*
X05502Y04195D01*
X056Y039D02*
Y04039D01*
X05953Y06109D02*
X06017D01*
X05934Y0609D02*
X05953Y06109D01*
X05934Y0564D02*
Y0609D01*
Y0564D02*
X05974Y056D01*
X061D01*
X04Y058D02*
X0411D01*
X0415Y0576D01*
X04345D01*
X04365Y0578D01*
Y0589D01*
X043Y059D02*
X04355D01*
X0304Y051D02*
X031D01*
X02983Y05043D02*
X0304Y051D01*
X02983Y04321D02*
Y05043D01*
X03266Y03965D02*
X0332D01*
X0334Y03945D01*
Y03838D02*
Y03945D01*
Y03838D02*
X034Y03778D01*
X093Y05D02*
X09347Y04952D01*
Y04653D02*
Y04952D01*
X09342Y04648D02*
X09347Y04653D01*
X0928Y04648D02*
X09342D01*
X09252Y0462D02*
X0928Y04648D01*
X09252Y04373D02*
Y0462D01*
Y04373D02*
X09273Y04352D01*
Y04196D02*
Y04352D01*
X0924Y04163D02*
X09273Y04196D01*
X09066Y04163D02*
X0924D01*
X08962Y04059D02*
X09066Y04163D01*
X08962Y03814D02*
Y04059D01*
X0882Y03672D02*
X08962Y03814D01*
X08754Y03672D02*
X0882D01*
X08467Y03385D02*
X08754Y03672D01*
X08259Y03385D02*
X08467D01*
X0824Y03366D02*
X08259Y03385D01*
X08119Y03366D02*
X0824D01*
X0807Y03415D02*
X08119Y03366D01*
X045Y03155D02*
Y033D01*
X0444Y03095D02*
X045Y03155D01*
X0268Y03095D02*
X0444D01*
X0262Y03155D02*
X0268Y03095D01*
X0262Y03155D02*
Y03411D01*
X02581Y0345D02*
X0262Y03411D01*
X025Y0345D02*
X02581D01*
X08374Y03155D02*
X08404D01*
X08569Y0332D01*
X0876D01*
X08778Y03302D01*
X0902D01*
X09048Y0333D01*
Y0337D01*
X09076Y03398D01*
X09143D01*
X09185Y0344D01*
Y03918D01*
X09387Y0412D01*
Y05581D01*
X0932Y05648D02*
X09387Y05581D01*
X0918Y05648D02*
X0932D01*
X09153Y05621D02*
X0918Y05648D01*
X09153Y05448D02*
Y05621D01*
Y05448D02*
X092Y054D01*
X08561Y05397D02*
X08661D01*
X07224Y04526D02*
Y05198D01*
Y04526D02*
X0725Y045D01*
X08Y0354D02*
Y036D01*
X0786Y034D02*
X08Y0354D01*
X0786Y03255D02*
Y034D01*
X0784Y03235D02*
X0786Y03255D01*
X07775Y03235D02*
X0784D01*
X0775Y0326D02*
X07775Y03235D01*
X0775Y0326D02*
Y03332D01*
X07722Y0336D02*
X0775Y03332D01*
X07722Y0336D02*
Y03439D01*
X0776Y03477D01*
Y03856D01*
X08071Y04167D01*
Y054D01*
X08214Y05543D01*
X03882Y07627D02*
X03936Y07682D01*
X03882Y0757D02*
Y07627D01*
X0295Y055D02*
X031D01*
X0289Y0544D02*
X0295Y055D01*
X0289Y04226D02*
Y0544D01*
X07626Y06199D02*
X07732Y06093D01*
Y0501D02*
Y06093D01*
Y0501D02*
X07742Y05D01*
X078D01*
X08271Y054D02*
X084D01*
X08205Y05466D02*
X08271Y054D01*
X089Y057D02*
X0894D01*
Y05735D02*
X08965Y0576D01*
Y0582D01*
X08945Y0584D02*
X08965Y0582D01*
X08819Y0584D02*
X08945D01*
X085Y058D02*
X0854Y0576D01*
X084Y058D02*
X085D01*
X084Y057D02*
X085D01*
X08555Y05645D01*
X088D01*
X08835Y0568D01*
Y0579D01*
X08845Y058D01*
X089D01*
X08631Y051D02*
Y05203D01*
X0849Y05344D02*
X08631Y05203D01*
X08359Y05344D02*
X0849D01*
X08315Y053D02*
X08359Y05344D01*
X08315Y0513D02*
Y053D01*
Y0513D02*
X08345Y051D01*
X084D01*
X08625Y049D02*
Y05044D01*
X086Y05069D02*
X08625Y05044D01*
X086Y05069D02*
Y05189D01*
X08549Y0524D02*
X086Y05189D01*
X08355Y0524D02*
X08549D01*
X08335Y0522D02*
X08355Y0524D01*
X08335Y0518D02*
Y0522D01*
Y0518D02*
X08355Y0516D01*
X08429D01*
X08469Y0512D01*
Y0501D02*
Y0512D01*
X08459Y05D02*
X08469Y0501D01*
X084Y05D02*
X08459D01*
X07925Y05657D02*
X08218Y0595D01*
X08664D01*
X052Y05197D02*
Y054D01*
X05143Y0514D02*
X052Y05197D01*
X042Y055D02*
X043D01*
X0415Y0545D02*
X042Y055D01*
X0415Y0544D02*
Y0545D01*
X0411Y054D02*
X0415Y0544D01*
X04Y054D02*
X0411D01*
X0419Y058D02*
X043D01*
X0415Y0584D02*
X0419Y058D01*
X03375Y0584D02*
X0415D01*
X03335Y0588D02*
X03375Y0584D01*
X03335Y0588D02*
Y0599D01*
X03345Y06D02*
X034D01*
Y059D02*
X03875D01*
X03935Y0596D01*
X04106D01*
X04146Y06D01*
X043D01*
X031Y03845D02*
Y039D01*
X0309Y03835D02*
X031Y03845D01*
X02808Y03835D02*
X0309D01*
X02745Y04202D02*
Y0556D01*
X02785Y056D01*
X031D01*
X071Y033D02*
Y03451D01*
X0715Y03501D01*
Y03722D02*
X0721D01*
X07465Y03977D01*
Y04488D01*
X0752Y04543D01*
X07682D01*
X07725Y045D01*
X078D01*
X08293Y048D02*
X084D01*
X08253Y0484D02*
X08293Y048D01*
X08253Y0484D02*
Y05142D01*
X07Y058D02*
X0706D01*
X07105Y05755D01*
Y05425D02*
Y05755D01*
X071Y0542D02*
X07105Y05425D01*
X071Y039D02*
Y0542D01*
X077Y033D02*
Y03517D01*
X0766Y03557D02*
X077Y03517D01*
X0766Y03557D02*
Y0371D01*
X0764Y0373D02*
X0766Y0371D01*
X067Y04702D02*
X06823Y04825D01*
Y05608D01*
X06855Y0564D01*
X07045D01*
X07065Y0562D01*
Y0547D02*
Y0562D01*
X07025Y0543D02*
X07065Y0547D01*
X07Y054D02*
X07025D01*
X0359Y04261D02*
Y052D01*
X0355Y0524D02*
X0359Y052D01*
X03375Y0524D02*
X0355D01*
X03335Y0528D02*
X03375Y0524D01*
X03335Y0528D02*
Y0536D01*
X03375Y054D01*
X034D01*
X09626Y04952D02*
X0984D01*
X0986Y04932D01*
Y04328D02*
Y04932D01*
X098Y04268D02*
X0986Y04328D01*
X0541Y05768D02*
X05442Y058D01*
X055D01*
X03335Y057D02*
X034D01*
X03315Y0568D02*
X03335Y057D01*
X03315Y04412D02*
Y0568D01*
Y04412D02*
X034Y04327D01*
X065Y039D02*
Y04696D01*
X069Y039D02*
Y0502D01*
X06895Y05025D02*
X069Y0502D01*
X06895Y05025D02*
Y05555D01*
X0694Y056D01*
X07D01*
X09543Y05617D02*
X098Y0536D01*
X09543Y05617D02*
Y05857D01*
X093Y061D02*
X09543Y05857D01*
X1Y05984D02*
Y0599D01*
X091Y0345D02*
Y038D01*
X052Y055D02*
Y056D01*
X049D02*
Y057D01*
X048Y0315D02*
Y033D01*
X0425Y0655D02*
Y0665D01*
X052Y061D02*
X0525Y0615D01*
X025Y0405D02*
X0252Y0403D01*
X0264Y0391D01*
X0486Y0339D02*
X0514Y0311D01*
X0488Y0343D02*
X0516Y0315D01*
X049Y0347D02*
X0518Y0319D01*
X0492Y0351D02*
X052Y0323D01*
X02Y08D02*
X1017D01*
Y0728D02*
Y08D01*
Y03D02*
Y036D01*
X105D01*
Y0728D01*
X1017D02*
X105D01*
X02Y03D02*
X1017D01*
X02D02*
Y08D01*
X052Y06D02*
Y061D01*
X039Y0645D02*
X0405Y066D01*
Y07D01*
X039Y0625D02*
Y0645D01*
X0425D01*
X0277Y0315D02*
X044D01*
X041Y039D02*
Y041D01*
X0392Y0623D02*
X04Y0615D01*
X039Y0625D02*
X0392Y0623D01*
X1033Y06764D02*
X10395D01*
X066Y0645D02*
X069Y0615D01*
X06579Y0645D02*
X066D01*
X0264Y0328D02*
X0277Y0315D01*
X0264Y0328D02*
Y0391D01*
X041Y033D02*
Y0332D01*
X0485Y0337D02*
X0513Y0309D01*
X0629D01*
X065Y033D01*
X0621Y0311D02*
X064Y033D01*
X0514Y0311D02*
X0621D01*
X0409Y0339D02*
X0486D01*
X04Y033D02*
X0409Y0339D01*
X039Y033D02*
Y0332D01*
X0399Y0341D01*
X0487D01*
X0515Y0313D01*
X0613D01*
X063Y033D01*
X0605Y0315D02*
X062Y033D01*
X0516Y0315D02*
X0605D01*
X0389Y0343D02*
X0488D01*
X038Y0334D02*
X0389Y0343D01*
X038Y033D02*
Y0334D01*
X0597Y0317D02*
X061Y033D01*
X0517Y0317D02*
X0597D01*
X0489Y0345D02*
X0517Y0317D01*
X0378Y0345D02*
X0489D01*
X037Y0337D02*
X0378Y0345D01*
X037Y033D02*
Y0337D01*
X0589Y0319D02*
X06Y033D01*
X0518Y0319D02*
X0589D01*
X0368Y0347D02*
X049D01*
X036Y0339D02*
X0368Y0347D01*
X036Y033D02*
Y0339D01*
X0581Y0321D02*
X059Y033D01*
X0519Y0321D02*
X0581D01*
X03605Y0349D02*
X0491D01*
X035Y03385D02*
X03605Y0349D01*
X035Y033D02*
Y03385D01*
X0491Y0349D02*
X0519Y0321D01*
X058Y0329D02*
Y033D01*
X052Y0323D02*
X0574D01*
X03525Y0351D02*
X0492D01*
X034Y033D02*
Y03385D01*
X0574Y0323D02*
X058Y0329D01*
D12*
X09078Y07657D02*
X0921Y0779D01*
X0907Y0765D02*
X09078Y07657D01*
X05245Y06155D02*
X0525Y0616D01*
X052Y0611D02*
X05245Y06155D01*
X08995Y06095D02*
X092Y063D01*
X08995Y05693D02*
Y06095D01*
X08912Y0561D02*
X08995Y05693D01*
X08495Y0561D02*
X08912D01*
X08455Y0565D02*
X08495Y0561D01*
X08145Y0565D02*
X08455D01*
X08032Y05537D02*
X08145Y0565D01*
X08032Y04183D02*
Y05537D01*
X077Y03851D02*
X08032Y04183D01*
X077Y036D02*
Y03851D01*
X0987Y0685D02*
X09905Y06885D01*
X0978Y0685D02*
X0987D01*
X09617Y06687D02*
X0978Y0685D01*
X09617Y06413D02*
Y06687D01*
X09563Y06428D02*
Y06758D01*
X09725Y0692D01*
X098D01*
X09534Y07076D02*
X098D01*
X09462Y07148D02*
X09534Y07076D01*
X09462Y07148D02*
Y0748D01*
X09417Y07525D02*
X09462Y0748D01*
X0789Y07525D02*
X09417D01*
X07765Y0765D02*
X0789Y07525D01*
X052Y061D02*
Y0611D01*
Y06D02*
Y061D01*
X0252Y0403D02*
X0403D01*
X021Y0634D02*
Y0645D01*
Y0634D02*
X0221Y0623D01*
X0302D01*
X031Y0615D01*
Y059D02*
Y06D01*
Y0615D01*
X0318Y0623D01*
X0392D02*
X04Y0615D01*
X0408Y0623D01*
X0457D01*
X0465Y0615D01*
X0473Y0623D01*
X0518D01*
X0525Y0616D01*
X0532Y0623D01*
X0577D01*
X0585Y0615D01*
X0625D01*
X064Y06D01*
X07D02*
X071Y061D01*
Y0615D01*
X0719Y0624D01*
X0862D01*
X065Y064D02*
Y0645D01*
X0625Y0615D02*
X065Y064D01*
X0585Y0615D02*
X05979Y06279D01*
Y0645D01*
X0585Y0605D02*
Y0615D01*
X058Y06D02*
X0585Y0605D01*
X046Y06D02*
Y061D01*
X0465Y0615D01*
X04Y06D02*
Y0615D01*
X064Y06D02*
X067D01*
X07D01*
X1Y07076D02*
X1033D01*
X09924Y07D02*
X1Y07076D01*
X0954Y07D02*
X09924D01*
X0941Y0687D02*
X0954Y07D01*
X043Y041D02*
Y042D01*
Y043D01*
X052Y06D02*
X0526D01*
X053Y0596D01*
Y0415D02*
Y0596D01*
Y039D02*
Y0415D01*
Y0364D02*
Y039D01*
Y0364D02*
X0534Y036D01*
X0556D01*
X056Y0356D01*
Y033D02*
Y0356D01*
X025Y0405D02*
Y043D01*
X0318Y0623D02*
X0392D01*
X0403Y0403D02*
X041Y041D01*
X025Y0405D02*
X0252Y0403D01*
X041Y041D02*
X043D01*
X04358Y04042D01*
X05192D01*
X053Y0415D01*
X0537Y0408D01*
X0558D02*
X0565Y0415D01*
X0537Y0408D02*
X0558D01*
X0565Y0415D02*
X0636D01*
X064Y0411D01*
Y039D02*
Y0411D01*
Y0364D02*
X0644Y036D01*
X064Y0364D02*
Y039D01*
X0644Y036D02*
X075D01*
X076Y035D01*
Y033D02*
Y035D01*
Y03241D02*
Y033D01*
Y03241D02*
X0764Y03201D01*
X08399D01*
X08548Y0335D01*
X088D01*
X1Y07076D02*
Y07135D01*
X09345Y0779D02*
X1Y07135D01*
X0921Y0779D02*
X09345D01*
X0892Y0765D02*
X0907D01*
X08785Y07785D02*
X0892Y0765D01*
X0851Y07785D02*
X08785D01*
X08425Y0787D02*
X0851Y07785D01*
X08341Y07786D02*
X08425Y0787D01*
X08179Y07786D02*
X08341D01*
X08095Y0787D02*
X08179Y07786D01*
X0956Y0716D02*
Y0732D01*
X0862Y0624D02*
X0879Y0641D01*
X0924D01*
X093Y0635D01*
Y063D02*
Y0635D01*
X0941Y0646D02*
Y0687D01*
X093Y0635D02*
X0941Y0646D01*
X1Y06608D02*
X1033D01*
X1Y06452D02*
X1033D01*
X1Y06296D02*
X1033D01*
X1Y0614D02*
X1033D01*
X10006Y05984D02*
X1033D01*
X1Y05828D02*
X1033D01*
X1Y05672D02*
X1033D01*
X1Y05516D02*
X1033D01*
X1Y0536D02*
X1033D01*
X1Y05048D02*
X1033D01*
X1Y04892D02*
X1033D01*
X1Y04736D02*
X1033D01*
X1Y0458D02*
X1033D01*
X1Y04424D02*
X1033D01*
X1Y04268D02*
X1033D01*
X1Y04112D02*
X1033D01*
X1Y03956D02*
X1033D01*
D13*
X0895Y06D02*
Y0615D01*
X08331Y06206D02*
X08894D01*
X07688D02*
X08331D01*
X07878Y05753D02*
X08331Y06206D01*
X07878Y05176D02*
Y05753D01*
X08331Y06206D02*
X08894D01*
X0895Y0615D01*
X084Y052D02*
X08515D01*
X08573Y05142D01*
Y04027D02*
Y05142D01*
Y04027D02*
X087Y039D01*
X089Y06D02*
X0895D01*
X08894Y06206D02*
X0895Y0615D01*
X07681Y06199D02*
X07688Y06206D01*
X078Y049D02*
X0783D01*
X07874Y04944D01*
Y05172D01*
X087Y03851D02*
Y039D01*
X087Y0385D02*
X087Y03851D01*
X087Y038D02*
Y0385D01*
Y038D02*
X087Y038D01*
X038Y0675D02*
Y07D01*
Y0675D02*
X039Y0665D01*
D14*
X05671Y03528D02*
X0585Y03349D01*
X05671Y03528D02*
Y036D01*
X05608Y03663D02*
X05671Y036D01*
X0552Y03663D02*
X05608D01*
X05341Y03842D02*
X0552Y03663D01*
X05341Y03842D02*
Y04039D01*
X05242Y04213D02*
Y04755D01*
X05071Y04926D02*
X05242Y04755D01*
X05071Y04926D02*
Y0576D01*
X05111Y058D01*
X052D01*
X06326Y03041D02*
X06469Y03184D01*
X03051Y03041D02*
X06326D01*
X08538Y03068D02*
X09438D01*
X098Y0343D01*
Y038D01*
X09633Y03967D02*
X098Y038D01*
X09633Y03967D02*
Y04004D01*
D15*
X09331Y03859D02*
X09362Y0389D01*
X09224Y03859D02*
X09331D01*
X07174Y03756D02*
X07288Y0387D01*
X07036Y03756D02*
X07174D01*
X042Y03708D02*
Y039D01*
D16*
X06106Y04367D02*
Y05191D01*
X0617Y05255D01*
Y0542D01*
X06145Y05445D02*
X0617Y0542D01*
X06016Y05445D02*
X06145D01*
X05904Y05557D02*
X06016Y05445D01*
X05904Y05557D02*
Y05891D01*
X0584Y05955D02*
X05904Y05891D01*
X05749Y05955D02*
X0584D01*
X05703Y06001D02*
X05749Y05955D01*
X04686Y06722D02*
X04951Y06457D01*
X04686Y06722D02*
Y07461D01*
X047Y07475D01*
X04975D01*
X052Y077D01*
X0725Y042D02*
Y043D01*
Y044D01*
X02957Y0736D02*
X0305Y07453D01*
X0255Y0736D02*
X02957D01*
X1Y0692D02*
X1033D01*
D17*
X0223Y0718D02*
X0255D01*
X0215Y071D02*
X0223Y0718D01*
X021Y0705D02*
X0215Y071D01*
X021Y0665D02*
Y0705D01*
D18*
X1Y06764D02*
X1033D01*
D19*
X052Y079D02*
D03*
X05Y077D02*
D03*
X054D02*
D03*
D20*
X0435Y0705D02*
D03*
X0445D02*
D03*
X0455D02*
D03*
X0855Y0635D02*
D03*
X093Y044D02*
D03*
Y045D02*
D03*
Y046D02*
D03*
Y047D02*
D03*
Y048D02*
D03*
Y049D02*
D03*
Y05D02*
D03*
Y051D02*
D03*
Y052D02*
D03*
Y053D02*
D03*
Y054D02*
D03*
Y055D02*
D03*
Y056D02*
D03*
Y057D02*
D03*
Y058D02*
D03*
Y059D02*
D03*
Y06D02*
D03*
Y061D02*
D03*
Y062D02*
D03*
Y063D02*
D03*
X092Y044D02*
D03*
Y045D02*
D03*
Y046D02*
D03*
Y047D02*
D03*
Y048D02*
D03*
Y049D02*
D03*
Y05D02*
D03*
Y051D02*
D03*
Y052D02*
D03*
Y053D02*
D03*
Y054D02*
D03*
Y055D02*
D03*
Y056D02*
D03*
Y057D02*
D03*
Y058D02*
D03*
Y059D02*
D03*
Y06D02*
D03*
Y061D02*
D03*
Y062D02*
D03*
X0555Y047D02*
D03*
Y046D02*
D03*
X0875Y049D02*
D03*
X0855Y0645D02*
D03*
X088Y0335D02*
D03*
X091Y0345D02*
D03*
X088D02*
D03*
X091Y0335D02*
D03*
X089D02*
D03*
X09D02*
D03*
D21*
X03936Y07682D02*
D03*
X051Y04525D02*
D03*
X05375Y047D02*
D03*
Y04525D02*
D03*
X081Y06325D02*
D03*
X08375Y065D02*
D03*
Y06325D02*
D03*
X03991Y0757D02*
D03*
X041D02*
D03*
X04264Y07682D02*
D03*
X04318Y0757D02*
D03*
X04209D02*
D03*
X04045Y07682D02*
D03*
X04155D02*
D03*
D22*
X03882Y0757D02*
D03*
D23*
X0425Y0645D02*
D03*
X0465D02*
D03*
Y0655D02*
D03*
X0425D02*
D03*
X048Y0315D02*
D03*
X044D02*
D03*
X043Y043D02*
D03*
X047D02*
D03*
X043Y042D02*
D03*
X047D02*
D03*
X043Y041D02*
D03*
X047D02*
D03*
X0725Y06D02*
D03*
X0765D02*
D03*
X0725Y059D02*
D03*
X0765D02*
D03*
X0725Y058D02*
D03*
X0765D02*
D03*
X0725Y057D02*
D03*
X0765D02*
D03*
X0725Y056D02*
D03*
X0765D02*
D03*
X0725Y055D02*
D03*
X0765D02*
D03*
X0725Y054D02*
D03*
X0765D02*
D03*
X0725Y053D02*
D03*
X0765D02*
D03*
X0725Y044D02*
D03*
X0765D02*
D03*
X0725Y043D02*
D03*
X0765D02*
D03*
X0725Y042D02*
D03*
X0765D02*
D03*
X085Y0615D02*
D03*
X081D02*
D03*
X091Y039D02*
D03*
X087D02*
D03*
X091Y038D02*
D03*
X087D02*
D03*
X091Y04D02*
D03*
X087D02*
D03*
X091Y041D02*
D03*
X087D02*
D03*
X088Y0653D02*
D03*
X092D02*
D03*
X0764Y0373D02*
D03*
X0804D02*
D03*
X06Y0503D02*
D03*
X064D02*
D03*
X0425Y0665D02*
D03*
X0465D02*
D03*
X0765Y045D02*
D03*
X0725D02*
D03*
D24*
X078Y05D02*
D03*
X084Y052D02*
D03*
X064Y055D02*
D03*
Y056D02*
D03*
Y057D02*
D03*
Y058D02*
D03*
Y059D02*
D03*
Y06D02*
D03*
X061Y055D02*
D03*
Y056D02*
D03*
Y057D02*
D03*
Y058D02*
D03*
Y059D02*
D03*
X058Y054D02*
D03*
Y055D02*
D03*
Y056D02*
D03*
Y057D02*
D03*
Y058D02*
D03*
Y059D02*
D03*
Y06D02*
D03*
X055Y054D02*
D03*
Y055D02*
D03*
Y056D02*
D03*
Y057D02*
D03*
Y058D02*
D03*
Y059D02*
D03*
X089Y057D02*
D03*
Y059D02*
D03*
Y06D02*
D03*
X086Y057D02*
D03*
Y058D02*
D03*
Y059D02*
D03*
X084Y049D02*
D03*
Y05D02*
D03*
Y051D02*
D03*
Y055D02*
D03*
Y056D02*
D03*
Y058D02*
D03*
Y059D02*
D03*
Y06D02*
D03*
X078Y042D02*
D03*
Y043D02*
D03*
Y044D02*
D03*
Y048D02*
D03*
Y049D02*
D03*
Y051D02*
D03*
Y052D02*
D03*
Y053D02*
D03*
Y054D02*
D03*
Y055D02*
D03*
Y056D02*
D03*
Y057D02*
D03*
Y058D02*
D03*
Y059D02*
D03*
X04Y047D02*
D03*
Y048D02*
D03*
Y049D02*
D03*
Y05D02*
D03*
Y051D02*
D03*
Y052D02*
D03*
Y053D02*
D03*
Y054D02*
D03*
Y055D02*
D03*
Y056D02*
D03*
Y057D02*
D03*
Y058D02*
D03*
Y059D02*
D03*
Y06D02*
D03*
X034Y047D02*
D03*
Y048D02*
D03*
Y049D02*
D03*
Y05D02*
D03*
Y051D02*
D03*
Y052D02*
D03*
Y053D02*
D03*
Y054D02*
D03*
Y055D02*
D03*
Y056D02*
D03*
Y057D02*
D03*
Y058D02*
D03*
Y059D02*
D03*
X046Y053D02*
D03*
Y054D02*
D03*
Y055D02*
D03*
Y056D02*
D03*
Y057D02*
D03*
Y058D02*
D03*
Y059D02*
D03*
Y06D02*
D03*
X043Y053D02*
D03*
Y054D02*
D03*
Y055D02*
D03*
Y056D02*
D03*
Y057D02*
D03*
Y058D02*
D03*
Y059D02*
D03*
X052Y054D02*
D03*
Y055D02*
D03*
Y056D02*
D03*
Y057D02*
D03*
Y058D02*
D03*
Y059D02*
D03*
Y06D02*
D03*
X049Y054D02*
D03*
Y055D02*
D03*
Y056D02*
D03*
Y057D02*
D03*
Y058D02*
D03*
Y059D02*
D03*
X078Y046D02*
D03*
X084Y053D02*
D03*
Y054D02*
D03*
Y041D02*
D03*
Y042D02*
D03*
Y043D02*
D03*
Y044D02*
D03*
Y045D02*
D03*
Y046D02*
D03*
Y047D02*
D03*
Y057D02*
D03*
X089Y058D02*
D03*
X084Y048D02*
D03*
X07Y051D02*
D03*
Y052D02*
D03*
Y053D02*
D03*
Y054D02*
D03*
Y055D02*
D03*
Y056D02*
D03*
Y057D02*
D03*
Y058D02*
D03*
X067Y051D02*
D03*
X07Y06D02*
D03*
X067Y059D02*
D03*
Y058D02*
D03*
Y057D02*
D03*
Y056D02*
D03*
Y055D02*
D03*
Y054D02*
D03*
Y053D02*
D03*
Y052D02*
D03*
X07Y059D02*
D03*
X025D02*
D03*
Y058D02*
D03*
Y057D02*
D03*
Y056D02*
D03*
Y055D02*
D03*
Y054D02*
D03*
Y053D02*
D03*
Y052D02*
D03*
Y051D02*
D03*
Y05D02*
D03*
Y049D02*
D03*
Y048D02*
D03*
Y047D02*
D03*
X031Y06D02*
D03*
Y058D02*
D03*
Y057D02*
D03*
Y056D02*
D03*
Y055D02*
D03*
Y054D02*
D03*
Y053D02*
D03*
Y052D02*
D03*
Y051D02*
D03*
Y05D02*
D03*
Y049D02*
D03*
Y048D02*
D03*
Y047D02*
D03*
Y059D02*
D03*
X078Y045D02*
D03*
X061Y053D02*
D03*
Y054D02*
D03*
X078Y041D02*
D03*
Y047D02*
D03*
X064Y054D02*
D03*
Y053D02*
D03*
D25*
X0455Y068D02*
D03*
X0435D02*
D03*
X076Y049D02*
D03*
X0235Y071D02*
D03*
X0565Y0415D02*
D03*
X0545D02*
D03*
X069Y0615D02*
D03*
X071D02*
D03*
X0875D02*
D03*
X0895D02*
D03*
X074Y049D02*
D03*
X0565Y0615D02*
D03*
X0585D02*
D03*
X0505D02*
D03*
X0525D02*
D03*
X0445D02*
D03*
X0465D02*
D03*
X038D02*
D03*
X04D02*
D03*
X029D02*
D03*
X031D02*
D03*
X051Y0415D02*
D03*
X053D02*
D03*
X039Y041D02*
D03*
X041D02*
D03*
X025Y043D02*
D03*
X023D02*
D03*
D26*
X076Y0765D02*
D03*
X07765D02*
D03*
X0793D02*
D03*
X0826D02*
D03*
X0842D02*
D03*
X0859D02*
D03*
X08755D02*
D03*
X0892D02*
D03*
X09085D02*
D03*
X07765Y0787D02*
D03*
X0793D02*
D03*
X08095D02*
D03*
X0826D02*
D03*
X08425D02*
D03*
X0859D02*
D03*
X08755D02*
D03*
X0892D02*
D03*
X09085D02*
D03*
X08095Y0765D02*
D03*
D27*
X076Y0787D02*
D03*
D28*
X0927Y0765D02*
D03*
X07415D02*
D03*
X1005Y0788D02*
D03*
Y0312D02*
D03*
X0212D02*
D03*
Y0788D02*
D03*
D29*
X0775Y074D02*
D03*
Y071D02*
D03*
Y068D02*
D03*
X0785D02*
D03*
Y071D02*
D03*
Y074D02*
D03*
X0795Y068D02*
D03*
Y071D02*
D03*
Y074D02*
D03*
X0825D02*
D03*
Y071D02*
D03*
Y068D02*
D03*
X0815Y074D02*
D03*
Y071D02*
D03*
Y068D02*
D03*
X0805D02*
D03*
Y071D02*
D03*
Y074D02*
D03*
X0855D02*
D03*
Y071D02*
D03*
Y068D02*
D03*
X0845Y074D02*
D03*
Y071D02*
D03*
Y068D02*
D03*
X0835D02*
D03*
Y071D02*
D03*
Y074D02*
D03*
X0885D02*
D03*
Y071D02*
D03*
Y068D02*
D03*
X0875Y074D02*
D03*
Y071D02*
D03*
Y068D02*
D03*
X0865D02*
D03*
Y071D02*
D03*
Y074D02*
D03*
X0915D02*
D03*
Y071D02*
D03*
Y068D02*
D03*
X0905Y074D02*
D03*
Y071D02*
D03*
Y068D02*
D03*
X0895D02*
D03*
Y071D02*
D03*
Y074D02*
D03*
X0935D02*
D03*
Y071D02*
D03*
Y068D02*
D03*
X0925D02*
D03*
Y071D02*
D03*
Y074D02*
D03*
X0745D02*
D03*
Y071D02*
D03*
Y068D02*
D03*
X0755D02*
D03*
Y071D02*
D03*
Y074D02*
D03*
X0765Y068D02*
D03*
Y071D02*
D03*
Y074D02*
D03*
X0715D02*
D03*
Y071D02*
D03*
Y068D02*
D03*
X0725D02*
D03*
Y071D02*
D03*
Y074D02*
D03*
X0735Y068D02*
D03*
Y071D02*
D03*
Y074D02*
D03*
X0685D02*
D03*
Y071D02*
D03*
Y068D02*
D03*
X0695D02*
D03*
Y071D02*
D03*
Y074D02*
D03*
X0705Y068D02*
D03*
Y071D02*
D03*
Y074D02*
D03*
X0655D02*
D03*
Y071D02*
D03*
Y068D02*
D03*
X0665D02*
D03*
Y071D02*
D03*
Y074D02*
D03*
X0675Y068D02*
D03*
Y071D02*
D03*
Y074D02*
D03*
X0625D02*
D03*
Y071D02*
D03*
Y068D02*
D03*
X0635D02*
D03*
Y071D02*
D03*
Y074D02*
D03*
X0645Y068D02*
D03*
Y071D02*
D03*
Y074D02*
D03*
X0595D02*
D03*
Y071D02*
D03*
Y068D02*
D03*
X0605D02*
D03*
Y071D02*
D03*
Y074D02*
D03*
X0615Y068D02*
D03*
Y071D02*
D03*
Y074D02*
D03*
X0565D02*
D03*
Y071D02*
D03*
Y068D02*
D03*
X0575D02*
D03*
Y071D02*
D03*
Y074D02*
D03*
X0585Y068D02*
D03*
Y071D02*
D03*
Y074D02*
D03*
X0535D02*
D03*
Y071D02*
D03*
Y068D02*
D03*
X0545D02*
D03*
Y071D02*
D03*
Y074D02*
D03*
X0555Y068D02*
D03*
Y071D02*
D03*
Y074D02*
D03*
X0505D02*
D03*
Y071D02*
D03*
Y068D02*
D03*
X0515D02*
D03*
Y071D02*
D03*
Y074D02*
D03*
X0525Y068D02*
D03*
Y071D02*
D03*
Y074D02*
D03*
X0495D02*
D03*
Y071D02*
D03*
Y068D02*
D03*
X0485Y074D02*
D03*
Y071D02*
D03*
Y068D02*
D03*
X0475D02*
D03*
Y071D02*
D03*
Y074D02*
D03*
D30*
X061Y06D02*
D03*
X055D02*
D03*
X086D02*
D03*
X078D02*
D03*
X034D02*
D03*
X043D02*
D03*
X049D02*
D03*
X067D02*
D03*
X025D02*
D03*
D31*
X041Y039D02*
D03*
X083Y036D02*
D03*
X078D02*
D03*
X077D02*
D03*
X076D02*
D03*
X083Y033D02*
D03*
X079D02*
D03*
X078D02*
D03*
X053D02*
D03*
X054D02*
D03*
X055D02*
D03*
X056D02*
D03*
X057D02*
D03*
X058D02*
D03*
X059D02*
D03*
X06D02*
D03*
X061D02*
D03*
X062D02*
D03*
X063D02*
D03*
X064D02*
D03*
X065D02*
D03*
X066D02*
D03*
X067D02*
D03*
X068D02*
D03*
X069D02*
D03*
X07D02*
D03*
X053Y039D02*
D03*
X054D02*
D03*
X055D02*
D03*
X056D02*
D03*
X057D02*
D03*
X058D02*
D03*
X059D02*
D03*
X06D02*
D03*
X061D02*
D03*
X062D02*
D03*
X063D02*
D03*
X064D02*
D03*
X065D02*
D03*
X066D02*
D03*
X067D02*
D03*
X068D02*
D03*
X069D02*
D03*
X07D02*
D03*
X071D02*
D03*
X029Y033D02*
D03*
X03D02*
D03*
X031D02*
D03*
X032D02*
D03*
X033D02*
D03*
X034D02*
D03*
X035D02*
D03*
X036D02*
D03*
X037D02*
D03*
X038D02*
D03*
X039D02*
D03*
X04D02*
D03*
X041D02*
D03*
X042D02*
D03*
X043D02*
D03*
X044D02*
D03*
X045D02*
D03*
X046D02*
D03*
X047D02*
D03*
X048D02*
D03*
X029Y039D02*
D03*
X03D02*
D03*
X031D02*
D03*
X032D02*
D03*
X033D02*
D03*
X034D02*
D03*
X035D02*
D03*
X036D02*
D03*
X037D02*
D03*
X038D02*
D03*
X039D02*
D03*
X04D02*
D03*
X042D02*
D03*
X043D02*
D03*
X044D02*
D03*
X045D02*
D03*
X046D02*
D03*
X047D02*
D03*
X072Y033D02*
D03*
X08Y036D02*
D03*
X079D02*
D03*
X082D02*
D03*
X081D02*
D03*
Y033D02*
D03*
X08D02*
D03*
X082D02*
D03*
X077D02*
D03*
X071D02*
D03*
D32*
X038Y07D02*
D03*
X0405D02*
D03*
X059Y0645D02*
D03*
X053D02*
D03*
X056D02*
D03*
X065D02*
D03*
X062D02*
D03*
D33*
X03879Y07D02*
D03*
X04129D02*
D03*
X05979Y0645D02*
D03*
X05379D02*
D03*
X05679D02*
D03*
X06579D02*
D03*
X06279D02*
D03*
D34*
X0215Y071D02*
D03*
D35*
X076Y033D02*
D03*
X072Y039D02*
D03*
X048D02*
D03*
D36*
X092Y063D02*
D03*
D37*
X051Y047D02*
D03*
X081Y065D02*
D03*
D38*
X025Y0345D02*
D03*
Y0405D02*
D03*
X022Y0345D02*
D03*
D39*
Y0405D02*
D03*
D40*
X0875Y051D02*
D03*
D41*
X052Y077D02*
D03*
X0923Y0324D02*
D03*
X0867D02*
D03*
X0895Y032D02*
D03*
D42*
X0305Y07453D02*
D03*
D43*
X02861Y07579D02*
D03*
X0305Y07697D02*
D03*
D44*
X03608Y07626D02*
D03*
X04592D02*
D03*
D45*
X035Y072D02*
D03*
D46*
Y073D02*
D03*
D47*
X0246Y0785D02*
D03*
X0263D02*
D03*
D48*
X0255Y0736D02*
D03*
Y0718D02*
D03*
Y07D02*
D03*
D49*
X021Y0645D02*
D03*
Y0655D02*
D03*
X039Y0665D02*
D03*
Y0655D02*
D03*
D50*
X021Y0665D02*
D03*
X039Y0645D02*
D03*
D51*
X0278Y0655D02*
D03*
X0322D02*
D03*
D52*
X1Y038D02*
D03*
D53*
Y03956D02*
D03*
Y04112D02*
D03*
Y04268D02*
D03*
Y04424D02*
D03*
Y0458D02*
D03*
Y04736D02*
D03*
Y04892D02*
D03*
Y05048D02*
D03*
Y05204D02*
D03*
Y0536D02*
D03*
Y05516D02*
D03*
Y05672D02*
D03*
Y05828D02*
D03*
Y05984D02*
D03*
Y0614D02*
D03*
Y06296D02*
D03*
Y06452D02*
D03*
Y06608D02*
D03*
Y06764D02*
D03*
Y0692D02*
D03*
Y07076D02*
D03*
X098Y038D02*
D03*
Y03956D02*
D03*
Y04112D02*
D03*
Y04268D02*
D03*
Y04424D02*
D03*
Y0458D02*
D03*
Y04736D02*
D03*
Y04892D02*
D03*
Y05048D02*
D03*
Y05204D02*
D03*
Y0536D02*
D03*
Y05516D02*
D03*
Y05672D02*
D03*
Y05828D02*
D03*
Y05984D02*
D03*
Y0614D02*
D03*
Y06296D02*
D03*
Y06452D02*
D03*
Y06608D02*
D03*
Y06764D02*
D03*
Y0692D02*
D03*
Y07076D02*
D03*
D54*
X02615Y0436D02*
D03*
X07187Y05388D02*
D03*
X07145Y05295D02*
D03*
X07295Y03939D02*
D03*
X0838Y03327D02*
D03*
X08324Y04869D02*
D03*
X06769Y04942D02*
D03*
X07351Y03944D02*
D03*
X0826Y03885D02*
D03*
X0822Y0526D02*
D03*
X07382Y05263D02*
D03*
X07753Y03388D02*
D03*
X09142Y05315D02*
D03*
X08708Y05776D02*
D03*
X08569Y06124D02*
D03*
Y05569D02*
D03*
X08736Y0537D02*
D03*
X09658Y06511D02*
D03*
X05423Y03443D02*
D03*
X04877Y03958D02*
D03*
X05051Y04117D02*
D03*
X0443Y05337D02*
D03*
X09905Y06885D02*
D03*
X09617Y06413D02*
D03*
X09563Y06428D02*
D03*
X05084Y03503D02*
D03*
X068Y0347D02*
D03*
X08261Y03665D02*
D03*
X09465Y06608D02*
D03*
X09709Y0644D02*
D03*
X05105Y04336D02*
D03*
X08735Y04652D02*
D03*
X09475Y06507D02*
D03*
X09539Y06072D02*
D03*
X02473Y06863D02*
D03*
X09279Y06708D02*
D03*
X09327Y06543D02*
D03*
X02504Y06832D02*
D03*
X0871Y06648D02*
D03*
Y06394D02*
D03*
X09125Y04253D02*
D03*
X033Y03448D02*
D03*
X08088Y0312D02*
D03*
X08992Y04138D02*
D03*
X05491Y05098D02*
D03*
X08774Y05685D02*
D03*
X05474Y05254D02*
D03*
X057Y0546D02*
D03*
X08569Y0545D02*
D03*
X08631Y05512D02*
D03*
X04915Y03887D02*
D03*
X0896Y05452D02*
D03*
X0869Y04643D02*
D03*
X05165Y04628D02*
D03*
X08213Y03398D02*
D03*
X05494Y052D02*
D03*
X05862Y04832D02*
D03*
X08679Y04736D02*
D03*
X08921Y05402D02*
D03*
X09017Y04744D02*
D03*
X08119Y03456D02*
D03*
X09484Y04852D02*
D03*
X09493Y04752D02*
D03*
X08883Y04649D02*
D03*
X08794Y0456D02*
D03*
X0576Y0405D02*
D03*
X0286Y04195D02*
D03*
X08239Y03481D02*
D03*
X0901Y04653D02*
D03*
X09599Y04256D02*
D03*
X09122Y04461D02*
D03*
X05892Y04082D02*
D03*
X09232Y04199D02*
D03*
X07991Y03487D02*
D03*
X08231Y04123D02*
D03*
X09035Y04244D02*
D03*
X09021Y046D02*
D03*
X07951Y03259D02*
D03*
X05527Y03397D02*
D03*
X04207Y06902D02*
D03*
X06597Y05959D02*
D03*
X0447Y07126D02*
D03*
X04707Y06475D02*
D03*
X06515Y05934D02*
D03*
X06146Y06106D02*
D03*
X05828Y06393D02*
D03*
X03852Y04187D02*
D03*
X0889Y04699D02*
D03*
X08797Y04625D02*
D03*
X05933Y0476D02*
D03*
X05491Y04777D02*
D03*
X067Y04457D02*
D03*
X07987Y046D02*
D03*
X06811Y05934D02*
D03*
X06337Y04194D02*
D03*
X063Y04052D02*
D03*
X062Y04017D02*
D03*
X06392Y04188D02*
D03*
X06909Y05776D02*
D03*
X06704Y03824D02*
D03*
X07197Y04326D02*
D03*
X05969Y04015D02*
D03*
X058Y04029D02*
D03*
X07261Y04628D02*
D03*
X09449Y03163D02*
D03*
X0585Y03349D02*
D03*
X05341Y04039D02*
D03*
X05242Y04213D02*
D03*
X06469Y03184D02*
D03*
X03051Y03041D02*
D03*
X08538Y03068D02*
D03*
X05861Y04049D02*
D03*
X05925Y04225D02*
D03*
X066Y03141D02*
D03*
X09255Y04132D02*
D03*
X08123Y03798D02*
D03*
X0864Y06161D02*
D03*
Y06374D02*
D03*
X09362Y0389D02*
D03*
X09224Y03859D02*
D03*
X07288Y0387D02*
D03*
X07036Y03756D02*
D03*
X042Y03708D02*
D03*
X03643Y0421D02*
D03*
X03528Y04386D02*
D03*
X03559Y04076D02*
D03*
X02379Y03522D02*
D03*
X02598Y03476D02*
D03*
X03011Y04171D02*
D03*
X03044Y04092D02*
D03*
X03024Y03979D02*
D03*
X03195Y04195D02*
D03*
X02955Y03711D02*
D03*
X0284Y04079D02*
D03*
X03108Y04097D02*
D03*
X0335Y03587D02*
D03*
X02574Y04257D02*
D03*
X06106Y04367D02*
D03*
X05703Y06001D02*
D03*
X04951Y06457D02*
D03*
X04039Y06266D02*
D03*
X04483Y06673D02*
D03*
X09451Y06774D02*
D03*
X06333Y03653D02*
D03*
X039D02*
D03*
X09082Y04249D02*
D03*
X0895Y04748D02*
D03*
X08809Y04339D02*
D03*
X0506Y03835D02*
D03*
X08986Y04828D02*
D03*
X08921Y0437D02*
D03*
X0484Y04086D02*
D03*
X03255Y03687D02*
D03*
X03202Y04075D02*
D03*
X03075Y04431D02*
D03*
X02737Y0395D02*
D03*
X05002Y04086D02*
D03*
X04917Y04001D02*
D03*
X05711Y04043D02*
D03*
X06048Y04502D02*
D03*
X05864Y0526D02*
D03*
X07641Y03419D02*
D03*
X05757Y06152D02*
D03*
X05657Y06301D02*
D03*
X04262Y06332D02*
D03*
X04174Y06486D02*
D03*
X04155Y07168D02*
D03*
X06231Y05971D02*
D03*
X05992Y06041D02*
D03*
X06004Y05971D02*
D03*
X05242Y0402D02*
D03*
X052Y04261D02*
D03*
X03752Y06497D02*
D03*
X04041Y06099D02*
D03*
X0449Y06047D02*
D03*
X05381Y0595D02*
D03*
X05972Y06078D02*
D03*
X07313Y04286D02*
D03*
X06087Y04012D02*
D03*
X02612Y04081D02*
D03*
X0325Y04308D02*
D03*
X05421Y04039D02*
D03*
X07465Y04597D02*
D03*
X05472Y04039D02*
D03*
X06484Y05131D02*
D03*
X06551Y05202D02*
D03*
X06495Y03641D02*
D03*
X05502Y04195D02*
D03*
X056Y04039D02*
D03*
X06017Y06109D02*
D03*
X02983Y04321D02*
D03*
X03266Y03965D02*
D03*
X0807Y03415D02*
D03*
X08374Y03155D02*
D03*
X08561Y05397D02*
D03*
X08661D02*
D03*
X07224Y05198D02*
D03*
X08214Y05543D02*
D03*
X0289Y04226D02*
D03*
X07626Y06199D02*
D03*
X07681D02*
D03*
X08205Y05466D02*
D03*
X08631Y051D02*
D03*
X08625Y049D02*
D03*
X07925Y05657D02*
D03*
X08664Y0595D02*
D03*
X05143Y0514D02*
D03*
X02808Y03835D02*
D03*
X02745Y04202D02*
D03*
X0715Y03501D02*
D03*
Y03722D02*
D03*
X07874Y05172D02*
D03*
X08253Y05142D02*
D03*
X0359Y04261D02*
D03*
X09626Y04952D02*
D03*
X09633Y04004D02*
D03*
X034Y04327D02*
D03*
X065Y04696D02*
D03*
D55*
X0956Y0732D02*
D03*
Y0716D02*
D03*
M02*
