M48
;Layer_Color=9474304
;FILE_FORMAT=2:3
INCH,LZ
;TYPE=PLATED
T1F00S00C0.016
T2F00S00C0.028
T3F00S00C0.029
T4F00S00C0.030
T5F00S00C0.033
T6F00S00C0.035
T7F00S00C0.039
T8F00S00C0.043
T9F00S00C0.046
T10F00S00C0.050
T11F00S00C0.052
T12F00S00C0.061
T13F00S00C0.070
T14F00S00C0.079
T15F00S00C0.080
T16F00S00C0.105
T17F00S00C0.115
T18F00S00C0.125
T19F00S00C0.128
;TYPE=NON_PLATED
T20F00S00C0.115
%
T01
X08088Y0312
X08538Y03068
X03051Y03041
X02955Y03711
X02808Y03835
X02737Y0395
X0284Y04079
X0286Y04195
X0289Y04226
X02745Y04202
X02574Y04257
X02615Y0436
X02612Y04081
X03044Y04092
X03108Y04097
X03011Y04171
X02983Y04321
X03075Y04431
X03024Y03979
X02598Y03476
X02379Y03522
X033Y03448
X0335Y03587
X03255Y03687
X03266Y03965
X03202Y04075
X03195Y04195
X0325Y04308
X034Y04327
X03528Y04386
X0359Y04261
X03643Y0421
X03559Y04076
X03852Y04187
X039Y03653
X042Y03708
X04915Y03887
X04877Y03958
X04917Y04001
X0484Y04086
X05002
X05051Y04117
X05105Y04336
X052Y04261
X05242Y04213
Y0402
X05341Y04039
X05421
X05472
X056
X05711Y04043
X0576Y0405
X058Y04029
X05861Y04049
X05892Y04082
X05969Y04015
X06087Y04012
X062Y04017
X06106Y04367
X06048Y04502
X05925Y04225
X05502Y04195
X05165Y04628
X0506Y03835
X05084Y03503
X05423Y03443
X05527Y03397
X0585Y03349
X06469Y03184
X066Y03141
X068Y0347
X0715Y03501
Y03722
X07036Y03756
X07288Y0387
X07295Y03939
X07351Y03944
X07313Y04286
X07197Y04326
X07261Y04628
X07465Y04597
X067Y04457
X06392Y04188
X06337Y04194
X063Y04052
X06333Y03653
X06495Y03641
X06704Y03824
X07641Y03419
X07753Y03388
X07951Y03259
X07991Y03487
X0807Y03415
X08119Y03456
X08239Y03481
X08213Y03398
X0838Y03327
X08374Y03155
X08261Y03665
X0826Y03885
X08123Y03798
X08231Y04123
X07987Y046
X0869Y04643
X08735Y04652
X08797Y04625
X08794Y0456
X08883Y04649
X0901Y04653
X09021Y046
X09122Y04461
X09125Y04253
X09082Y04249
X09035Y04244
X08992Y04138
X09255Y04132
X09232Y04199
X09224Y03859
X09362Y0389
X08921Y0437
X08809Y04339
X09599Y04256
X09633Y04004
X09449Y03163
X09493Y04752
X09484Y04852
X09626Y04952
X09539Y06072
X0864Y06161
X08569Y06124
X08664Y0595
X08708Y05776
X08774Y05685
X08631Y05512
X08569Y05569
Y0545
X08561Y05397
X08661
X08736Y0537
X08921Y05402
X0896Y05452
X09142Y05315
X08986Y04828
X09017Y04744
X0895Y04748
X0889Y04699
X08679Y04736
X08625Y049
X08631Y051
X08253Y05142
X0822Y0526
X08205Y05466
X08214Y05543
X07925Y05657
X07874Y05172
X08324Y04869
X07382Y05263
X07224Y05198
X07145Y05295
X07187Y05388
X06909Y05776
X06811Y05934
X06597Y05959
X06515Y05934
X06551Y05202
X06484Y05131
X065Y04696
X06769Y04942
X07626Y06199
X07681
X06146Y06106
X06017Y06109
X05972Y06078
X05992Y06041
X06004Y05971
X06231
X05703Y06001
X05757Y06152
X05381Y0595
X05474Y05254
X05494Y052
X05491Y05098
Y04777
X05862Y04832
X05933Y0476
X05864Y0526
X057Y0546
X05143Y0514
X0443Y05337
X0449Y06047
X04041Y06099
X02504Y06832
X02473Y06863
X03752Y06497
X04174Y06486
X04262Y06332
X04039Y06266
X04207Y06902
X04155Y07168
X0447Y07126
X04483Y06673
X04707Y06475
X04951Y06457
X05657Y06301
X05828Y06393
X0864Y06374
X0871Y06394
Y06648
X09279Y06708
X09327Y06543
X09475Y06507
X09465Y06608
X09451Y06774
X09563Y06428
X09617Y06413
X09709Y0644
X09658Y06511
X09905Y06885
T02
X035Y072
Y073
X038Y07
X03879
X0405
X04129
X053Y0645
X05379
X056
X05679
X059
X05979
X062
X06279
X065
X06579
X0956Y0716
Y0732
T03
X029Y033
X03
X031
Y039
X03
X029
X032
X033
X034
X035
X036
X037
X038
X039
X04
X041
X042
X043
X044
X045
X046
Y033
X045
X044
X043
X042
X041
X04
X039
X038
X037
X036
X035
X034
X033
X032
X047
X048
X053
X054
X055
X056
X057
X058
X059
X06
X061
X062
Y039
X061
X06
X059
X058
X057
X056
X055
X054
X053
X048
X047
X063
X064
X065
X066
X067
X068
X069
X07
X071
X072
Y033
X071
X07
X069
X068
X067
X066
X065
X064
X063
X076
X077
X078
Y036
X077
X076
X078Y041
Y042
Y043
Y044
Y045
Y046
X084
Y045
Y044
Y043
Y042
Y041
X083Y036
X082
X081
X08
X079
Y033
X08
X081
X082
X083
X084Y047
Y048
Y049
Y05
Y051
Y052
Y053
Y054
Y055
Y056
Y057
Y058
Y059
Y06
X086
Y059
Y058
Y057
X089
Y058
Y059
Y06
X078
Y059
Y058
Y057
Y056
Y055
Y054
Y053
Y052
Y051
Y05
Y049
Y048
Y047
X07Y051
Y052
Y053
Y054
Y055
Y056
Y057
Y058
Y059
Y06
X067
Y059
Y058
Y057
Y056
Y055
Y054
Y053
Y052
Y051
X064Y053
Y054
Y055
Y056
Y057
Y058
Y059
Y06
X061
Y059
Y058
Y057
Y056
Y055
Y054
Y053
X058Y054
Y055
Y056
Y057
Y058
Y059
Y06
X055
Y059
Y058
Y057
Y056
Y055
Y054
X052
Y055
Y056
Y057
Y058
Y059
Y06
X049
Y059
Y058
Y057
Y056
Y055
Y054
X046
Y053
Y055
Y056
Y057
Y058
Y059
Y06
X043
Y059
Y058
Y057
Y056
Y055
Y054
Y053
X04
Y052
Y051
Y05
Y049
Y048
Y047
X034
Y048
Y049
Y05
Y051
Y052
Y053
Y054
Y055
Y056
Y057
Y058
Y059
Y06
X04
Y059
Y058
Y057
Y056
Y055
Y054
X031
Y055
Y056
Y057
Y058
Y059
Y06
X025
Y059
Y058
Y057
Y056
Y055
Y054
Y053
Y052
Y051
Y05
Y049
Y048
Y047
X031
Y048
Y049
Y05
Y051
Y052
Y053
X0435Y0705
X0445
X0455
T04
X0475Y068
X0485
X0495
X0505
X0515
X0525
X0535
X0545
X0555
X0565
X0575
X0585
X0595
X0605
X0615
Y071
X0605
X0595
X0585
X0575
X0565
X0555
X0545
X0535
X0525
X0515
X0505
X0495
X0485
X0475
Y074
X0485
X0495
X0505
X0515
X0525
X0535
X0545
X0555
X0565
X0575
X0585
X0595
X0605
X0615
X0625
X0635
X0645
X0655
X0665
X0675
X0685
X0695
X0705
X0715
X0725
X0735
X0745
X0755
X0765
X0775
Y071
X0765
X0755
X0745
X0735
X0725
X0715
X0705
X0695
X0685
X0675
X0665
X0655
X0645
X0635
X0625
Y068
X0635
X0645
X0655
X0665
X0675
X0685
X0695
X0705
X0715
X0725
X0735
X0745
X0755
X0765
X0775
X0785
X0795
X0805
X0815
X0825
X0835
X0845
X0855
X0865
X0875
X0885
X0895
X0905
X0915
X0925
X0935
Y071
X0925
X0915
X0905
X0895
X0885
X0875
X0865
X0855
X0845
X0835
X0825
X0815
X0805
X0795
X0785
Y074
X0795
X0805
X0815
X0825
X0835
X0845
X0855
X0865
X0875
X0885
X0895
X0905
X0915
X0925
X0935
T05
X023Y043
X025
X039Y041
X041
X043
Y042
Y043
X044Y0315
X048
X047Y041
Y042
Y043
X051Y0415
X053
X0545
X0565
X0725Y042
Y043
Y044
Y045
X0765
Y044
Y043
Y042
X0764Y0373
X0804
X087Y038
Y039
Y04
Y041
X091
Y04
Y039
Y038
X0895Y0615
X0875
X085
X081
X0765Y06
Y059
Y058
Y057
Y056
Y055
Y054
Y053
X0725
Y054
Y055
Y056
Y057
Y058
Y059
Y06
X071Y0615
X069
X064Y0503
X074Y049
X076
X06Y0503
X0585Y0615
X0565
X0525
X0505
X0465
X0445
X04
X038
X031
X029
X0235Y071
X0215
X0435Y068
X0455
X0465Y0665
Y0655
Y0645
X0425
Y0655
Y0665
X088Y0653
X092
T06
X022Y0345
X025
Y0405
X022
X0555Y046
X092
X093
Y045
Y044
X092
Y045
X091Y0345
Y0335
X09
X089
X088
Y0345
X0875Y049
Y051
X092
X093
Y05
Y049
Y048
Y047
X092
Y048
Y049
Y05
Y052
X093
Y053
Y054
Y055
Y056
Y057
Y058
Y059
Y06
Y061
Y062
X092
Y061
Y06
Y059
Y058
Y057
Y056
Y055
Y054
Y053
X0555Y047
X0855Y0635
Y0645
X092Y063
X093
T07
X021Y0645
Y0655
Y0665
X039
Y0655
Y0645
T08
X03882Y0757
X03991
X041
X04209
X04318
X04264Y07682
X04155
X04045
X03936
T09
X051Y04525
X05375
Y047
X051
X081Y06325
Y065
X08375
Y06325
T10
X076Y0765
X07765
X0793
X08095
X0826
X0842
X0859
X08755
X0892
X09085
Y0787
X0892
X08755
X0859
X08425
X0826
X08095
X0793
X07765
X076
T11
X098Y038
Y03956
Y04112
Y04268
Y04424
Y0458
X1
Y04424
Y04268
Y04112
Y03956
Y038
Y04736
Y04892
Y05048
Y05204
Y0536
Y05516
Y05672
Y05828
Y05984
Y0614
X098
Y05984
Y05828
Y05672
Y05516
Y0536
Y05204
Y05048
Y04892
Y04736
Y06296
Y06452
Y06608
Y06764
Y0692
Y07076
X1
Y0692
Y06764
Y06608
Y06452
Y06296
T12
X052Y077
T13
X0255Y07
Y0718
Y0736
T14
X0867Y0324
X0895Y032
X0923Y0324
T15
X0246Y0785
X0263
T16
X02861Y07579
X0305Y07697
T17
X1005Y0312
X0212
X07415Y0765
X1005Y0788
X0212
T18
X0278Y0655
X0305Y07453
X0322Y0655
X05Y077
X054
X052Y079
T19
X03608Y07626
X04592
T20
X0927Y0765
M30
