%FSTAX23Y23*%
%MOIN*%
G70*
G01*
G75*
G04 Layer_Color=65535*
%ADD10R,0.300X0.080*%
%ADD11C,0.010*%
%ADD12C,0.030*%
%ADD13C,0.018*%
%ADD14C,0.012*%
%ADD15C,0.015*%
%ADD16C,0.020*%
%ADD17C,0.040*%
%ADD18C,0.060*%
%ADD19C,0.160*%
%ADD20C,0.065*%
%ADD21C,0.075*%
%ADD22R,0.075X0.075*%
%ADD23C,0.055*%
%ADD24O,0.100X0.050*%
%ADD25C,0.066*%
%ADD26C,0.100*%
%ADD27R,0.100X0.100*%
%ADD28C,0.200*%
%ADD29O,0.050X0.100*%
%ADD30R,0.100X0.050*%
%ADD31O,0.050X0.100*%
%ADD32R,0.059X0.059*%
%ADD33C,0.059*%
%ADD34R,0.066X0.066*%
%ADD35R,0.050X0.100*%
%ADD36R,0.065X0.065*%
%ADD37R,0.075X0.075*%
%ADD38O,0.120X0.065*%
%ADD39R,0.120X0.065*%
%ADD40R,0.065X0.065*%
%ADD41C,0.130*%
%ADD42C,0.190*%
%ADD43C,0.180*%
%ADD44C,0.187*%
%ADD45R,0.047X0.047*%
%ADD46C,0.047*%
%ADD47C,0.120*%
%ADD48C,0.110*%
%ADD49C,0.063*%
%ADD50R,0.063X0.063*%
G04:AMPARAMS|DCode=51|XSize=450mil|YSize=400mil|CornerRadius=20mil|HoleSize=0mil|Usage=FLASHONLY|Rotation=270.000|XOffset=0mil|YOffset=0mil|HoleType=Round|Shape=RoundedRectangle|*
%AMROUNDEDRECTD51*
21,1,0.450,0.360,0,0,270.0*
21,1,0.410,0.400,0,0,270.0*
1,1,0.040,-0.180,-0.205*
1,1,0.040,-0.180,0.205*
1,1,0.040,0.180,0.205*
1,1,0.040,0.180,-0.205*
%
%ADD51ROUNDEDRECTD51*%
%ADD52R,0.090X0.090*%
%ADD53C,0.090*%
%ADD54C,0.032*%
%ADD55C,0.050*%
%ADD56C,0.007*%
%ADD57C,0.008*%
%ADD58C,0.050*%
%ADD59C,0.008*%
%ADD60C,0.006*%
G36*
X06291Y0774D02*
X06247D01*
Y07859D01*
X06291D01*
Y0774D01*
D02*
G37*
G36*
X06407Y07832D02*
X06376D01*
X06373Y07831D01*
X0637Y07831D01*
X06367Y0783D01*
X06363Y07829D01*
X0636Y07827D01*
X06356Y07824D01*
X06356Y07824D01*
X06355Y07823D01*
X06354Y07821D01*
X06352Y07819D01*
X06351Y07816D01*
X0635Y07813D01*
X06349Y07809D01*
X06348Y07805D01*
Y07805D01*
Y07804D01*
X06348Y07803D01*
X06349Y07801D01*
X06349Y07798D01*
X06351Y07795D01*
X06352Y07792D01*
X06354Y07788D01*
X06357Y07785D01*
X06358Y07785D01*
X06359Y07784D01*
X06361Y07783D01*
X06363Y07782D01*
X06366Y0778D01*
X0637Y07779D01*
X06374Y07778D01*
X06378Y07778D01*
X06407D01*
Y0774D01*
X06362D01*
X0636Y0774D01*
X06359D01*
X06356Y07741D01*
X06353Y07741D01*
X0635Y07742D01*
X06347Y07742D01*
X06343Y07743D01*
X0634Y07745D01*
X06336Y07746D01*
X06332Y07748D01*
X06328Y0775D01*
X06325Y07753D01*
X06321Y07756D01*
X06318Y07759D01*
X06317Y07759D01*
X06317Y0776D01*
X06316Y07761D01*
X06315Y07762D01*
X06313Y07764D01*
X06312Y07767D01*
X0631Y07769D01*
X06309Y07772D01*
X06307Y07775D01*
X06305Y07779D01*
X06304Y07783D01*
X06303Y07787D01*
X06301Y07791D01*
X063Y07796D01*
X063Y078D01*
X063Y07805D01*
Y07806D01*
Y07806D01*
X063Y07808D01*
Y0781D01*
X063Y07812D01*
X06301Y07814D01*
X06301Y07817D01*
X06302Y07821D01*
X06303Y07824D01*
X06304Y07828D01*
X06306Y07831D01*
X06308Y07835D01*
X0631Y07839D01*
X06313Y07843D01*
X06315Y07846D01*
X06319Y0785D01*
X06319Y0785D01*
X0632Y07851D01*
X06321Y07852D01*
X06322Y07853D01*
X06324Y07855D01*
X06326Y07856D01*
X06329Y07858D01*
X06331Y0786D01*
X06335Y07862D01*
X06338Y07863D01*
X06342Y07865D01*
X06345Y07866D01*
X06349Y07868D01*
X06354Y07868D01*
X06358Y07869D01*
X06363Y07869D01*
X06407D01*
Y07832D01*
D02*
G37*
G36*
X06235Y0774D02*
X06191D01*
Y07907D01*
X06235D01*
Y0774D01*
D02*
G37*
G36*
X05872Y07832D02*
X05853D01*
X05851Y07831D01*
X05849Y07831D01*
X05847Y0783D01*
X05845Y07829D01*
X05842Y07827D01*
X0584Y07825D01*
X0584Y07825D01*
X05839Y07824D01*
X05838Y07823D01*
X05837Y07821D01*
X05836Y07819D01*
X05835Y07816D01*
X05834Y07813D01*
X05834Y0781D01*
Y0774D01*
X0579D01*
Y07821D01*
Y07821D01*
Y07822D01*
Y07823D01*
X0579Y07824D01*
X0579Y07826D01*
X05791Y07828D01*
X05791Y0783D01*
X05792Y07833D01*
X05793Y07838D01*
X05795Y07844D01*
X05797Y07847D01*
X05799Y0785D01*
X05801Y07852D01*
X05803Y07855D01*
X05803Y07855D01*
X05803Y07856D01*
X05804Y07857D01*
X05805Y07857D01*
X05806Y07858D01*
X05808Y0786D01*
X0581Y07861D01*
X05812Y07862D01*
X05816Y07865D01*
X05822Y07867D01*
X05825Y07868D01*
X05827Y07869D01*
X05831Y07869D01*
X05834Y07869D01*
X05872D01*
Y07832D01*
D02*
G37*
G36*
X06123Y07869D02*
X06125D01*
X06127Y07869D01*
X06129Y07868D01*
X06132Y07868D01*
X06135Y07867D01*
X06139Y07866D01*
X06142Y07865D01*
X06146Y07863D01*
X06149Y07861D01*
X06153Y07859D01*
X06157Y07857D01*
X0616Y07854D01*
X06164Y0785D01*
X06164Y0785D01*
X06165Y07849D01*
X06165Y07848D01*
X06167Y07847D01*
X06168Y07845D01*
X0617Y07843D01*
X06171Y0784D01*
X06173Y07837D01*
X06175Y07834D01*
X06176Y0783D01*
X06178Y07826D01*
X06179Y07822D01*
X06181Y07818D01*
X06181Y07813D01*
X06182Y07808D01*
X06182Y07803D01*
Y07803D01*
Y07802D01*
Y07801D01*
X06182Y07799D01*
X06182Y07797D01*
X06181Y07794D01*
X06181Y07791D01*
X0618Y07788D01*
X06179Y07784D01*
X06178Y07781D01*
X06176Y07777D01*
X06174Y07773D01*
X06172Y07769D01*
X0617Y07766D01*
X06167Y07762D01*
X06164Y07758D01*
X06164Y07758D01*
X06163Y07758D01*
X06162Y07757D01*
X06161Y07756D01*
X06159Y07754D01*
X06157Y07753D01*
X06154Y07751D01*
X06151Y07749D01*
X06148Y07748D01*
X06145Y07746D01*
X06141Y07744D01*
X06137Y07743D01*
X06133Y07742D01*
X06129Y07741D01*
X06124Y0774D01*
X06119Y0774D01*
X06091D01*
Y07778D01*
X06105D01*
X06106Y07778D01*
X06108Y07778D01*
X06111Y07779D01*
X06115Y0778D01*
X06118Y07781D01*
X06122Y07783D01*
X06125Y07785D01*
X06125Y07785D01*
X06126Y07786D01*
X06128Y07788D01*
X06129Y0779D01*
X06131Y07792D01*
X06132Y07796D01*
X06133Y07799D01*
X06134Y07803D01*
Y07804D01*
Y07804D01*
X06133Y07805D01*
X06133Y07807D01*
X06133Y0781D01*
X06132Y07813D01*
X0613Y07816D01*
X06128Y07819D01*
X06125Y07822D01*
X06125Y07823D01*
X06124Y07824D01*
X06122Y07825D01*
X06119Y07827D01*
X06116Y07829D01*
X06113Y0783D01*
X06109Y07831D01*
X06104Y07832D01*
X06081D01*
Y07702D01*
X06037D01*
Y07869D01*
X06121D01*
X06123Y07869D01*
D02*
G37*
G36*
X06561Y0774D02*
X06517D01*
Y07832D01*
X0649D01*
X06488Y07831D01*
X06485Y07831D01*
X06482Y0783D01*
X06479Y07828D01*
X06475Y07827D01*
X06472Y07824D01*
X06472Y07824D01*
X06471Y07823D01*
X0647Y07821D01*
X06468Y07819D01*
X06467Y07816D01*
X06465Y07813D01*
X06465Y07809D01*
X06464Y07805D01*
Y07805D01*
Y07804D01*
X06465Y07803D01*
X06465Y07801D01*
X06465Y07798D01*
X06466Y07795D01*
X06468Y07792D01*
X0647Y07788D01*
X06472Y07785D01*
X06473Y07785D01*
X06474Y07784D01*
X06476Y07783D01*
X06478Y07782D01*
X06481Y0778D01*
X06484Y07779D01*
X06488Y07778D01*
X06493Y07778D01*
X06507D01*
Y0774D01*
X06478D01*
X06477Y0774D01*
X06475D01*
X06473Y07741D01*
X0647Y07741D01*
X06468Y07742D01*
X06465Y07743D01*
X06461Y07744D01*
X06457Y07745D01*
X06454Y07747D01*
X0645Y07748D01*
X06446Y07751D01*
X06442Y07753D01*
X06439Y07757D01*
X06435Y0776D01*
X06435Y0776D01*
X06434Y07761D01*
X06433Y07762D01*
X06432Y07764D01*
X06431Y07766D01*
X06429Y07768D01*
X06427Y0777D01*
X06426Y07773D01*
X06424Y07777D01*
X06422Y0778D01*
X0642Y07784D01*
X06419Y07788D01*
X06418Y07792D01*
X06417Y07796D01*
X06416Y07801D01*
X06416Y07805D01*
Y07806D01*
Y07806D01*
X06416Y07808D01*
Y0781D01*
X06417Y07812D01*
X06417Y07814D01*
X06418Y07817D01*
X06418Y0782D01*
X06419Y07824D01*
X0642Y07827D01*
X06422Y07831D01*
X06424Y07835D01*
X06426Y07839D01*
X06428Y07843D01*
X06431Y07846D01*
X06434Y0785D01*
X06434Y0785D01*
X06435Y07851D01*
X06436Y07852D01*
X06437Y07853D01*
X06439Y07854D01*
X06441Y07856D01*
X06444Y07858D01*
X06447Y0786D01*
X0645Y07861D01*
X06453Y07863D01*
X06457Y07865D01*
X06461Y07866D01*
X06465Y07868D01*
X06469Y07868D01*
X06474Y07869D01*
X06479Y07869D01*
X06561D01*
Y0774D01*
D02*
G37*
G36*
X06892Y07878D02*
X06847D01*
Y0775D01*
X06816D01*
Y07878D01*
X0677D01*
Y07904D01*
X06892D01*
Y07878D01*
D02*
G37*
G36*
X07026D02*
X06943D01*
Y07844D01*
X0702D01*
Y07818D01*
X06943D01*
Y07776D01*
X07029D01*
Y0775D01*
X06912D01*
Y07904D01*
X07026D01*
Y07878D01*
D02*
G37*
G36*
X06291Y0787D02*
X06247D01*
Y07907D01*
X06291D01*
Y0787D01*
D02*
G37*
G36*
X06683Y0774D02*
X06637D01*
Y07907D01*
X06683D01*
Y0774D01*
D02*
G37*
G36*
X06024Y07831D02*
X05995Y07789D01*
X05945D01*
X05976Y07832D01*
X05951D01*
X05949Y07831D01*
X05946Y07831D01*
X05943Y0783D01*
X05939Y07828D01*
X05936Y07827D01*
X05933Y07824D01*
X05933Y07824D01*
X05932Y07823D01*
X0593Y07821D01*
X05929Y07819D01*
X05928Y07816D01*
X05926Y07813D01*
X05925Y0781D01*
X05925Y07806D01*
Y07805D01*
Y07805D01*
Y07804D01*
X05925Y07804D01*
X05926Y07801D01*
X05926Y07798D01*
X05927Y07795D01*
X05928Y07792D01*
X05931Y07789D01*
X05933Y07785D01*
X05934Y07785D01*
X05935Y07784D01*
X05936Y07783D01*
X05939Y07782D01*
X05942Y0778D01*
X05945Y07779D01*
X05949Y07778D01*
X05953Y07778D01*
X06024D01*
Y0774D01*
X05948D01*
X05947Y0774D01*
X05944D01*
X05942Y0774D01*
X05939Y07741D01*
X05936Y07741D01*
X05932Y07742D01*
X05928Y07743D01*
X05924Y07744D01*
X0592Y07745D01*
X05916Y07747D01*
X05911Y07749D01*
X05907Y07751D01*
X05903Y07754D01*
X05899Y07757D01*
X05899Y07757D01*
X05898Y07758D01*
X05897Y07759D01*
X05896Y07761D01*
X05894Y07762D01*
X05892Y07764D01*
X0589Y07767D01*
X05888Y0777D01*
X05886Y07773D01*
X05884Y07777D01*
X05882Y07781D01*
X0588Y07785D01*
X05879Y0779D01*
X05878Y07795D01*
X05877Y078D01*
X05877Y07805D01*
Y07805D01*
Y07806D01*
X05877Y07808D01*
X05877Y07809D01*
X05877Y07812D01*
X05878Y07814D01*
X05878Y07817D01*
X05879Y0782D01*
X0588Y07823D01*
X05882Y07827D01*
X05884Y07831D01*
X05886Y07835D01*
X05888Y07838D01*
X05891Y07842D01*
X05895Y07846D01*
X05899Y0785D01*
X05899Y0785D01*
X05899Y07851D01*
X05901Y07852D01*
X05902Y07853D01*
X05904Y07854D01*
X05907Y07856D01*
X0591Y07858D01*
X05913Y0786D01*
X05917Y07861D01*
X05921Y07863D01*
X05925Y07865D01*
X05929Y07866D01*
X05934Y07868D01*
X05939Y07868D01*
X05944Y07869D01*
X0595Y07869D01*
X06024D01*
Y07831D01*
D02*
G37*
D11*
X0459Y07D02*
G03*
X04314Y07I-00138J00024D01*
G01*
X06225Y0605D02*
G03*
X06275Y0605I00025J0D01*
G01*
X0245Y071D02*
G03*
X0245Y071I-002J0D01*
G01*
X0755Y03425D02*
G03*
X0755Y03475I0J00025D01*
G01*
X0725Y03625D02*
G03*
X0725Y03575I0J-00025D01*
G01*
X0485Y03625D02*
G03*
X0485Y03575I0J-00025D01*
G01*
X05625Y0605D02*
G03*
X05675Y0605I00025J0D01*
G01*
X08725D02*
G03*
X08775Y0605I00025J0D01*
G01*
X08075D02*
G03*
X08125Y0605I00025J0D01*
G01*
X03675D02*
G03*
X03725Y0605I00025J0D01*
G01*
X04425D02*
G03*
X04475Y0605I00025J0D01*
G01*
X05025D02*
G03*
X05075Y0605I00025J0D01*
G01*
X06825D02*
G03*
X06875Y0605I00025J0D01*
G01*
X03602Y07248D02*
G03*
X03602Y07248I-00102J0D01*
G01*
X02775Y0605D02*
G03*
X02825Y0605I00025J0D01*
G01*
X04314Y07D02*
X0459D01*
X0752Y0797D02*
X0916D01*
Y0755D02*
Y0797D01*
X0846Y0755D02*
X0916D01*
X0846Y0747D02*
Y0755D01*
X0822Y0747D02*
X0846D01*
X0822D02*
Y0755D01*
X0752D02*
X0822D01*
X0752D02*
Y0797D01*
X06185Y0525D02*
Y0605D01*
Y0525D02*
X06315D01*
Y0605D01*
X06275D02*
X06315D01*
X06185D02*
X06225D01*
X0755Y03385D02*
X0835D01*
Y03515D01*
X0755D02*
X0835D01*
X0755Y03475D02*
Y03515D01*
Y03385D02*
Y03425D01*
X0912Y0434D02*
X0936D01*
Y0636D01*
X0912Y0434D02*
Y0636D01*
X0936D01*
X0525Y03815D02*
X0725D01*
X0525Y03385D02*
Y03815D01*
Y03385D02*
X0725D01*
Y03575D01*
Y03625D02*
Y03815D01*
X056Y0456D02*
Y0474D01*
X055D02*
X056D01*
X055Y0456D02*
Y0474D01*
Y0456D02*
X056D01*
X0502Y048D02*
X0544D01*
Y0444D02*
Y048D01*
X0502Y0444D02*
X0544D01*
X0502D02*
Y048D01*
X0285Y03815D02*
X0485D01*
X0285Y03385D02*
Y03815D01*
Y03385D02*
X0485D01*
Y03575D01*
Y03625D02*
Y03815D01*
X05585Y0535D02*
Y0605D01*
Y0535D02*
X05715D01*
Y0605D01*
X05675D02*
X05715D01*
X05585D02*
X05625D01*
X08685Y0565D02*
Y0605D01*
Y0565D02*
X08815D01*
Y0605D01*
X08775D02*
X08815D01*
X08685D02*
X08725D01*
X07885Y0405D02*
Y0605D01*
Y0405D02*
X08315D01*
Y0605D01*
X08125D02*
X08315D01*
X07885D02*
X08075D01*
X0254Y0335D02*
X026Y0341D01*
X021D02*
Y0415D01*
X026Y0341D02*
Y0409D01*
X021Y0415D02*
X0254D01*
X026Y0409D01*
X021Y0341D02*
X0216Y0335D01*
X0254D01*
X0881Y0478D02*
Y0522D01*
X0867D02*
X0881D01*
X0867Y0478D02*
X0881D01*
X0867D02*
Y0522D01*
X03485Y0465D02*
Y0605D01*
Y0465D02*
X03915D01*
Y0605D01*
X03725D02*
X03915D01*
X03485D02*
X03675D01*
X086Y0631D02*
Y0649D01*
X085D02*
X086D01*
X085Y0631D02*
Y0649D01*
Y0631D02*
X086D01*
X0802Y066D02*
X0844D01*
Y0624D02*
Y066D01*
X0802Y0624D02*
X0844D01*
X0802D02*
Y066D01*
X055Y076D02*
Y08D01*
X049D02*
X055D01*
X049Y076D02*
X055D01*
X049D02*
Y08D01*
X04385Y0525D02*
Y0605D01*
Y0525D02*
X04515D01*
Y0605D01*
X04475D02*
X04515D01*
X04385D02*
X04425D01*
X04985Y0535D02*
Y0605D01*
Y0535D02*
X05115D01*
Y0605D01*
X05075D02*
X05115D01*
X04985D02*
X05025D01*
X0323Y0743D02*
Y08D01*
X0287Y0743D02*
Y08D01*
Y0743D02*
X0323D01*
X0287Y08D02*
X0323D01*
X06785Y0505D02*
Y0605D01*
Y0505D02*
X06915D01*
Y0605D01*
X06875D02*
X06915D01*
X06785D02*
X06825D01*
X02585D02*
X02775D01*
X02825D02*
X03015D01*
Y0465D02*
Y0605D01*
X02585Y0465D02*
X03015D01*
X02585D02*
Y0605D01*
X0237Y0748D02*
X0247D01*
X0263Y0692D02*
Y0748D01*
X0247Y0692D02*
Y0748D01*
X0255Y0692D02*
X0263D01*
X0247D02*
X0255D01*
X0273Y0748D02*
Y08D01*
X0237D02*
X0273D01*
X0237Y0748D02*
Y08D01*
X0263Y0748D02*
X0273D01*
X0972Y036D02*
X1008D01*
X0972D02*
Y0728D01*
X1008D01*
Y036D02*
Y0728D01*
X0916Y0303D02*
Y0351D01*
X0874D02*
X0916D01*
X0874Y0303D02*
Y0351D01*
Y03025D02*
X0916D01*
X04382Y06626D02*
X04399D01*
X0439D01*
Y06676D01*
X04382Y06668D01*
X04424D02*
X04432Y06676D01*
X04449D01*
X04457Y06668D01*
Y06634D01*
X04449Y06626D01*
X04432D01*
X04424Y06634D01*
Y06668D01*
X04474Y06676D02*
Y06626D01*
Y06643D01*
X04507Y06676D01*
X04482Y06651D01*
X04507Y06626D01*
X0407Y0663D02*
Y0668D01*
X04095D01*
X04103Y06672D01*
Y06655D01*
X04095Y06647D01*
X0407D01*
X04087D02*
X04103Y0663D01*
X04153D02*
X0412D01*
X04153Y06663D01*
Y06672D01*
X04145Y0668D01*
X04128D01*
X0412Y06672D01*
X04203Y0668D02*
X0417D01*
Y06655D01*
X04187Y06663D01*
X04195D01*
X04203Y06655D01*
Y06638D01*
X04195Y0663D01*
X04178D01*
X0417Y06638D01*
X04382Y06526D02*
X04399D01*
X0439D01*
Y06576D01*
X04382Y06568D01*
X04424D02*
X04432Y06576D01*
X04449D01*
X04457Y06568D01*
Y06534D01*
X04449Y06526D01*
X04432D01*
X04424Y06534D01*
Y06568D01*
X04474Y06576D02*
Y06526D01*
Y06543D01*
X04507Y06576D01*
X04482Y06551D01*
X04507Y06526D01*
X04073Y06531D02*
Y06581D01*
X04098D01*
X04106Y06573D01*
Y06556D01*
X04098Y06548D01*
X04073D01*
X0409D02*
X04106Y06531D01*
X04156D02*
X04123D01*
X04156Y06564D01*
Y06573D01*
X04148Y06581D01*
X04131D01*
X04123Y06573D01*
X04198Y06531D02*
Y06581D01*
X04173Y06556D01*
X04206D01*
X04321Y0717D02*
Y07204D01*
X04313Y07212D01*
X04296D01*
X04288Y07204D01*
Y0717D01*
X04296Y07162D01*
X04313D01*
X04305Y07179D02*
X04321Y07162D01*
X04313D02*
X04321Y0717D01*
X04338Y07162D02*
X04355D01*
X04346D01*
Y07212D01*
X04338Y07204D01*
X044Y0677D02*
Y06778D01*
X04408D01*
Y0677D01*
X044D01*
X04442Y06812D02*
X0445Y0682D01*
X04467D01*
X04475Y06812D01*
Y06778D01*
X04467Y0677D01*
X0445D01*
X04442Y06778D01*
Y06812D01*
X04492Y0677D02*
X04508D01*
X045D01*
Y0682D01*
X04492Y06812D01*
X04339Y06926D02*
X04331Y06934D01*
X04314D01*
X04306Y06926D01*
Y06892D01*
X04314Y06884D01*
X04331D01*
X04339Y06892D01*
X04356Y06884D02*
X04373D01*
X04364D01*
Y06934D01*
X04356Y06926D01*
X04398D02*
X04406Y06934D01*
X04423D01*
X04431Y06926D01*
Y06917D01*
X04423Y06909D01*
X04414D01*
X04423D01*
X04431Y06901D01*
Y06892D01*
X04423Y06884D01*
X04406D01*
X04398Y06892D01*
X0872Y0475D02*
X0868D01*
Y0472D01*
X087Y0473D01*
X0871D01*
X0872Y0472D01*
Y047D01*
X0871Y0469D01*
X0869D01*
X0868Y047D01*
X0874Y0469D02*
Y0475D01*
X0876Y0473D01*
X0878Y0475D01*
Y0469D01*
X088Y0475D02*
Y0469D01*
Y0472D01*
X0884D01*
Y0475D01*
Y0469D01*
X0886Y0473D02*
X089D01*
X0886Y0469D01*
X089D01*
X08675Y05315D02*
X08715Y05255D01*
Y05315D02*
X08675Y05255D01*
X08775D02*
X08735D01*
X08775Y05295D01*
Y05305D01*
X08765Y05315D01*
X08745D01*
X08735Y05305D01*
X0223Y0325D02*
X0225D01*
X0224D01*
Y0331D01*
X0223Y033D01*
X0228Y0325D02*
Y0331D01*
X023Y0329D01*
X0232Y0331D01*
Y0325D01*
X0234Y0331D02*
Y0325D01*
Y0328D01*
X0238D01*
Y0331D01*
Y0325D01*
X024Y0329D02*
X0244D01*
X024Y0325D01*
X0244D01*
X02105Y04245D02*
X02145Y04185D01*
Y04245D02*
X02105Y04185D01*
X02165D02*
X02185D01*
X02175D01*
Y04245D01*
X02165Y04235D01*
X0518Y0757D02*
Y0753D01*
X052Y0751D01*
X0522Y0753D01*
Y0757D01*
X0524D02*
X0526D01*
X0525D01*
Y0751D01*
X0524D01*
X0526D01*
X0529Y0757D02*
Y0751D01*
X0532D01*
X0533Y0752D01*
Y0756D01*
X0532Y0757D01*
X0529D01*
X0539D02*
X0535D01*
Y0751D01*
X0539D01*
X0535Y0754D02*
X0537D01*
X0544Y0757D02*
X0542D01*
X0541Y0756D01*
Y0752D01*
X0542Y0751D01*
X0544D01*
X0545Y0752D01*
Y0756D01*
X0544Y0757D01*
X0608Y0516D02*
Y0522D01*
X061Y052D01*
X0612Y0522D01*
Y0516D01*
X0614D02*
Y052D01*
X0616Y0522D01*
X0618Y052D01*
Y0516D01*
Y0519D01*
X0614D01*
X062Y0522D02*
X0624Y0516D01*
Y0522D02*
X062Y0516D01*
X063D02*
X0626D01*
X063Y052D01*
Y0521D01*
X0629Y0522D01*
X0627D01*
X0626Y0521D01*
X0632D02*
X0633Y0522D01*
X0635D01*
X0636Y0521D01*
Y052D01*
X0635Y0519D01*
X0634D01*
X0635D01*
X0636Y0518D01*
Y0517D01*
X0635Y0516D01*
X0633D01*
X0632Y0517D01*
X0642Y0516D02*
X0638D01*
X0642Y052D01*
Y0521D01*
X0641Y0522D01*
X0639D01*
X0638Y0521D01*
X0604Y0615D02*
Y061D01*
X0605Y0609D01*
X0607D01*
X0608Y061D01*
Y0615D01*
X061Y0609D02*
X0612D01*
X0611D01*
Y0615D01*
X061Y0614D01*
X0615Y0609D02*
X0617D01*
X0616D01*
Y0615D01*
X0615Y0614D01*
X0854Y0559D02*
X085D01*
X0854Y0563D01*
Y0564D01*
X0853Y0565D01*
X0851D01*
X085Y0564D01*
X0859Y0559D02*
Y0565D01*
X0856Y0562D01*
X086D01*
X0862Y0565D02*
Y0559D01*
X0866D01*
X0872Y0564D02*
X0871Y0565D01*
X0869D01*
X0868Y0564D01*
Y056D01*
X0869Y0559D01*
X0871D01*
X0872Y056D01*
X0878Y0559D02*
X0874D01*
X0878Y0563D01*
Y0564D01*
X0877Y0565D01*
X0875D01*
X0874Y0564D01*
X0884Y0565D02*
X088D01*
Y0562D01*
X0882Y0563D01*
X0883D01*
X0884Y0562D01*
Y056D01*
X0883Y0559D01*
X0881D01*
X088Y056D01*
X089Y0565D02*
X0888Y0564D01*
X0886Y0562D01*
Y056D01*
X0887Y0559D01*
X0889D01*
X089Y056D01*
Y0561D01*
X0889Y0562D01*
X0886D01*
X08581Y06145D02*
Y06095D01*
X08591Y06085D01*
X08611D01*
X08621Y06095D01*
Y06145D01*
X08641Y06095D02*
X08651Y06085D01*
X08671D01*
X08681Y06095D01*
Y06135D01*
X08671Y06145D01*
X08651D01*
X08641Y06135D01*
Y06125D01*
X08651Y06115D01*
X08681D01*
X07842Y03907D02*
Y03967D01*
X07872D01*
X07882Y03957D01*
Y03937D01*
X07872Y03927D01*
X07842D01*
X07902Y03957D02*
X07912Y03967D01*
X07932D01*
X07942Y03957D01*
Y03947D01*
X07932Y03937D01*
X07942Y03927D01*
Y03917D01*
X07932Y03907D01*
X07912D01*
X07902Y03917D01*
Y03927D01*
X07912Y03937D01*
X07902Y03947D01*
Y03957D01*
X07912Y03937D02*
X07932D01*
X07962Y03967D02*
X08002Y03907D01*
Y03967D02*
X07962Y03907D01*
X08022Y03957D02*
X08032Y03967D01*
X08052D01*
X08062Y03957D01*
Y03947D01*
X08052Y03937D01*
X08042D01*
X08052D01*
X08062Y03927D01*
Y03917D01*
X08052Y03907D01*
X08032D01*
X08022Y03917D01*
X08122Y03907D02*
X08082D01*
X08122Y03947D01*
Y03957D01*
X08112Y03967D01*
X08092D01*
X08082Y03957D01*
X08142Y03907D02*
Y03947D01*
X08162Y03967D01*
X08182Y03947D01*
Y03907D01*
Y03937D01*
X08142D01*
X08202D02*
X08242D01*
X08262Y03967D02*
Y03907D01*
X08292D01*
X08302Y03917D01*
Y03957D01*
X08292Y03967D01*
X08262D01*
X08352Y03907D02*
Y03967D01*
X08322Y03937D01*
X08362D01*
X08382Y03957D02*
X08392Y03967D01*
X08412D01*
X08422Y03957D01*
Y03917D01*
X08412Y03907D01*
X08392D01*
X08382Y03917D01*
Y03957D01*
X07756Y06145D02*
Y06095D01*
X07766Y06085D01*
X07786D01*
X07796Y06095D01*
Y06145D01*
X07816Y06135D02*
X07826Y06145D01*
X07846D01*
X07856Y06135D01*
Y06125D01*
X07846Y06115D01*
X07856Y06105D01*
Y06095D01*
X07846Y06085D01*
X07826D01*
X07816Y06095D01*
Y06105D01*
X07826Y06115D01*
X07816Y06125D01*
Y06135D01*
X07826Y06115D02*
X07846D01*
X0548Y05315D02*
X0552D01*
Y05305D01*
X0548Y05265D01*
Y05255D01*
X0557D02*
Y05315D01*
X0554Y05285D01*
X0558D01*
X056Y05315D02*
Y05255D01*
X0564D01*
X057Y05305D02*
X0569Y05315D01*
X0567D01*
X0566Y05305D01*
Y05295D01*
X0567Y05285D01*
X0569D01*
X057Y05275D01*
Y05265D01*
X0569Y05255D01*
X0567D01*
X0566Y05265D01*
X0572Y05305D02*
X0573Y05315D01*
X0575D01*
X0576Y05305D01*
Y05265D01*
X0575Y05255D01*
X0573D01*
X0572Y05265D01*
Y05305D01*
X0581Y05255D02*
Y05315D01*
X0578Y05285D01*
X0582D01*
X05456Y06145D02*
Y06095D01*
X05466Y06085D01*
X05486D01*
X05496Y06095D01*
Y06145D01*
X05516D02*
X05556D01*
Y06135D01*
X05516Y06095D01*
Y06085D01*
X04256Y05215D02*
X04296D01*
Y05205D01*
X04256Y05165D01*
Y05155D01*
X04346D02*
Y05215D01*
X04316Y05185D01*
X04356D01*
X04376Y05215D02*
Y05155D01*
X04416D01*
X04476Y05205D02*
X04466Y05215D01*
X04446D01*
X04436Y05205D01*
Y05195D01*
X04446Y05185D01*
X04466D01*
X04476Y05175D01*
Y05165D01*
X04466Y05155D01*
X04446D01*
X04436Y05165D01*
X04496Y05155D02*
X04516D01*
X04506D01*
Y05215D01*
X04496Y05205D01*
X04546D02*
X04556Y05215D01*
X04576D01*
X04586Y05205D01*
Y05195D01*
X04576Y05185D01*
X04566D01*
X04576D01*
X04586Y05175D01*
Y05165D01*
X04576Y05155D01*
X04556D01*
X04546Y05165D01*
X04606Y05205D02*
X04616Y05215D01*
X04636D01*
X04646Y05205D01*
Y05195D01*
X04636Y05185D01*
X04646Y05175D01*
Y05165D01*
X04636Y05155D01*
X04616D01*
X04606Y05165D01*
Y05175D01*
X04616Y05185D01*
X04606Y05195D01*
Y05205D01*
X04616Y05185D02*
X04636D01*
X04256Y06145D02*
Y06095D01*
X04266Y06085D01*
X04286D01*
X04296Y06095D01*
Y06145D01*
X04356D02*
X04316D01*
Y06115D01*
X04336Y06125D01*
X04346D01*
X04356Y06115D01*
Y06095D01*
X04346Y06085D01*
X04326D01*
X04316Y06095D01*
X04881Y05289D02*
X04921D01*
Y05279D01*
X04881Y05239D01*
Y05229D01*
X04971D02*
Y05289D01*
X04941Y05259D01*
X04981D01*
X05001Y05289D02*
Y05229D01*
X05041D01*
X05101Y05279D02*
X05091Y05289D01*
X05071D01*
X05061Y05279D01*
Y05269D01*
X05071Y05259D01*
X05091D01*
X05101Y05249D01*
Y05239D01*
X05091Y05229D01*
X05071D01*
X05061Y05239D01*
X05121Y05279D02*
X05131Y05289D01*
X05151D01*
X05161Y05279D01*
Y05239D01*
X05151Y05229D01*
X05131D01*
X05121Y05239D01*
Y05279D01*
X05181D02*
X05191Y05289D01*
X05211D01*
X05221Y05279D01*
Y05239D01*
X05211Y05229D01*
X05191D01*
X05181Y05239D01*
Y05279D01*
X04856Y06145D02*
Y06095D01*
X04866Y06085D01*
X04886D01*
X04896Y06095D01*
Y06145D01*
X04956D02*
X04936Y06135D01*
X04916Y06115D01*
Y06095D01*
X04926Y06085D01*
X04946D01*
X04956Y06095D01*
Y06105D01*
X04946Y06115D01*
X04916D01*
X03569Y0463D02*
X03549Y0462D01*
X03529Y046D01*
Y0458D01*
X03539Y0457D01*
X03559D01*
X03569Y0458D01*
Y0459D01*
X03559Y046D01*
X03529D01*
X03629Y0457D02*
X03589D01*
X03629Y0461D01*
Y0462D01*
X03619Y0463D01*
X03599D01*
X03589Y0462D01*
X03689Y0457D02*
X03649D01*
X03689Y0461D01*
Y0462D01*
X03679Y0463D01*
X03659D01*
X03649Y0462D01*
X03749Y0463D02*
X03709D01*
Y046D01*
X03729Y0461D01*
X03739D01*
X03749Y046D01*
Y0458D01*
X03739Y0457D01*
X03719D01*
X03709Y0458D01*
X03809Y0463D02*
X03789Y0462D01*
X03769Y046D01*
Y0458D01*
X03779Y0457D01*
X03799D01*
X03809Y0458D01*
Y0459D01*
X03799Y046D01*
X03769D01*
X03356Y06145D02*
Y06095D01*
X03366Y06085D01*
X03386D01*
X03396Y06095D01*
Y06145D01*
X03446Y06085D02*
Y06145D01*
X03416Y06115D01*
X03456D01*
X0532Y0322D02*
X053Y0321D01*
X0528Y0319D01*
Y0317D01*
X0529Y0316D01*
X0531D01*
X0532Y0317D01*
Y0318D01*
X0531Y0319D01*
X0528D01*
X0534Y0321D02*
X0535Y0322D01*
X0537D01*
X0538Y0321D01*
Y032D01*
X0537Y0319D01*
X0538Y0318D01*
Y0317D01*
X0537Y0316D01*
X0535D01*
X0534Y0317D01*
Y0318D01*
X0535Y0319D01*
X0534Y032D01*
Y0321D01*
X0535Y0319D02*
X0537D01*
X0544Y0316D02*
X054D01*
X0544Y032D01*
Y0321D01*
X0543Y0322D01*
X0541D01*
X054Y0321D01*
X0546Y0316D02*
X0548D01*
X0547D01*
Y0322D01*
X0546Y0321D01*
X05255Y04044D02*
Y03994D01*
X05265Y03984D01*
X05285D01*
X05295Y03994D01*
Y04044D01*
X05355Y03984D02*
X05315D01*
X05355Y04024D01*
Y04034D01*
X05345Y04044D01*
X05325D01*
X05315Y04034D01*
X0292Y0322D02*
X029Y0321D01*
X0288Y0319D01*
Y0317D01*
X0289Y0316D01*
X0291D01*
X0292Y0317D01*
Y0318D01*
X0291Y0319D01*
X0288D01*
X0298Y0322D02*
X0294D01*
Y0319D01*
X0296Y032D01*
X0297D01*
X0298Y0319D01*
Y0317D01*
X0297Y0316D01*
X0295D01*
X0294Y0317D01*
X03Y0321D02*
X0301Y0322D01*
X0303D01*
X0304Y0321D01*
Y0317D01*
X0303Y0316D01*
X0301D01*
X03Y0317D01*
Y0321D01*
X031Y0316D02*
X0306D01*
X031Y032D01*
Y0321D01*
X0309Y0322D01*
X0307D01*
X0306Y0321D01*
X02855Y04044D02*
Y03994D01*
X02865Y03984D01*
X02885D01*
X02895Y03994D01*
Y04044D01*
X02915Y03984D02*
X02935D01*
X02925D01*
Y04044D01*
X02915Y04034D01*
X03924Y07367D02*
Y07427D01*
X03954D01*
X03964Y07417D01*
Y07397D01*
X03954Y07387D01*
X03924D01*
X03944D02*
X03964Y07367D01*
X04024Y07417D02*
X04014Y07427D01*
X03994D01*
X03984Y07417D01*
Y07407D01*
X03994Y07397D01*
X04014D01*
X04024Y07387D01*
Y07377D01*
X04014Y07367D01*
X03994D01*
X03984Y07377D01*
X04044Y07397D02*
X04084D01*
X04144Y07367D02*
X04104D01*
X04144Y07407D01*
Y07417D01*
X04134Y07427D01*
X04114D01*
X04104Y07417D01*
X04164D02*
X04174Y07427D01*
X04194D01*
X04204Y07417D01*
Y07407D01*
X04194Y07397D01*
X04184D01*
X04194D01*
X04204Y07387D01*
Y07377D01*
X04194Y07367D01*
X04174D01*
X04164Y07377D01*
X04264Y07367D02*
X04224D01*
X04264Y07407D01*
Y07417D01*
X04254Y07427D01*
X04234D01*
X04224Y07417D01*
X051Y0484D02*
Y049D01*
X0513D01*
X0514Y0489D01*
Y0487D01*
X0513Y0486D01*
X051D01*
X0512D02*
X0514Y0484D01*
X052Y049D02*
X0516D01*
Y0484D01*
X052D01*
X0516Y0487D02*
X0518D01*
X0526Y0489D02*
X0525Y049D01*
X0523D01*
X0522Y0489D01*
Y0488D01*
X0523Y0487D01*
X0525D01*
X0526Y0486D01*
Y0485D01*
X0525Y0484D01*
X0523D01*
X0522Y0485D01*
X0532Y049D02*
X0528D01*
Y0484D01*
X0532D01*
X0528Y0487D02*
X053D01*
X0534Y049D02*
X0538D01*
X0536D01*
Y0484D01*
X07423Y04325D02*
X0739D01*
Y043D01*
X07407Y04308D01*
X07415D01*
X07423Y043D01*
Y04283D01*
X07415Y04275D01*
X07398D01*
X0739Y04283D01*
X07473Y04325D02*
X07457Y04317D01*
X0744Y043D01*
Y04283D01*
X07448Y04275D01*
X07465D01*
X07473Y04283D01*
Y04292D01*
X07465Y043D01*
X0744D01*
X0749Y04317D02*
X07498Y04325D01*
X07515D01*
X07523Y04317D01*
Y04283D01*
X07515Y04275D01*
X07498D01*
X0749Y04283D01*
Y04317D01*
X0707Y0428D02*
Y0433D01*
X07095D01*
X07103Y04322D01*
Y04305D01*
X07095Y04297D01*
X0707D01*
X07087D02*
X07103Y0428D01*
X07153D02*
X0712D01*
X07153Y04313D01*
Y04322D01*
X07145Y0433D01*
X07128D01*
X0712Y04322D01*
X0717D02*
X07178Y0433D01*
X07195D01*
X07203Y04322D01*
Y04313D01*
X07195Y04305D01*
X07187D01*
X07195D01*
X07203Y04297D01*
Y04288D01*
X07195Y0428D01*
X07178D01*
X0717Y04288D01*
X04423Y06425D02*
X0439D01*
X04423Y06458D01*
Y06467D01*
X04415Y06475D01*
X04398D01*
X0439Y06467D01*
X04473Y06425D02*
X0444D01*
X04473Y06458D01*
Y06467D01*
X04465Y06475D01*
X04448D01*
X0444Y06467D01*
X0449D02*
X04498Y06475D01*
X04515D01*
X04523Y06467D01*
Y06433D01*
X04515Y06425D01*
X04498D01*
X0449Y06433D01*
Y06467D01*
X04075Y0643D02*
Y0648D01*
X041D01*
X04108Y06472D01*
Y06455D01*
X041Y06447D01*
X04075D01*
X04092D02*
X04108Y0643D01*
X04158D02*
X04125D01*
X04158Y06463D01*
Y06472D01*
X0415Y0648D01*
X04133D01*
X04125Y06472D01*
X04208Y0643D02*
X04175D01*
X04208Y06463D01*
Y06472D01*
X042Y0648D01*
X04183D01*
X04175Y06472D01*
X07428Y04175D02*
X07395D01*
X07428Y04208D01*
Y04217D01*
X0742Y04225D01*
X07403D01*
X07395Y04217D01*
X07478Y04175D02*
X07445D01*
X07478Y04208D01*
Y04217D01*
X0747Y04225D01*
X07453D01*
X07445Y04217D01*
X07495D02*
X07503Y04225D01*
X0752D01*
X07528Y04217D01*
Y04183D01*
X0752Y04175D01*
X07503D01*
X07495Y04183D01*
Y04217D01*
X0707Y0418D02*
Y0423D01*
X07095D01*
X07103Y04222D01*
Y04205D01*
X07095Y04197D01*
X0707D01*
X07087D02*
X07103Y0418D01*
X07153D02*
X0712D01*
X07153Y04213D01*
Y04222D01*
X07145Y0423D01*
X07128D01*
X0712Y04222D01*
X0717Y0418D02*
X07187D01*
X07178D01*
Y0423D01*
X0717Y04222D01*
X08835Y04075D02*
X08852D01*
X08843D01*
Y04125D01*
X08835Y04117D01*
X08877D02*
X08885Y04125D01*
X08902D01*
X0891Y04117D01*
Y04083D01*
X08902Y04075D01*
X08885D01*
X08877Y04083D01*
Y04117D01*
X08927D02*
X08935Y04125D01*
X08952D01*
X0896Y04117D01*
Y04083D01*
X08952Y04075D01*
X08935D01*
X08927Y04083D01*
Y04117D01*
X0851Y0407D02*
Y0412D01*
X08535D01*
X08543Y04112D01*
Y04095D01*
X08535Y04087D01*
X0851D01*
X08527D02*
X08543Y0407D01*
X08593D02*
X0856D01*
X08593Y04103D01*
Y04112D01*
X08585Y0412D01*
X08568D01*
X0856Y04112D01*
X0861D02*
X08618Y0412D01*
X08635D01*
X08643Y04112D01*
Y04078D01*
X08635Y0407D01*
X08618D01*
X0861Y04078D01*
Y04112D01*
X08835Y03975D02*
X08852D01*
X08843D01*
Y04025D01*
X08835Y04017D01*
X08877D02*
X08885Y04025D01*
X08902D01*
X0891Y04017D01*
Y03983D01*
X08902Y03975D01*
X08885D01*
X08877Y03983D01*
Y04017D01*
X08927D02*
X08935Y04025D01*
X08952D01*
X0896Y04017D01*
Y03983D01*
X08952Y03975D01*
X08935D01*
X08927Y03983D01*
Y04017D01*
X0851Y0398D02*
Y0403D01*
X08535D01*
X08543Y04022D01*
Y04005D01*
X08535Y03997D01*
X0851D01*
X08527D02*
X08543Y0398D01*
X0856D02*
X08577D01*
X08568D01*
Y0403D01*
X0856Y04022D01*
X08602Y03988D02*
X0861Y0398D01*
X08627D01*
X08635Y03988D01*
Y04022D01*
X08627Y0403D01*
X0861D01*
X08602Y04022D01*
Y04013D01*
X0861Y04005D01*
X08635D01*
X08265Y06125D02*
X08282D01*
X08273D01*
Y06175D01*
X08265Y06167D01*
X08307Y06175D02*
Y06125D01*
Y06142D01*
X0834Y06175D01*
X08315Y0615D01*
X0834Y06125D01*
X07925D02*
Y06175D01*
X0795D01*
X07958Y06167D01*
Y0615D01*
X0795Y06142D01*
X07925D01*
X07942D02*
X07958Y06125D01*
X07975D02*
X07992D01*
X07983D01*
Y06175D01*
X07975Y06167D01*
X08017D02*
X08025Y06175D01*
X08042D01*
X0805Y06167D01*
Y06158D01*
X08042Y0615D01*
X0805Y06142D01*
Y06133D01*
X08042Y06125D01*
X08025D01*
X08017Y06133D01*
Y06142D01*
X08025Y0615D01*
X08017Y06158D01*
Y06167D01*
X08025Y0615D02*
X08042D01*
X0742Y04375D02*
X07437D01*
X07428D01*
Y04425D01*
X0742Y04417D01*
X07462Y04425D02*
Y04375D01*
Y04392D01*
X07495Y04425D01*
X0747Y044D01*
X07495Y04375D01*
X0707Y0438D02*
Y0443D01*
X07095D01*
X07103Y04422D01*
Y04405D01*
X07095Y04397D01*
X0707D01*
X07087D02*
X07103Y0438D01*
X0712D02*
X07137D01*
X07128D01*
Y0443D01*
X0712Y04422D01*
X07162Y0443D02*
X07195D01*
Y04422D01*
X07162Y04388D01*
Y0438D01*
X0742Y05275D02*
X07437D01*
X07428D01*
Y05325D01*
X0742Y05317D01*
X07462Y05325D02*
Y05275D01*
Y05292D01*
X07495Y05325D01*
X0747Y053D01*
X07495Y05275D01*
X07075Y0528D02*
Y0533D01*
X071D01*
X07108Y05322D01*
Y05305D01*
X071Y05297D01*
X07075D01*
X07092D02*
X07108Y0528D01*
X07125D02*
X07142D01*
X07133D01*
Y0533D01*
X07125Y05322D01*
X072Y0533D02*
X07183Y05322D01*
X07167Y05305D01*
Y05288D01*
X07175Y0528D01*
X07192D01*
X072Y05288D01*
Y05297D01*
X07192Y05305D01*
X07167D01*
X07415Y05375D02*
X07432D01*
X07423D01*
Y05425D01*
X07415Y05417D01*
X07457Y05425D02*
Y05375D01*
Y05392D01*
X0749Y05425D01*
X07465Y054D01*
X0749Y05375D01*
X07075D02*
Y05425D01*
X071D01*
X07108Y05417D01*
Y054D01*
X071Y05392D01*
X07075D01*
X07092D02*
X07108Y05375D01*
X07125D02*
X07142D01*
X07133D01*
Y05425D01*
X07125Y05417D01*
X072Y05425D02*
X07167D01*
Y054D01*
X07183Y05408D01*
X07192D01*
X072Y054D01*
Y05383D01*
X07192Y05375D01*
X07175D01*
X07167Y05383D01*
X07415Y05475D02*
X07432D01*
X07423D01*
Y05525D01*
X07415Y05517D01*
X07457Y05525D02*
Y05475D01*
Y05492D01*
X0749Y05525D01*
X07465Y055D01*
X0749Y05475D01*
X07075D02*
Y05525D01*
X071D01*
X07108Y05517D01*
Y055D01*
X071Y05492D01*
X07075D01*
X07092D02*
X07108Y05475D01*
X07125D02*
X07142D01*
X07133D01*
Y05525D01*
X07125Y05517D01*
X07192Y05475D02*
Y05525D01*
X07167Y055D01*
X072D01*
X0741Y05575D02*
X07427D01*
X07418D01*
Y05625D01*
X0741Y05617D01*
X07452Y05625D02*
Y05575D01*
Y05592D01*
X07485Y05625D01*
X0746Y056D01*
X07485Y05575D01*
X07075Y0558D02*
Y0563D01*
X071D01*
X07108Y05622D01*
Y05605D01*
X071Y05597D01*
X07075D01*
X07092D02*
X07108Y0558D01*
X07125D02*
X07142D01*
X07133D01*
Y0563D01*
X07125Y05622D01*
X07167D02*
X07175Y0563D01*
X07192D01*
X072Y05622D01*
Y05613D01*
X07192Y05605D01*
X07183D01*
X07192D01*
X072Y05597D01*
Y05588D01*
X07192Y0558D01*
X07175D01*
X07167Y05588D01*
X0741Y05675D02*
X07427D01*
X07418D01*
Y05725D01*
X0741Y05717D01*
X07452Y05725D02*
Y05675D01*
Y05692D01*
X07485Y05725D01*
X0746Y057D01*
X07485Y05675D01*
X07075Y05685D02*
Y05735D01*
X071D01*
X07108Y05727D01*
Y0571D01*
X071Y05702D01*
X07075D01*
X07092D02*
X07108Y05685D01*
X07125D02*
X07142D01*
X07133D01*
Y05735D01*
X07125Y05727D01*
X072Y05685D02*
X07167D01*
X072Y05718D01*
Y05727D01*
X07192Y05735D01*
X07175D01*
X07167Y05727D01*
X07415Y05775D02*
X07432D01*
X07423D01*
Y05825D01*
X07415Y05817D01*
X07457Y05825D02*
Y05775D01*
Y05792D01*
X0749Y05825D01*
X07465Y058D01*
X0749Y05775D01*
X07075Y05785D02*
Y05835D01*
X071D01*
X07108Y05827D01*
Y0581D01*
X071Y05802D01*
X07075D01*
X07092D02*
X07108Y05785D01*
X07125D02*
X07142D01*
X07133D01*
Y05835D01*
X07125Y05827D01*
X07167Y05785D02*
X07183D01*
X07175D01*
Y05835D01*
X07167Y05827D01*
X07411Y05879D02*
X07428D01*
X07419D01*
Y05929D01*
X07411Y05921D01*
X07453Y05929D02*
Y05879D01*
Y05896D01*
X07486Y05929D01*
X07461Y05904D01*
X07486Y05879D01*
X07073D02*
Y05929D01*
X07098D01*
X07106Y05921D01*
Y05904D01*
X07098Y05896D01*
X07073D01*
X0709D02*
X07106Y05879D01*
X07123D02*
X0714D01*
X07131D01*
Y05929D01*
X07123Y05921D01*
X07165D02*
X07173Y05929D01*
X0719D01*
X07198Y05921D01*
Y05887D01*
X0719Y05879D01*
X07173D01*
X07165Y05887D01*
Y05921D01*
X07415Y05975D02*
X07432D01*
X07423D01*
Y06025D01*
X07415Y06017D01*
X07457Y06025D02*
Y05975D01*
Y05992D01*
X0749Y06025D01*
X07465Y06D01*
X0749Y05975D01*
X07073Y05974D02*
Y06024D01*
X07098D01*
X07106Y06016D01*
Y05999D01*
X07098Y05991D01*
X07073D01*
X0709D02*
X07106Y05974D01*
X07123Y05982D02*
X07131Y05974D01*
X07148D01*
X07156Y05982D01*
Y06016D01*
X07148Y06024D01*
X07131D01*
X07123Y06016D01*
Y06007D01*
X07131Y05999D01*
X07156D01*
X08805Y03917D02*
X08813Y03925D01*
X0883D01*
X08838Y03917D01*
Y03908D01*
X0883Y039D01*
X08822D01*
X0883D01*
X08838Y03892D01*
Y03883D01*
X0883Y03875D01*
X08813D01*
X08805Y03883D01*
X08855Y03875D02*
Y03883D01*
X08863D01*
Y03875D01*
X08855D01*
X08897Y03917D02*
X08905Y03925D01*
X08922D01*
X0893Y03917D01*
Y03908D01*
X08922Y039D01*
X08913D01*
X08922D01*
X0893Y03892D01*
Y03883D01*
X08922Y03875D01*
X08905D01*
X08897Y03883D01*
X08947Y03925D02*
Y03875D01*
Y03892D01*
X0898Y03925D01*
X08955Y039D01*
X0898Y03875D01*
X0851Y03881D02*
Y03931D01*
X08535D01*
X08543Y03923D01*
Y03906D01*
X08535Y03898D01*
X0851D01*
X08527D02*
X08543Y03881D01*
X0856Y03923D02*
X08568Y03931D01*
X08585D01*
X08593Y03923D01*
Y03914D01*
X08585Y03906D01*
X08593Y03898D01*
Y03889D01*
X08585Y03881D01*
X08568D01*
X0856Y03889D01*
Y03898D01*
X08568Y03906D01*
X0856Y03914D01*
Y03923D01*
X08568Y03906D02*
X08585D01*
X08805Y03817D02*
X08813Y03825D01*
X0883D01*
X08838Y03817D01*
Y03808D01*
X0883Y038D01*
X08822D01*
X0883D01*
X08838Y03792D01*
Y03783D01*
X0883Y03775D01*
X08813D01*
X08805Y03783D01*
X08855Y03775D02*
Y03783D01*
X08863D01*
Y03775D01*
X08855D01*
X08897Y03817D02*
X08905Y03825D01*
X08922D01*
X0893Y03817D01*
Y03808D01*
X08922Y038D01*
X08913D01*
X08922D01*
X0893Y03792D01*
Y03783D01*
X08922Y03775D01*
X08905D01*
X08897Y03783D01*
X08947Y03825D02*
Y03775D01*
Y03792D01*
X0898Y03825D01*
X08955Y038D01*
X0898Y03775D01*
X0851Y03777D02*
Y03827D01*
X08535D01*
X08543Y03819D01*
Y03802D01*
X08535Y03794D01*
X0851D01*
X08527D02*
X08543Y03777D01*
X0856Y03827D02*
X08593D01*
Y03819D01*
X0856Y03785D01*
Y03777D01*
X08922Y06551D02*
X0893Y06559D01*
X08947D01*
X08955Y06551D01*
Y06543D01*
X08947Y06534D01*
X08938D01*
X08947D01*
X08955Y06526D01*
Y06518D01*
X08947Y06509D01*
X0893D01*
X08922Y06518D01*
X08972Y06509D02*
Y06518D01*
X0898D01*
Y06509D01*
X08972D01*
X09013Y06551D02*
X09022Y06559D01*
X09038D01*
X09047Y06551D01*
Y06543D01*
X09038Y06534D01*
X0903D01*
X09038D01*
X09047Y06526D01*
Y06518D01*
X09038Y06509D01*
X09022D01*
X09013Y06518D01*
X09063Y06559D02*
Y06509D01*
Y06526D01*
X09097Y06559D01*
X09072Y06534D01*
X09097Y06509D01*
X08675Y06505D02*
Y06555D01*
X087D01*
X08708Y06547D01*
Y0653D01*
X087Y06522D01*
X08675D01*
X08692D02*
X08708Y06505D01*
X08758Y06555D02*
X08742Y06547D01*
X08725Y0653D01*
Y06513D01*
X08733Y06505D01*
X0875D01*
X08758Y06513D01*
Y06522D01*
X0875Y0653D01*
X08725D01*
X07755Y03747D02*
X07763Y03755D01*
X0778D01*
X07788Y03747D01*
Y03738D01*
X0778Y0373D01*
X07772D01*
X0778D01*
X07788Y03722D01*
Y03713D01*
X0778Y03705D01*
X07763D01*
X07755Y03713D01*
X07805Y03705D02*
Y03713D01*
X07813D01*
Y03705D01*
X07805D01*
X07847Y03747D02*
X07855Y03755D01*
X07872D01*
X0788Y03747D01*
Y03738D01*
X07872Y0373D01*
X07863D01*
X07872D01*
X0788Y03722D01*
Y03713D01*
X07872Y03705D01*
X07855D01*
X07847Y03713D01*
X07897Y03755D02*
Y03705D01*
Y03722D01*
X0793Y03755D01*
X07905Y0373D01*
X0793Y03705D01*
X0751Y0371D02*
Y0376D01*
X07535D01*
X07543Y03752D01*
Y03735D01*
X07535Y03727D01*
X0751D01*
X07527D02*
X07543Y0371D01*
X07593Y0376D02*
X0756D01*
Y03735D01*
X07577Y03743D01*
X07585D01*
X07593Y03735D01*
Y03718D01*
X07585Y0371D01*
X07568D01*
X0756Y03718D01*
X04514Y03171D02*
X04522Y03179D01*
X04539D01*
X04547Y03171D01*
Y03162D01*
X04539Y03154D01*
X04531D01*
X04539D01*
X04547Y03146D01*
Y03137D01*
X04539Y03129D01*
X04522D01*
X04514Y03137D01*
X04564Y03129D02*
Y03137D01*
X04572D01*
Y03129D01*
X04564D01*
X04606Y03171D02*
X04614Y03179D01*
X04631D01*
X04639Y03171D01*
Y03162D01*
X04631Y03154D01*
X04622D01*
X04631D01*
X04639Y03146D01*
Y03137D01*
X04631Y03129D01*
X04614D01*
X04606Y03137D01*
X04656Y03179D02*
Y03129D01*
Y03146D01*
X04689Y03179D01*
X04664Y03154D01*
X04689Y03129D01*
X0427Y0312D02*
Y0317D01*
X04295D01*
X04303Y03162D01*
Y03145D01*
X04295Y03137D01*
X0427D01*
X04287D02*
X04303Y0312D01*
X04345D02*
Y0317D01*
X0432Y03145D01*
X04353D01*
X0441Y04116D02*
X04418Y04124D01*
X04435D01*
X04443Y04116D01*
Y04107D01*
X04435Y04099D01*
X04427D01*
X04435D01*
X04443Y04091D01*
Y04082D01*
X04435Y04074D01*
X04418D01*
X0441Y04082D01*
X0446Y04074D02*
Y04082D01*
X04468D01*
Y04074D01*
X0446D01*
X04502Y04116D02*
X0451Y04124D01*
X04527D01*
X04535Y04116D01*
Y04107D01*
X04527Y04099D01*
X04518D01*
X04527D01*
X04535Y04091D01*
Y04082D01*
X04527Y04074D01*
X0451D01*
X04502Y04082D01*
X04552Y04124D02*
Y04074D01*
Y04091D01*
X04585Y04124D01*
X0456Y04099D01*
X04585Y04074D01*
X04175Y04075D02*
Y04125D01*
X042D01*
X04208Y04117D01*
Y041D01*
X042Y04092D01*
X04175D01*
X04192D02*
X04208Y04075D01*
X04225Y04117D02*
X04233Y04125D01*
X0425D01*
X04258Y04117D01*
Y04108D01*
X0425Y041D01*
X04242D01*
X0425D01*
X04258Y04092D01*
Y04083D01*
X0425Y04075D01*
X04233D01*
X04225Y04083D01*
X0441Y04217D02*
X04418Y04225D01*
X04435D01*
X04443Y04217D01*
Y04208D01*
X04435Y042D01*
X04427D01*
X04435D01*
X04443Y04192D01*
Y04183D01*
X04435Y04175D01*
X04418D01*
X0441Y04183D01*
X0446Y04175D02*
Y04183D01*
X04468D01*
Y04175D01*
X0446D01*
X04502Y04217D02*
X0451Y04225D01*
X04527D01*
X04535Y04217D01*
Y04208D01*
X04527Y042D01*
X04518D01*
X04527D01*
X04535Y04192D01*
Y04183D01*
X04527Y04175D01*
X0451D01*
X04502Y04183D01*
X04552Y04225D02*
Y04175D01*
Y04192D01*
X04585Y04225D01*
X0456Y042D01*
X04585Y04175D01*
X04175D02*
Y04225D01*
X042D01*
X04208Y04217D01*
Y042D01*
X042Y04192D01*
X04175D01*
X04192D02*
X04208Y04175D01*
X04258D02*
X04225D01*
X04258Y04208D01*
Y04217D01*
X0425Y04225D01*
X04233D01*
X04225Y04217D01*
X04405Y04317D02*
X04413Y04325D01*
X0443D01*
X04438Y04317D01*
Y04308D01*
X0443Y043D01*
X04422D01*
X0443D01*
X04438Y04292D01*
Y04283D01*
X0443Y04275D01*
X04413D01*
X04405Y04283D01*
X04455Y04275D02*
Y04283D01*
X04463D01*
Y04275D01*
X04455D01*
X04497Y04317D02*
X04505Y04325D01*
X04522D01*
X0453Y04317D01*
Y04308D01*
X04522Y043D01*
X04513D01*
X04522D01*
X0453Y04292D01*
Y04283D01*
X04522Y04275D01*
X04505D01*
X04497Y04283D01*
X04547Y04325D02*
Y04275D01*
Y04292D01*
X0458Y04325D01*
X04555Y043D01*
X0458Y04275D01*
X04175D02*
Y04325D01*
X042D01*
X04208Y04317D01*
Y043D01*
X042Y04292D01*
X04175D01*
X04192D02*
X04208Y04275D01*
X04225D02*
X04242D01*
X04233D01*
Y04325D01*
X04225Y04317D01*
X0336Y0706D02*
Y0712D01*
X0339D01*
X034Y0711D01*
Y0709D01*
X0339Y0708D01*
X0336D01*
X0345Y0712D02*
X0343D01*
X0342Y0711D01*
Y0707D01*
X0343Y0706D01*
X0345D01*
X0346Y0707D01*
Y0711D01*
X0345Y0712D01*
X0348D02*
Y0706D01*
X035Y0708D01*
X0352Y0706D01*
Y0712D01*
X0358D02*
X0354D01*
Y0706D01*
X0358D01*
X0354Y0709D02*
X0356D01*
X036Y0706D02*
Y0712D01*
X0363D01*
X0364Y0711D01*
Y0709D01*
X0363Y0708D01*
X036D01*
X0362D02*
X0364Y0706D01*
X0813Y0669D02*
X0812Y067D01*
X081D01*
X0809Y0669D01*
Y0665D01*
X081Y0664D01*
X0812D01*
X0813Y0665D01*
X0815Y067D02*
Y0664D01*
X0819D01*
X0825Y067D02*
X0821D01*
Y0664D01*
X0825D01*
X0821Y0667D02*
X0823D01*
X0827Y0664D02*
Y0668D01*
X0829Y067D01*
X0831Y0668D01*
Y0664D01*
Y0667D01*
X0827D01*
X0833Y0664D02*
Y067D01*
X0836D01*
X0837Y0669D01*
Y0667D01*
X0836Y0666D01*
X0833D01*
X0835D02*
X0837Y0664D01*
X055Y0412D02*
Y04128D01*
X05508D01*
Y0412D01*
X055D01*
X05542Y04162D02*
X0555Y0417D01*
X05567D01*
X05575Y04162D01*
Y04128D01*
X05567Y0412D01*
X0555D01*
X05542Y04128D01*
Y04162D01*
X05592Y0412D02*
X05608D01*
X056D01*
Y0417D01*
X05592Y04162D01*
X05576Y04276D02*
X05568Y04284D01*
X05551D01*
X05543Y04276D01*
Y04242D01*
X05551Y04234D01*
X05568D01*
X05576Y04242D01*
X05593Y04234D02*
X0561D01*
X05601D01*
Y04284D01*
X05593Y04276D01*
X05668Y04234D02*
X05635D01*
X05668Y04267D01*
Y04276D01*
X0566Y04284D01*
X05643D01*
X05635Y04276D01*
X06468Y06636D02*
X0646Y06644D01*
X06443D01*
X06435Y06636D01*
Y06602D01*
X06443Y06594D01*
X0646D01*
X06468Y06602D01*
X06518Y06594D02*
X06485D01*
X06518Y06627D01*
Y06636D01*
X0651Y06644D01*
X06493D01*
X06485Y06636D01*
X06535D02*
X06543Y06644D01*
X0656D01*
X06568Y06636D01*
Y06602D01*
X0656Y06594D01*
X06543D01*
X06535Y06602D01*
Y06636D01*
X06168D02*
X0616Y06644D01*
X06143D01*
X06135Y06636D01*
Y06602D01*
X06143Y06594D01*
X0616D01*
X06168Y06602D01*
X06185Y06594D02*
X06202D01*
X06193D01*
Y06644D01*
X06185Y06636D01*
X06227Y06602D02*
X06235Y06594D01*
X06252D01*
X0626Y06602D01*
Y06636D01*
X06252Y06644D01*
X06235D01*
X06227Y06636D01*
Y06627D01*
X06235Y06619D01*
X0626D01*
X05868Y06636D02*
X0586Y06644D01*
X05843D01*
X05835Y06636D01*
Y06602D01*
X05843Y06594D01*
X0586D01*
X05868Y06602D01*
X05885Y06594D02*
X05902D01*
X05893D01*
Y06644D01*
X05885Y06636D01*
X05927D02*
X05935Y06644D01*
X05952D01*
X0596Y06636D01*
Y06627D01*
X05952Y06619D01*
X0596Y06611D01*
Y06602D01*
X05952Y06594D01*
X05935D01*
X05927Y06602D01*
Y06611D01*
X05935Y06619D01*
X05927Y06627D01*
Y06636D01*
X05935Y06619D02*
X05952D01*
X05568Y06636D02*
X0556Y06644D01*
X05543D01*
X05535Y06636D01*
Y06602D01*
X05543Y06594D01*
X0556D01*
X05568Y06602D01*
X05585Y06594D02*
X05602D01*
X05593D01*
Y06644D01*
X05585Y06636D01*
X05627Y06644D02*
X0566D01*
Y06636D01*
X05627Y06602D01*
Y06594D01*
X05268Y06636D02*
X0526Y06644D01*
X05243D01*
X05235Y06636D01*
Y06602D01*
X05243Y06594D01*
X0526D01*
X05268Y06602D01*
X05285Y06594D02*
X05302D01*
X05293D01*
Y06644D01*
X05285Y06636D01*
X0536Y06644D02*
X05343Y06636D01*
X05327Y06619D01*
Y06602D01*
X05335Y06594D01*
X05352D01*
X0536Y06602D01*
Y06611D01*
X05352Y06619D01*
X05327D01*
X03768Y07187D02*
X0376Y07195D01*
X03743D01*
X03735Y07187D01*
Y07153D01*
X03743Y07145D01*
X0376D01*
X03768Y07153D01*
X03785Y07145D02*
X03802D01*
X03793D01*
Y07195D01*
X03785Y07187D01*
X0386Y07195D02*
X03827D01*
Y0717D01*
X03843Y07178D01*
X03852D01*
X0386Y0717D01*
Y07153D01*
X03852Y07145D01*
X03835D01*
X03827Y07153D01*
X04018Y07186D02*
X0401Y07194D01*
X03993D01*
X03985Y07186D01*
Y07152D01*
X03993Y07144D01*
X0401D01*
X04018Y07152D01*
X04035Y07144D02*
X04052D01*
X04043D01*
Y07194D01*
X04035Y07186D01*
X04102Y07144D02*
Y07194D01*
X04077Y07169D01*
X0411D01*
X02088Y07377D02*
X0208Y07385D01*
X02063D01*
X02055Y07377D01*
Y07343D01*
X02063Y07335D01*
X0208D01*
X02088Y07343D01*
X02138Y07335D02*
X02105D01*
X02138Y07368D01*
Y07377D01*
X0213Y07385D01*
X02113D01*
X02105Y07377D01*
X02155Y07335D02*
X02172D01*
X02163D01*
Y07385D01*
X02155Y07377D01*
X06889Y06276D02*
X06881Y06284D01*
X06864D01*
X06856Y06276D01*
Y06242D01*
X06864Y06234D01*
X06881D01*
X06889Y06242D01*
X06906Y06234D02*
X06923D01*
X06914D01*
Y06284D01*
X06906Y06276D01*
X06948D02*
X06956Y06284D01*
X06973D01*
X06981Y06276D01*
Y06242D01*
X06973Y06234D01*
X06956D01*
X06948Y06242D01*
Y06276D01*
X08739D02*
X08731Y06284D01*
X08714D01*
X08706Y06276D01*
Y06242D01*
X08714Y06234D01*
X08731D01*
X08739Y06242D01*
X08756D02*
X08764Y06234D01*
X08781D01*
X08789Y06242D01*
Y06276D01*
X08781Y06284D01*
X08764D01*
X08756Y06276D01*
Y06267D01*
X08764Y06259D01*
X08789D01*
X07436Y05016D02*
X07428Y05024D01*
X07411D01*
X07403Y05016D01*
Y04982D01*
X07411Y04974D01*
X07428D01*
X07436Y04982D01*
X07453Y05016D02*
X07461Y05024D01*
X07478D01*
X07486Y05016D01*
Y05007D01*
X07478Y04999D01*
X07486Y04991D01*
Y04982D01*
X07478Y04974D01*
X07461D01*
X07453Y04982D01*
Y04991D01*
X07461Y04999D01*
X07453Y05007D01*
Y05016D01*
X07461Y04999D02*
X07478D01*
X05639Y06276D02*
X05631Y06284D01*
X05614D01*
X05606Y06276D01*
Y06242D01*
X05614Y06234D01*
X05631D01*
X05639Y06242D01*
X05656Y06284D02*
X05689D01*
Y06276D01*
X05656Y06242D01*
Y06234D01*
X05039Y06276D02*
X05031Y06284D01*
X05014D01*
X05006Y06276D01*
Y06242D01*
X05014Y06234D01*
X05031D01*
X05039Y06242D01*
X05089Y06284D02*
X05073Y06276D01*
X05056Y06259D01*
Y06242D01*
X05064Y06234D01*
X05081D01*
X05089Y06242D01*
Y06251D01*
X05081Y06259D01*
X05056D01*
X04439Y06276D02*
X04431Y06284D01*
X04414D01*
X04406Y06276D01*
Y06242D01*
X04414Y06234D01*
X04431D01*
X04439Y06242D01*
X04489Y06284D02*
X04456D01*
Y06259D01*
X04473Y06267D01*
X04481D01*
X04489Y06259D01*
Y06242D01*
X04481Y06234D01*
X04464D01*
X04456Y06242D01*
X03789Y06276D02*
X03781Y06284D01*
X03764D01*
X03756Y06276D01*
Y06242D01*
X03764Y06234D01*
X03781D01*
X03789Y06242D01*
X03831Y06234D02*
Y06284D01*
X03806Y06259D01*
X03839D01*
X02889Y06276D02*
X02881Y06284D01*
X02864D01*
X02856Y06276D01*
Y06242D01*
X02864Y06234D01*
X02881D01*
X02889Y06242D01*
X02906Y06276D02*
X02914Y06284D01*
X02931D01*
X02939Y06276D01*
Y06267D01*
X02931Y06259D01*
X02923D01*
X02931D01*
X02939Y06251D01*
Y06242D01*
X02931Y06234D01*
X02914D01*
X02906Y06242D01*
X05089Y04276D02*
X05081Y04284D01*
X05064D01*
X05056Y04276D01*
Y04242D01*
X05064Y04234D01*
X05081D01*
X05089Y04242D01*
X05139Y04234D02*
X05106D01*
X05139Y04267D01*
Y04276D01*
X05131Y04284D01*
X05114D01*
X05106Y04276D01*
X03889Y04226D02*
X03881Y04234D01*
X03864D01*
X03856Y04226D01*
Y04192D01*
X03864Y04184D01*
X03881D01*
X03889Y04192D01*
X03906Y04184D02*
X03923D01*
X03914D01*
Y04234D01*
X03906Y04226D01*
X07725Y07475D02*
Y07515D01*
X07745Y07535D01*
X07765Y07515D01*
Y07475D01*
Y07505D01*
X07725D01*
X07785Y07535D02*
X07825D01*
X07805D01*
Y07475D01*
X07845Y07535D02*
X07885Y07475D01*
Y07535D02*
X07845Y07475D01*
X0755Y0312D02*
Y0316D01*
X0757Y0318D01*
X0759Y0316D01*
Y0312D01*
Y0315D01*
X0755D01*
X0765Y0317D02*
X0764Y0318D01*
X0762D01*
X0761Y0317D01*
Y0316D01*
X0762Y0315D01*
X0764D01*
X0765Y0314D01*
Y0313D01*
X0764Y0312D01*
X0762D01*
X0761Y0313D01*
X0771Y0317D02*
X077Y0318D01*
X0768D01*
X0767Y0317D01*
Y0313D01*
X0768Y0312D01*
X077D01*
X0771Y0313D01*
X0773Y0318D02*
X0775D01*
X0774D01*
Y0312D01*
X0773D01*
X0775D01*
X0778Y0318D02*
X078D01*
X0779D01*
Y0312D01*
X0778D01*
X078D01*
X0789Y0318D02*
Y0312D01*
Y0314D01*
X0793Y0318D01*
X079Y0315D01*
X0793Y0312D01*
X0799Y0318D02*
X0795D01*
Y0312D01*
X0799D01*
X0795Y0315D02*
X0797D01*
X0801Y0318D02*
Y0317D01*
X0803Y0315D01*
X0805Y0317D01*
Y0318D01*
X0803Y0315D02*
Y0312D01*
X0807Y0318D02*
Y0312D01*
X081D01*
X0811Y0313D01*
Y0314D01*
X081Y0315D01*
X0807D01*
X081D01*
X0811Y0316D01*
Y0317D01*
X081Y0318D01*
X0807D01*
X0816D02*
X0814D01*
X0813Y0317D01*
Y0313D01*
X0814Y0312D01*
X0816D01*
X0817Y0313D01*
Y0317D01*
X0816Y0318D01*
X0819Y0312D02*
Y0316D01*
X0821Y0318D01*
X0823Y0316D01*
Y0312D01*
Y0315D01*
X0819D01*
X0825Y0312D02*
Y0318D01*
X0828D01*
X0829Y0317D01*
Y0315D01*
X0828Y0314D01*
X0825D01*
X0827D02*
X0829Y0312D01*
X0831Y0318D02*
Y0312D01*
X0834D01*
X0835Y0313D01*
Y0317D01*
X0834Y0318D01*
X0831D01*
X0285Y0734D02*
X0289D01*
Y0733D01*
X0285Y0729D01*
Y0728D01*
X0291Y0731D02*
X0295D01*
X0297Y0729D02*
X0298Y0728D01*
X03D01*
X0301Y0729D01*
Y0733D01*
X03Y0734D01*
X0298D01*
X0297Y0733D01*
Y0732D01*
X0298Y0731D01*
X0301D01*
X0303Y0734D02*
Y073D01*
X0305Y0728D01*
X0307Y073D01*
Y0734D01*
X0315D02*
Y0728D01*
X0318D01*
X0319Y0729D01*
Y0733D01*
X0318Y0734D01*
X0315D01*
X0325Y0733D02*
X0324Y0734D01*
X0322D01*
X0321Y0733D01*
Y0729D01*
X0322Y0728D01*
X0324D01*
X0325Y0729D01*
X06656Y05015D02*
X06696D01*
Y05005D01*
X06656Y04965D01*
Y04955D01*
X06746D02*
Y05015D01*
X06716Y04985D01*
X06756D01*
X06776Y05015D02*
Y04955D01*
X06816D01*
X06876Y05005D02*
X06866Y05015D01*
X06846D01*
X06836Y05005D01*
Y04995D01*
X06846Y04985D01*
X06866D01*
X06876Y04975D01*
Y04965D01*
X06866Y04955D01*
X06846D01*
X06836Y04965D01*
X06936Y04955D02*
X06896D01*
X06936Y04995D01*
Y05005D01*
X06926Y05015D01*
X06906D01*
X06896Y05005D01*
X06986Y04955D02*
Y05015D01*
X06956Y04985D01*
X06996D01*
X07056Y05015D02*
X07016D01*
Y04985D01*
X07036Y04995D01*
X07046D01*
X07056Y04985D01*
Y04965D01*
X07046Y04955D01*
X07026D01*
X07016Y04965D01*
X06656Y06145D02*
Y06095D01*
X06666Y06085D01*
X06686D01*
X06696Y06095D01*
Y06145D01*
X06716Y06085D02*
X06736D01*
X06726D01*
Y06145D01*
X06716Y06135D01*
X06766D02*
X06776Y06145D01*
X06796D01*
X06806Y06135D01*
Y06095D01*
X06796Y06085D01*
X06776D01*
X06766Y06095D01*
Y06135D01*
X02296Y04434D02*
X02286Y04444D01*
X02266D01*
X02256Y04434D01*
Y04394D01*
X02266Y04384D01*
X02286D01*
X02296Y04394D01*
X02316Y04384D02*
X02336D01*
X02326D01*
Y04444D01*
X02316Y04434D01*
X02366Y04384D02*
X02386D01*
X02376D01*
Y04444D01*
X02366Y04434D01*
X02716Y04536D02*
X02676D01*
X02716Y04576D01*
Y04586D01*
X02706Y04596D01*
X02686D01*
X02676Y04586D01*
X02736Y04596D02*
X02776D01*
Y04586D01*
X02736Y04546D01*
Y04536D01*
X02836Y04586D02*
X02826Y04596D01*
X02806D01*
X02796Y04586D01*
Y04546D01*
X02806Y04536D01*
X02826D01*
X02836Y04546D01*
X02896Y04596D02*
X02876Y04586D01*
X02856Y04566D01*
Y04546D01*
X02866Y04536D01*
X02886D01*
X02896Y04546D01*
Y04556D01*
X02886Y04566D01*
X02856D01*
X02946Y04536D02*
Y04596D01*
X02916Y04566D01*
X02956D01*
X02456Y06145D02*
Y06095D01*
X02466Y06085D01*
X02486D01*
X02496Y06095D01*
Y06145D01*
X02516Y06135D02*
X02526Y06145D01*
X02546D01*
X02556Y06135D01*
Y06125D01*
X02546Y06115D01*
X02536D01*
X02546D01*
X02556Y06105D01*
Y06095D01*
X02546Y06085D01*
X02526D01*
X02516Y06095D01*
X058Y05D02*
Y0505D01*
X05825D01*
X05833Y05042D01*
Y05025D01*
X05825Y05017D01*
X058D01*
X05817D02*
X05833Y05D01*
X05883D02*
X0585D01*
X05883Y05033D01*
Y05042D01*
X05875Y0505D01*
X05858D01*
X0585Y05042D01*
X05933Y0505D02*
X05917Y05042D01*
X059Y05025D01*
Y05008D01*
X05908Y05D01*
X05925D01*
X05933Y05008D01*
Y05017D01*
X05925Y05025D01*
X059D01*
X0205Y0762D02*
X0203D01*
X0202Y0761D01*
Y0757D01*
X0203Y0756D01*
X0205D01*
X0206Y0757D01*
Y0761D01*
X0205Y0762D01*
X0208Y0756D02*
Y0762D01*
X0212Y0756D01*
Y0762D01*
X0214Y0756D02*
X0218Y076D01*
X0223Y0762D02*
X0221D01*
X022Y0761D01*
Y0757D01*
X0221Y0756D01*
X0223D01*
X0224Y0757D01*
Y0761D01*
X0223Y0762D01*
X023D02*
X0226D01*
Y0759D01*
X0228D01*
X0226D01*
Y0756D01*
X0236Y0762D02*
X0232D01*
Y0759D01*
X0234D01*
X0232D01*
Y0756D01*
X0224Y0685D02*
X0228D01*
Y0684D01*
X0224Y068D01*
Y0679D01*
X023Y0684D02*
X0231Y0685D01*
X0233D01*
X0234Y0684D01*
Y0683D01*
X0233Y0682D01*
X0234Y0681D01*
Y068D01*
X0233Y0679D01*
X0231D01*
X023Y068D01*
Y0681D01*
X0231Y0682D01*
X023Y0683D01*
Y0684D01*
X0231Y0682D02*
X0233D01*
X0236Y0684D02*
X0237Y0685D01*
X0239D01*
X024Y0684D01*
Y068D01*
X0239Y0679D01*
X0237D01*
X0236Y068D01*
Y0684D01*
X0246Y0685D02*
X0242D01*
Y0682D01*
X0244Y0683D01*
X0245D01*
X0246Y0682D01*
Y068D01*
X0245Y0679D01*
X0243D01*
X0242Y068D01*
X0343Y0685D02*
Y0679D01*
X0347D01*
X0349D02*
Y0685D01*
X0351Y0683D01*
X0353Y0685D01*
Y0679D01*
X0355Y0684D02*
X0356Y0685D01*
X0358D01*
X0359Y0684D01*
Y0683D01*
X0358Y0682D01*
X0357D01*
X0358D01*
X0359Y0681D01*
Y068D01*
X0358Y0679D01*
X0356D01*
X0355Y068D01*
X0361D02*
X0362Y0679D01*
X0364D01*
X0365Y068D01*
Y0684D01*
X0364Y0685D01*
X0362D01*
X0361Y0684D01*
Y0683D01*
X0362Y0682D01*
X0365D01*
X037Y0679D02*
Y0685D01*
X0367Y0682D01*
X0371D01*
X0373Y0684D02*
X0374Y0685D01*
X0376D01*
X0377Y0684D01*
Y068D01*
X0376Y0679D01*
X0374D01*
X0373Y068D01*
Y0684D01*
X0882Y0357D02*
Y0363D01*
X0885D01*
X0886Y0362D01*
Y036D01*
X0885Y0359D01*
X0882D01*
X0892Y0362D02*
X0891Y0363D01*
X0889D01*
X0888Y0362D01*
Y0361D01*
X0889Y036D01*
X0891D01*
X0892Y0359D01*
Y0358D01*
X0891Y0357D01*
X0889D01*
X0888Y0358D01*
X0894Y0357D02*
X0898Y0361D01*
X0904Y0357D02*
X09D01*
X0904Y0361D01*
Y0362D01*
X0903Y0363D01*
X0901D01*
X09Y0362D01*
X0213Y0719D02*
X0217D01*
X0215Y0721D02*
Y0717D01*
X0558Y07673D02*
Y07633D01*
X05593Y0762D01*
X05607Y07633D01*
X0562Y0762D01*
X05633Y07633D01*
Y07673D01*
X0566D02*
Y07633D01*
X05673Y0762D01*
X05687Y07633D01*
X057Y0762D01*
X05713Y07633D01*
Y07673D01*
X0574D02*
Y07633D01*
X05753Y0762D01*
X05767Y07633D01*
X0578Y0762D01*
X05793Y07633D01*
Y07673D01*
X0582Y0762D02*
Y07633D01*
X05833D01*
Y0762D01*
X0582D01*
X05887Y077D02*
Y0762D01*
X05927D01*
X0594Y07633D01*
Y07647D01*
Y0766D01*
X05927Y07673D01*
X05887D01*
X05967D02*
Y0762D01*
Y07647D01*
X0598Y0766D01*
X05993Y07673D01*
X06007D01*
X06047Y0762D02*
X06073D01*
X0606D01*
Y07673D01*
X06047D01*
X06153Y0762D02*
X06126D01*
X06113Y07633D01*
Y0766D01*
X06126Y07673D01*
X06153D01*
X06166Y0766D01*
Y07647D01*
X06113D01*
X06193Y0762D02*
X0622D01*
X06206D01*
Y077D01*
X06193D01*
X06313Y07673D02*
X06273D01*
X0626Y0766D01*
Y07633D01*
X06273Y0762D01*
X06313D01*
X06353D02*
X0638D01*
X06393Y07633D01*
Y0766D01*
X0638Y07673D01*
X06353D01*
X0634Y0766D01*
Y07633D01*
X06353Y0762D01*
X0642D02*
Y07673D01*
X06433D01*
X06446Y0766D01*
Y0762D01*
Y0766D01*
X0646Y07673D01*
X06473Y0766D01*
Y0762D01*
X065Y07593D02*
Y07673D01*
X0654D01*
X06553Y0766D01*
Y07633D01*
X0654Y0762D01*
X065D01*
X0658Y07673D02*
Y07633D01*
X06593Y0762D01*
X06633D01*
Y07673D01*
X06673Y07687D02*
Y07673D01*
X0666D01*
X06686D01*
X06673D01*
Y07633D01*
X06686Y0762D01*
X06766D02*
X0674D01*
X06726Y07633D01*
Y0766D01*
X0674Y07673D01*
X06766D01*
X0678Y0766D01*
Y07647D01*
X06726D01*
X06806Y07673D02*
Y0762D01*
Y07647D01*
X0682Y0766D01*
X06833Y07673D01*
X06846D01*
X06886Y0762D02*
X06926D01*
X0694Y07633D01*
X06926Y07647D01*
X069D01*
X06886Y0766D01*
X069Y07673D01*
X0694D01*
X06966Y0762D02*
Y07633D01*
X0698D01*
Y0762D01*
X06966D01*
X07086Y07673D02*
X07046D01*
X07033Y0766D01*
Y07633D01*
X07046Y0762D01*
X07086D01*
X07126D02*
X07153D01*
X07166Y07633D01*
Y0766D01*
X07153Y07673D01*
X07126D01*
X07113Y0766D01*
Y07633D01*
X07126Y0762D01*
X07193D02*
Y07673D01*
X07206D01*
X07219Y0766D01*
Y0762D01*
Y0766D01*
X07233Y07673D01*
X07246Y0766D01*
Y0762D01*
X096Y0724D02*
X0964D01*
Y0723D01*
X096Y0719D01*
Y0718D01*
X0964D01*
X1017Y0719D02*
X1013D01*
X1017Y0723D01*
Y0724D01*
X1016Y0725D01*
X1014D01*
X1013Y0724D01*
X1023Y0719D02*
X1019D01*
X1023Y0723D01*
Y0724D01*
X1022Y0725D01*
X102D01*
X1019Y0724D01*
X0932Y0642D02*
X0934D01*
X0933D01*
Y0648D01*
X0932Y0647D01*
X023Y0309D02*
Y0304D01*
X0231Y0303D01*
X0233D01*
X0234Y0304D01*
Y0309D01*
X0236Y0303D02*
Y0304D01*
X0237D01*
Y0303D01*
X0236D01*
X0245Y0308D02*
X0244Y0309D01*
X0242D01*
X0241Y0308D01*
Y0307D01*
X0242Y0306D01*
X0244D01*
X0245Y0305D01*
Y0304D01*
X0244Y0303D01*
X0242D01*
X0241Y0304D01*
X0247Y0303D02*
Y0304D01*
X0248D01*
Y0303D01*
X0247D01*
X0252D02*
Y0307D01*
X0254Y0309D01*
X0256Y0307D01*
Y0303D01*
Y0306D01*
X0252D01*
X0258Y0303D02*
Y0304D01*
X0259D01*
Y0303D01*
X0258D01*
X0588Y075D02*
Y0756D01*
X0591D01*
X0592Y0755D01*
Y0753D01*
X0591Y0752D01*
X0588D01*
X059D02*
X0592Y075D01*
X0597D02*
X0595D01*
X0594Y0751D01*
Y0753D01*
X0595Y0754D01*
X0597D01*
X0598Y0753D01*
Y0752D01*
X0594D01*
X06Y0754D02*
X0602Y075D01*
X0604Y0754D01*
X0606Y075D02*
X0608D01*
X0607D01*
Y0754D01*
X0606D01*
X0611Y075D02*
X0614D01*
X0615Y0751D01*
X0614Y0752D01*
X0612D01*
X0611Y0753D01*
X0612Y0754D01*
X0615D01*
X0617Y075D02*
X0619D01*
X0618D01*
Y0754D01*
X0617D01*
X0623Y075D02*
X0625D01*
X0626Y0751D01*
Y0753D01*
X0625Y0754D01*
X0623D01*
X0622Y0753D01*
Y0751D01*
X0623Y075D01*
X0628D02*
Y0754D01*
X0631D01*
X0632Y0753D01*
Y075D01*
X064Y0755D02*
X0641Y0756D01*
X0643D01*
X0644Y0755D01*
Y0754D01*
X0643Y0753D01*
X0642D01*
X0643D01*
X0644Y0752D01*
Y0751D01*
X0643Y075D01*
X0641D01*
X064Y0751D01*
X0674Y075D02*
X067D01*
X0674Y0754D01*
Y0755D01*
X0673Y0756D01*
X0671D01*
X067Y0755D01*
X0676D02*
X0677Y0756D01*
X0679D01*
X068Y0755D01*
Y0751D01*
X0679Y075D01*
X0677D01*
X0676Y0751D01*
Y0755D01*
X0682Y075D02*
X0684D01*
X0683D01*
Y0756D01*
X0682Y0755D01*
X0687D02*
X0688Y0756D01*
X069D01*
X0691Y0755D01*
Y0751D01*
X069Y075D01*
X0688D01*
X0687Y0751D01*
Y0755D01*
X0343Y0722D02*
X0347D01*
X0345Y0724D02*
Y072D01*
X1013Y0366D02*
X1015D01*
X1014D01*
Y0372D01*
X1013Y0371D01*
X0963Y0365D02*
Y0369D01*
X0965Y0371D01*
X0967Y0369D01*
Y0365D01*
Y0368D01*
X0963D01*
D56*
X03238Y0718D02*
G03*
X03238Y0718I-00026J0D01*
G01*
X03076Y07242D02*
G03*
X03076Y07116I0J-00063D01*
G01*
X02893Y07178D02*
G03*
X02893Y07178I-00026J0D01*
G01*
X02909Y07177D02*
X03009D01*
X03069Y07179D02*
X03169D01*
X02851Y07179D02*
X02884D01*
D57*
X03949Y07D02*
G03*
X03949Y07I-0011J0D01*
G01*
X04199D02*
G03*
X04199Y07I-0011J0D01*
G01*
X04449Y08209D02*
G03*
X04421Y08236I-00027J0D01*
G01*
X04449Y08028D02*
G03*
X04476Y08I00027J0D01*
G01*
X03779Y08236D02*
G03*
X03751Y08209I0J-00027D01*
G01*
X03724Y08D02*
G03*
X03751Y08028I0J00027D01*
G01*
X06049Y0645D02*
G03*
X06049Y0645I-0011J0D01*
G01*
X05449D02*
G03*
X05449Y0645I-0011J0D01*
G01*
X05749D02*
G03*
X05749Y0645I-0011J0D01*
G01*
X06649D02*
G03*
X06649Y0645I-0011J0D01*
G01*
X06349D02*
G03*
X06349Y0645I-0011J0D01*
G01*
X0429D02*
X0433D01*
X0457D02*
X0461D01*
X0433Y0649D02*
X0457D01*
X0433Y0641D02*
Y0649D01*
Y0641D02*
X0457D01*
Y0649D01*
Y0651D02*
Y0659D01*
X0433Y0651D02*
X0457D01*
X0433D02*
Y0659D01*
X0457D01*
Y0655D02*
X0461D01*
X0429D02*
X0433D01*
X038Y0704D02*
Y0708D01*
X0378Y0706D02*
X0382D01*
X0405Y0704D02*
Y0708D01*
X0403Y0706D02*
X0407D01*
X0472Y0311D02*
Y0319D01*
X0448Y0311D02*
X0472D01*
X0448D02*
Y0319D01*
X0472D01*
Y0315D02*
X0476D01*
X0444D02*
X0448D01*
X0438Y0426D02*
Y0434D01*
X0462D01*
Y0426D02*
Y0434D01*
X0438Y0426D02*
X0462D01*
X0434Y043D02*
X0438D01*
X0462D02*
X0466D01*
X0438Y0416D02*
Y0424D01*
X0462D01*
Y0416D02*
Y0424D01*
X0438Y0416D02*
X0462D01*
X0434Y042D02*
X0438D01*
X0462D02*
X0466D01*
X0438Y0406D02*
Y0414D01*
X0462D01*
Y0406D02*
Y0414D01*
X0438Y0406D02*
X0462D01*
X0434Y041D02*
X0438D01*
X0462D02*
X0466D01*
X0733Y0596D02*
Y0604D01*
X0757D01*
Y0596D02*
Y0604D01*
X0733Y0596D02*
X0757D01*
X0729Y06D02*
X0733D01*
X0757D02*
X0761D01*
X0733Y0586D02*
Y0594D01*
X0757D01*
Y0586D02*
Y0594D01*
X0733Y0586D02*
X0757D01*
X0729Y059D02*
X0733D01*
X0757D02*
X0761D01*
X0733Y0576D02*
Y0584D01*
X0757D01*
Y0576D02*
Y0584D01*
X0733Y0576D02*
X0757D01*
X0729Y058D02*
X0733D01*
X0757D02*
X0761D01*
X0733Y0566D02*
Y0574D01*
X0757D01*
Y0566D02*
Y0574D01*
X0733Y0566D02*
X0757D01*
X0729Y057D02*
X0733D01*
X0757D02*
X0761D01*
X0733Y0556D02*
Y0564D01*
X0757D01*
Y0556D02*
Y0564D01*
X0733Y0556D02*
X0757D01*
X0729Y056D02*
X0733D01*
X0757D02*
X0761D01*
X0733Y0546D02*
Y0554D01*
X0757D01*
Y0546D02*
Y0554D01*
X0733Y0546D02*
X0757D01*
X0729Y055D02*
X0733D01*
X0757D02*
X0761D01*
X0733Y0536D02*
Y0544D01*
X0757D01*
Y0536D02*
Y0544D01*
X0733Y0536D02*
X0757D01*
X0729Y054D02*
X0733D01*
X0757D02*
X0761D01*
X0733Y0526D02*
Y0534D01*
X0757D01*
Y0526D02*
Y0534D01*
X0733Y0526D02*
X0757D01*
X0729Y053D02*
X0733D01*
X0757D02*
X0761D01*
X04449Y08028D02*
Y08209D01*
X03751Y08028D02*
Y08209D01*
X03824Y07512D02*
Y07882D01*
X03494Y08D02*
X04706D01*
X04376Y07512D02*
Y07882D01*
X03494Y07512D02*
X04706D01*
X03779Y08236D02*
X04421D01*
X03494Y07512D02*
Y08D01*
X04706Y07512D02*
Y08D01*
X03494Y07882D02*
X04706D01*
X0733Y0436D02*
Y0444D01*
X0757D01*
Y0436D02*
Y0444D01*
X0733Y0436D02*
X0757D01*
X0729Y044D02*
X0733D01*
X0757D02*
X0761D01*
X0733Y0426D02*
Y0434D01*
X0757D01*
Y0426D02*
Y0434D01*
X0733Y0426D02*
X0757D01*
X0729Y043D02*
X0733D01*
X0757D02*
X0761D01*
X0733Y0416D02*
Y0424D01*
X0757D01*
Y0416D02*
Y0424D01*
X0733Y0416D02*
X0757D01*
X0729Y042D02*
X0733D01*
X0757D02*
X0761D01*
X059Y0649D02*
Y0653D01*
X0588Y0651D02*
X0592D01*
X053Y0649D02*
Y0653D01*
X0528Y0651D02*
X0532D01*
X056Y0649D02*
Y0653D01*
X0558Y0651D02*
X0562D01*
X065Y0649D02*
Y0653D01*
X0648Y0651D02*
X0652D01*
X0842Y0611D02*
Y0619D01*
X0818Y0611D02*
X0842D01*
X0818D02*
Y0619D01*
X0842D01*
Y0615D02*
X0846D01*
X0814D02*
X0818D01*
X0902Y0386D02*
Y0394D01*
X0878Y0386D02*
X0902D01*
X0878D02*
Y0394D01*
X0902D01*
Y039D02*
X0906D01*
X0874D02*
X0878D01*
X0902Y0376D02*
Y0384D01*
X0878Y0376D02*
X0902D01*
X0878D02*
Y0384D01*
X0902D01*
Y038D02*
X0906D01*
X0874D02*
X0878D01*
X0902Y0396D02*
Y0404D01*
X0878Y0396D02*
X0902D01*
X0878D02*
Y0404D01*
X0902D01*
Y04D02*
X0906D01*
X0874D02*
X0878D01*
X0902Y0406D02*
Y0414D01*
X0878Y0406D02*
X0902D01*
X0878D02*
Y0414D01*
X0902D01*
Y041D02*
X0906D01*
X0874D02*
X0878D01*
X062Y0649D02*
Y0653D01*
X0618Y0651D02*
X0622D01*
X0884Y0653D02*
X0888D01*
X0912D02*
X0916D01*
X0888Y0657D02*
X0912D01*
X0888Y0649D02*
Y0657D01*
Y0649D02*
X0912D01*
Y0657D01*
X0768Y0373D02*
X0772D01*
X0796D02*
X08D01*
X0772Y0377D02*
X0796D01*
X0772Y0369D02*
Y0377D01*
Y0369D02*
X0796D01*
Y0377D01*
X02027Y06339D02*
X02212D01*
X02027Y06761D02*
X02212D01*
X02027Y06339D02*
Y06761D01*
X02212Y06339D02*
Y06761D01*
X02193Y06339D02*
Y06761D01*
X0608Y0499D02*
Y0507D01*
X0632D01*
Y0499D02*
Y0507D01*
X0608Y0499D02*
X0632D01*
X0604Y0503D02*
X0608D01*
X0632D02*
X0636D01*
X0429Y0665D02*
X0433D01*
X0457D02*
X0461D01*
X0433Y0669D02*
X0457D01*
X0433Y0661D02*
Y0669D01*
Y0661D02*
X0457D01*
Y0669D01*
X03788Y06761D02*
X03973D01*
X03788Y06339D02*
X03973D01*
Y06761D01*
X03788Y06339D02*
Y06761D01*
X03807Y06339D02*
Y06761D01*
X0757Y0446D02*
Y0454D01*
X0733Y0446D02*
X0757D01*
X0733D02*
Y0454D01*
X0757D01*
Y045D02*
X0761D01*
X0729D02*
X0733D01*
D58*
X03069Y07179D02*
G03*
X03069Y07179I-00001J0D01*
G01*
D59*
X043Y0675D02*
X046D01*
X043D02*
Y0685D01*
X046D01*
Y0675D02*
Y0685D01*
X054Y041D02*
X057D01*
X054D02*
Y042D01*
X057D01*
Y041D02*
Y042D01*
X0685Y062D02*
X0715D01*
Y061D02*
Y062D01*
X0685Y061D02*
X0715D01*
X0685D02*
Y062D01*
X087D02*
X09D01*
Y061D02*
Y062D01*
X087Y061D02*
X09D01*
X087D02*
Y062D01*
X0735Y0495D02*
X0765D01*
Y0485D02*
Y0495D01*
X0735Y0485D02*
X0765D01*
X0735D02*
Y0495D01*
X056Y062D02*
X059D01*
Y061D02*
Y062D01*
X056Y061D02*
X059D01*
X056D02*
Y062D01*
X05D02*
X053D01*
Y061D02*
Y062D01*
X05Y061D02*
X053D01*
X05D02*
Y062D01*
X044D02*
X047D01*
Y061D02*
Y062D01*
X044Y061D02*
X047D01*
X044D02*
Y062D01*
X0375D02*
X0405D01*
Y061D02*
Y062D01*
X0375Y061D02*
X0405D01*
X0375D02*
Y062D01*
X0285D02*
X0315D01*
Y061D02*
Y062D01*
X0285Y061D02*
X0315D01*
X0285D02*
Y062D01*
X0505Y042D02*
X0535D01*
Y041D02*
Y042D01*
X0505Y041D02*
X0535D01*
X0505D02*
Y042D01*
X0385Y0415D02*
X0415D01*
Y0405D02*
Y0415D01*
X0385Y0405D02*
X0415D01*
X0385D02*
Y0415D01*
X0225Y0425D02*
Y0435D01*
Y0425D02*
X0255D01*
Y0435D01*
X0225D02*
X0255D01*
X0609Y05042D02*
X06098Y0505D01*
X06115D01*
X06123Y05042D01*
Y05033D01*
X06115Y05025D01*
X06107D01*
X06115D01*
X06123Y05017D01*
Y05008D01*
X06115Y05D01*
X06098D01*
X0609Y05008D01*
X0614Y05D02*
Y05008D01*
X06148D01*
Y05D01*
X0614D01*
X06182Y05042D02*
X0619Y0505D01*
X06207D01*
X06215Y05042D01*
Y05033D01*
X06207Y05025D01*
X06198D01*
X06207D01*
X06215Y05017D01*
Y05008D01*
X06207Y05D01*
X0619D01*
X06182Y05008D01*
X06232Y0505D02*
Y05D01*
Y05017D01*
X06265Y0505D01*
X0624Y05025D01*
X06265Y05D01*
X0742Y0448D02*
X07437D01*
X07428D01*
Y0453D01*
X0742Y04522D01*
X07462Y0453D02*
Y0448D01*
Y04497D01*
X07495Y0453D01*
X0747Y04505D01*
X07495Y0448D01*
X0707D02*
Y0453D01*
X07095D01*
X07103Y04522D01*
Y04505D01*
X07095Y04497D01*
X0707D01*
X07087D02*
X07103Y0448D01*
X07153D02*
X0712D01*
X07153Y04513D01*
Y04522D01*
X07145Y0453D01*
X07128D01*
X0712Y04522D01*
X0717Y0453D02*
X07203D01*
Y04522D01*
X0717Y04488D01*
Y0448D01*
D60*
X03195Y07181D02*
X03228D01*
X03212Y07198D02*
Y07164D01*
M02*
